<svg width="58" height="58" viewBox="0 0 58 58" fill="none" xmlns="http://www.w3.org/2000/svg">
<g id="Camada 1">
<g id="Group">
<path id="Vector" d="M29.5199 51.4799C24.7599 51.4799 20.3499 50.0699 16.6499 47.6399L7.66992 50.4999L10.5899 41.8799C7.78992 38.0499 6.13992 33.3499 6.13992 28.2699C6.13992 27.5099 6.17992 26.7599 6.25992 26.0199C7.38992 14.2699 17.3899 5.05991 29.5199 5.05991C41.6499 5.05991 51.8999 14.4999 52.8299 26.4599C52.8799 27.0599 52.9099 27.6599 52.9099 28.2699C52.9099 41.0699 42.4099 51.4799 29.5199 51.4799ZM57.3199 27.5699C56.9399 12.6399 44.6499 0.659912 29.5199 0.659912C14.3899 0.659912 2.37992 12.3699 1.72992 27.0599C1.71992 27.4699 1.69992 27.8699 1.69992 28.2699C1.69992 33.4899 3.15992 38.3599 5.67992 42.5299L0.669922 57.3399L16.0799 52.4399C20.0699 54.6299 24.6499 55.8799 29.5199 55.8799C44.8899 55.8799 57.3399 43.5199 57.3399 28.2699C57.3399 28.0299 57.3399 27.7999 57.3299 27.5599" fill="#5E2028"/>
<path id="Vector_2" d="M42.2697 33.8399C41.5797 33.4999 38.2297 31.8599 37.6097 31.6399C36.9897 31.4099 36.5297 31.2999 36.0697 31.9799C35.6197 32.6599 34.2997 34.1799 33.9097 34.6199C33.5097 35.0699 33.1197 35.1299 32.4297 34.7899C31.7497 34.4499 29.5497 33.7499 26.9497 31.4299C24.9297 29.6499 23.5497 27.4299 23.1597 26.7599C22.7697 26.0799 23.1197 25.7199 23.4597 25.3799C23.7697 25.0699 24.1397 24.5899 24.4897 24.1999C24.5797 24.0799 24.6597 23.9799 24.7397 23.8799C24.8997 23.6299 25.0097 23.3999 25.1697 23.0699C25.3997 22.6099 25.2897 22.2199 25.1197 21.8799C24.9497 21.5399 23.5797 18.2099 23.0097 16.8499C22.4497 15.4999 21.8797 15.7299 21.4697 15.7299C21.0597 15.7299 20.6197 15.6599 20.1697 15.6599C19.7197 15.6599 18.9697 15.8299 18.3497 16.5099C17.7197 17.1899 15.9697 18.8299 15.9697 22.1599C15.9697 22.9399 16.1097 23.7199 16.3197 24.4699C17.0097 26.8499 18.4997 28.8199 18.7597 29.1599C19.0997 29.5999 23.4797 36.6599 30.3997 39.3899C37.3397 42.0799 37.3397 41.1799 38.5897 41.0699C39.8397 40.9699 42.6297 39.4399 43.1897 37.8599C43.7597 36.2799 43.7597 34.9299 43.5897 34.6399C43.4197 34.3599 42.9697 34.1999 42.2897 33.8599" fill="#5E2028"/>
</g>
</g>
</svg>
