<svg width="58" height="58" viewBox="0 0 58 58" fill="none" xmlns="http://www.w3.org/2000/svg">
<g id="Camada 1">
<g id="Group">
<path id="Vector" d="M39.5687 37.4676C37.7255 39.0742 35.428 41.0699 31.2469 41.0699H28.7524C25.7327 41.0699 22.9807 39.9938 21.0164 38.0385C19.0975 36.1287 18.0371 33.5167 18.0371 30.6824V27.3276C18.0371 24.4933 19.0925 21.8762 21.0164 19.9715C22.9857 18.0163 25.7327 16.9401 28.7524 16.9401H31.2469C35.428 16.9401 37.7255 18.9358 39.5687 20.5424C41.4825 22.2097 43.1337 23.6445 47.542 23.6445C48.2237 23.6445 48.8953 23.5889 49.5517 23.4879C49.5467 23.4727 49.5416 23.4626 49.5366 23.4525C49.274 22.8159 48.966 22.1895 48.6125 21.5832L45.6686 16.5764C42.967 11.9838 37.973 9.15454 32.5699 9.15454H26.682C21.279 9.15454 16.2849 11.9838 13.5834 16.5764L10.6394 21.5832C7.9379 26.1757 7.9379 31.8343 10.6394 36.4268L13.5834 41.4337C16.2849 46.0262 21.279 48.8555 26.682 48.8555H32.5699C37.973 48.8555 42.967 46.0262 45.6686 41.4337L48.6125 36.4268C48.966 35.8206 49.274 35.1991 49.5366 34.5625C49.5416 34.5474 49.5467 34.5373 49.5517 34.5272C48.9003 34.4211 48.2287 34.3705 47.542 34.3705C43.1387 34.3705 41.4825 35.8054 39.5687 37.4727" fill="#F8F7F0"/>
<path id="Vector_2" d="M31.2472 19.9766H28.7527C24.1525 19.9766 21.1328 23.1999 21.1328 27.3277V30.6824C21.1328 34.8101 24.1525 38.0335 28.7527 38.0335H31.2472C37.948 38.0335 37.4229 31.3291 47.5372 31.3291C48.5068 31.3291 49.4662 31.415 50.3953 31.5867C50.7033 29.8791 50.7033 28.136 50.3953 26.4283C49.4611 26.6001 48.5068 26.686 47.5372 26.686C37.4178 26.686 37.948 19.9766 31.2472 19.9766Z" fill="#F8F7F0"/>
<path id="Vector_3" d="M56.2123 34.0321C54.4854 32.7791 52.5009 31.9657 50.4002 31.5817C50.4002 31.5969 50.3952 31.612 50.3901 31.6322C50.2084 32.6124 49.9306 33.5824 49.5469 34.5222C51.3193 34.8051 52.9554 35.4568 54.3541 36.4622C54.349 36.4774 54.344 36.4926 54.3389 36.5077C53.531 39.0743 52.3191 41.4943 50.7285 43.6971C49.158 45.8696 47.2594 47.7844 45.0881 49.386C40.5737 52.7104 35.1959 54.4636 29.5403 54.4636C26.0359 54.4636 22.6425 53.7916 19.4411 52.4629C16.3558 51.1796 13.5785 49.3456 11.1951 47.0064C8.81166 44.6672 6.93825 41.944 5.63545 38.9126C4.28216 35.7751 3.60046 32.4406 3.60046 29C3.60046 25.5594 4.28721 22.2249 5.63545 19.0874C6.9433 16.056 8.81166 13.3328 11.1951 10.9936C13.5785 8.65441 16.3558 6.82042 19.4411 5.53714C22.6375 4.20839 26.0359 3.53643 29.5403 3.53643C35.2009 3.53643 40.5737 5.28958 45.0881 8.61399C47.2644 10.2156 49.158 12.1304 50.7285 14.3029C52.3191 16.5057 53.531 18.9257 54.3389 21.4923C54.344 21.5074 54.349 21.5226 54.3541 21.5378C52.9554 22.5432 51.3243 23.2 49.5469 23.4778C49.9306 24.4176 50.2134 25.3876 50.3901 26.3678C50.3901 26.3829 50.3901 26.3981 50.4002 26.4132C52.5009 26.0293 54.4854 25.2108 56.2123 23.9629C57.8686 22.7604 57.5505 21.4013 57.298 20.593C53.6421 8.9626 42.5986 0.5 29.5403 0.5C13.4977 0.5 0.5 13.2621 0.5 29C0.5 44.7379 13.5027 57.5 29.5403 57.5C42.5986 57.5 53.6471 49.0374 57.298 37.3969C57.5505 36.5936 57.8737 35.2345 56.2123 34.0321Z" fill="#F8F7F0"/>
</g>
</g>
</svg>
