<svg width="82" height="79" viewBox="0 0 82 79" fill="none" xmlns="http://www.w3.org/2000/svg">
<g id="Conte&#195;&#186;do">
<g id="Group">
<path id="Vector" d="M41.0014 20.7809C48.3294 20.7809 54.2687 26.5029 54.2687 33.5629C54.2687 40.6229 48.3294 46.3474 41.0014 46.3474C33.6708 46.3474 27.7313 40.6228 27.7313 33.5629C27.7313 26.5029 33.6708 20.7809 41.0014 20.7809ZM38.9439 78.9479C39.6261 78.9791 40.3083 79 41.0014 79C41.6917 79 42.3739 78.9791 43.0561 78.9479L45.3356 76.6188L43.3863 55.233H38.6138L36.673 76.6188L38.9439 78.9479ZM41.0014 0C18.354 4.94183e-05 0 17.6851 0 39.5014C0 51.5348 5.59295 62.3138 14.4099 69.5589C17.0277 59.3354 25.8283 51.4539 36.7785 49.8213L38.6138 52.5493H43.3863L45.2272 49.8213C56.1774 51.4539 64.9809 59.3354 67.5958 69.5589C76.4127 62.3138 82 51.5348 82 39.5014C82 17.6851 63.6462 0 41.0014 0Z" fill="#5E1F28"/>
<g id="Clip path group">
<mask id="mask0_57_611" style="mask-type:luminance" maskUnits="userSpaceOnUse" x="0" y="0" width="82" height="79">
<g id="clippath">
<path id="Vector_2" d="M41.0014 20.7809C48.3294 20.7809 54.2687 26.5029 54.2687 33.5629C54.2687 40.6229 48.3294 46.3474 41.0014 46.3474C33.6708 46.3474 27.7313 40.6228 27.7313 33.5629C27.7313 26.5029 33.6708 20.7809 41.0014 20.7809ZM38.9439 78.9479C39.6261 78.9791 40.3083 79 41.0014 79C41.6917 79 42.3739 78.9791 43.0561 78.9479L45.3356 76.6188L43.3863 55.233H38.6138L36.673 76.6188L38.9439 78.9479ZM41.0014 0C18.354 4.94183e-05 0 17.6851 0 39.5014C0 51.5348 5.59295 62.3138 14.4099 69.5589C17.0277 59.3354 25.8283 51.4539 36.7785 49.8213L38.6138 52.5493H43.3863L45.2272 49.8213C56.1774 51.4539 64.9809 59.3354 67.5958 69.5589C76.4127 62.3138 82 51.5348 82 39.5014C82 17.6851 63.6462 0 41.0014 0Z" fill="white"/>
</g>
</mask>
<g mask="url(#mask0_57_611)">
<g id="Group_2">
<path id="Vector_3" d="M82 0H0V79H82V0Z" fill="#5E1F28"/>
</g>
</g>
</g>
</g>
</g>
</svg>
