<svg width="77" height="79" viewBox="0 0 77 79" fill="none" xmlns="http://www.w3.org/2000/svg">
<g id="Dedica&#195;&#167;&#195;&#163;o">
<path id="Vector" d="M49.0555 29.1312L33.8801 44.7337L27.9446 38.6112C27.3405 37.9914 26.5211 37.6432 25.6667 37.6432C24.8123 37.6432 23.9929 37.9914 23.3888 38.6112C22.7847 39.2311 22.4453 40.0717 22.4453 40.9483C22.4453 41.3823 22.5286 41.8121 22.6905 42.2131C22.8524 42.6141 23.0897 42.9785 23.3888 43.2854L31.6021 51.7121C31.9004 52.0206 32.2552 52.2655 32.6462 52.4326C33.0372 52.5997 33.4565 52.6857 33.8801 52.6857C34.3036 52.6857 34.7229 52.5997 35.1139 52.4326C35.5049 52.2655 35.8597 52.0206 36.158 51.7121L53.6113 33.8054C53.9104 33.4985 54.1477 33.1341 54.3096 32.7331C54.4715 32.3321 54.5549 31.9023 54.5549 31.4683C54.5549 31.0343 54.4715 30.6045 54.3096 30.2035C54.1477 29.8025 53.9104 29.4381 53.6113 29.1312C53.3122 28.8243 52.957 28.5809 52.5662 28.4148C52.1753 28.2487 51.7564 28.1632 51.3334 28.1632C50.9103 28.1632 50.4914 28.2487 50.1006 28.4148C49.7097 28.5809 49.3546 28.8243 49.0555 29.1312ZM38.5001 6.58331C34.2868 6.58331 30.1148 7.43473 26.2223 9.08895C22.3298 10.7432 18.7929 13.1678 15.8137 16.2244C9.79692 22.3975 6.41673 30.7699 6.41673 39.5C6.38868 47.1009 8.95385 54.4722 13.6676 60.3362L7.25089 66.9196C6.80571 67.3824 6.50414 67.9702 6.38423 68.6088C6.26432 69.2473 6.33145 69.908 6.57714 70.5075C6.84362 71.0997 7.27561 71.5974 7.81828 71.9373C8.36094 72.2773 8.98981 72.4441 9.62506 72.4166H38.5001C47.0091 72.4166 55.1696 68.9486 61.1864 62.7756C67.2032 56.6025 70.5834 48.23 70.5834 39.5C70.5834 30.7699 67.2032 22.3975 61.1864 16.2244C55.1696 10.0513 47.0091 6.58331 38.5001 6.58331ZM38.5001 65.8333H17.3571L20.3409 62.7721C20.9384 62.1553 21.2739 61.321 21.2739 60.4514C21.2739 59.5818 20.9384 58.7475 20.3409 58.1308C16.1399 53.8254 13.5237 48.1588 12.9383 42.0964C12.3528 36.034 13.8342 29.9509 17.1301 24.8834C20.426 19.8159 25.3324 16.0777 31.0135 14.3055C36.6945 12.5333 42.7988 12.8368 48.2862 15.1644C53.7736 17.492 58.3046 21.6996 61.1074 27.0703C63.9101 32.441 64.8112 38.6426 63.657 44.6185C62.5028 50.5944 59.3648 55.9749 54.7777 59.8433C50.1905 63.7116 44.4379 65.8285 38.5001 65.8333Z" fill="white"/>
</g>
</svg>
