<svg width="89" height="90" viewBox="0 0 89 90" fill="none" xmlns="http://www.w3.org/2000/svg">
<path d="M56.7004 33.1875L39.16 50.9625L32.2996 43.9875C31.6013 43.2814 30.6542 42.8847 29.6667 42.8847C28.6791 42.8847 27.732 43.2814 27.0337 43.9875C26.3354 44.6936 25.9431 45.6514 25.9431 46.65C25.9431 47.1445 26.0395 47.6341 26.2266 48.0909C26.4137 48.5478 26.688 48.9629 27.0337 49.3125L36.5271 58.9125C36.8718 59.264 37.282 59.543 37.7339 59.7333C38.1857 59.9237 38.6704 60.0217 39.16 60.0217C39.6495 60.0217 40.1342 59.9237 40.5861 59.7333C41.038 59.543 41.4482 59.264 41.7929 58.9125L61.9662 38.5125C62.312 38.1629 62.5863 37.7478 62.7734 37.2909C62.9605 36.8341 63.0568 36.3445 63.0568 35.85C63.0568 35.3555 62.9605 34.8659 62.7734 34.4091C62.5863 33.9522 62.312 33.5371 61.9662 33.1875C61.6205 32.8379 61.21 32.5605 60.7582 32.3713C60.3065 32.1821 59.8223 32.0847 59.3333 32.0847C58.8443 32.0847 58.3602 32.1821 57.9084 32.3713C57.4566 32.5605 57.0462 32.8379 56.7004 33.1875ZM44.5 7.5C39.6301 7.5 34.808 8.46997 30.3088 10.3545C25.8097 12.2391 21.7216 15.0013 18.2781 18.4835C11.3236 25.5161 7.41666 35.0544 7.41666 45C7.38424 53.6593 10.3492 62.057 15.7975 68.7375L8.38082 76.2375C7.86627 76.7648 7.5177 77.4345 7.3791 78.1619C7.2405 78.8894 7.31809 79.6421 7.60207 80.325C7.91008 80.9997 8.40939 81.5667 9.03663 81.954C9.66387 82.3412 10.3907 82.5313 11.125 82.5H44.5C54.3351 82.5 63.7674 78.5491 70.7219 71.5165C77.6763 64.4839 81.5833 54.9456 81.5833 45C81.5833 35.0544 77.6763 25.5161 70.7219 18.4835C63.7674 11.4509 54.3351 7.5 44.5 7.5ZM44.5 75H20.0621L23.5108 71.5125C24.2015 70.8099 24.5892 69.8594 24.5892 68.8687C24.5892 67.8781 24.2015 66.9276 23.5108 66.225C18.6551 61.3202 15.6313 54.8645 14.9546 47.958C14.2778 41.0514 15.9901 34.1213 19.7996 28.3482C23.6091 22.5751 29.2802 18.3163 35.8466 16.2974C42.4131 14.2785 49.4686 14.6243 55.8112 17.2759C62.1538 19.9276 67.391 24.721 70.6305 30.8396C73.8701 36.9582 74.9116 44.0233 73.5775 50.8313C72.2435 57.6393 68.6164 63.7689 63.3144 68.1759C58.0123 72.5829 51.3632 74.9945 44.5 75Z" fill="#262626"/>
</svg>
