<svg width="89" height="89" viewBox="0 0 89 89" fill="none" xmlns="http://www.w3.org/2000/svg">
<g id="Excel&#195;&#170;ncia">
<g id="Vector">
<path d="M77.3929 63.9688L67.3433 46.6137C69.3998 42.8368 70.4711 38.6025 70.4583 34.3021C70.4583 27.4175 67.7234 20.8149 62.8553 15.9468C57.9872 11.0786 51.3846 8.34375 44.5 8.34375C37.6154 8.34375 31.0128 11.0786 26.1447 15.9468C21.2765 20.8149 18.5417 27.4175 18.5417 34.3021C18.5289 38.6025 19.6002 42.8368 21.6567 46.6137L11.6071 63.9688C11.281 64.5336 11.1096 65.1744 11.1102 65.8266C11.1109 66.4788 11.2835 67.1193 11.6107 67.6835C11.938 68.2477 12.4082 68.7156 12.974 69.04C13.5398 69.3644 14.1811 69.5338 14.8333 69.5312H25.4762L30.8904 78.6537C31.0729 78.9561 31.2977 79.2308 31.5579 79.4696C32.2453 80.1322 33.1619 80.5041 34.1167 80.5079H34.6358C35.1957 80.4313 35.7306 80.2278 36.1998 79.9128C36.6689 79.5979 37.0599 79.1799 37.3429 78.6908L44.5 66.3792L51.6571 78.8021C51.9442 79.2843 52.337 79.695 52.8059 80.0034C53.2749 80.3117 53.8077 80.5096 54.3642 80.5821H54.8833C55.8509 80.5879 56.7825 80.2153 57.4792 79.5438C57.7286 79.3186 57.9413 79.0558 58.1096 78.765L63.5237 69.6425H74.1667C74.8201 69.6451 75.4626 69.475 76.0292 69.1494C76.5957 68.8238 77.0662 68.3542 77.3929 67.7883C77.7394 67.2116 77.9225 66.5514 77.9225 65.8785C77.9225 65.2057 77.7394 64.5455 77.3929 63.9688ZM34.0796 69.6425L30.7792 64.1171C30.4542 63.5689 29.9934 63.1137 29.4413 62.7954C28.8892 62.4771 28.2643 62.3065 27.6271 62.3H21.2117L26.5146 53.1033C30.1663 56.6221 34.7686 58.9942 39.7533 59.9267L34.0796 69.6425ZM44.5 52.8438C40.8328 52.8438 37.248 51.7563 34.1988 49.7189C31.1496 47.6815 28.7731 44.7857 27.3697 41.3977C25.9663 38.0096 25.5992 34.2815 26.3146 30.6848C27.03 27.0881 28.7959 23.7842 31.389 21.1911C33.9821 18.598 37.286 16.8321 40.8827 16.1167C44.4794 15.4013 48.2075 15.7684 51.5956 17.1718C54.9836 18.5752 57.8794 20.9517 59.9168 24.0009C61.9542 27.05 63.0417 30.6349 63.0417 34.3021C63.0417 39.2196 61.0882 43.9358 57.6109 47.413C54.1337 50.8903 49.4175 52.8438 44.5 52.8438ZM61.3729 62.3C60.7356 62.3065 60.1108 62.4771 59.5587 62.7954C59.0066 63.1137 58.5458 63.5689 58.2208 64.1171L54.9204 69.6425L49.2837 59.8154C54.251 58.8638 58.8363 56.4939 62.4854 52.9921L67.7883 62.1888L61.3729 62.3Z" fill="white"/>
<path d="M77.3929 63.9688L67.3433 46.6137C69.3998 42.8368 70.4711 38.6025 70.4583 34.3021C70.4583 27.4175 67.7234 20.8149 62.8553 15.9468C57.9872 11.0786 51.3846 8.34375 44.5 8.34375C37.6154 8.34375 31.0128 11.0786 26.1447 15.9468C21.2765 20.8149 18.5417 27.4175 18.5417 34.3021C18.5289 38.6025 19.6002 42.8368 21.6567 46.6137L11.6071 63.9688C11.281 64.5336 11.1096 65.1744 11.1102 65.8266C11.1109 66.4788 11.2835 67.1193 11.6107 67.6835C11.938 68.2477 12.4082 68.7156 12.974 69.04C13.5398 69.3644 14.1811 69.5338 14.8333 69.5312H25.4762L30.8904 78.6537C31.0729 78.9561 31.2977 79.2308 31.5579 79.4696C32.2453 80.1322 33.1619 80.5041 34.1167 80.5079H34.6358C35.1957 80.4313 35.7306 80.2278 36.1998 79.9128C36.6689 79.5979 37.0599 79.1799 37.3429 78.6908L44.5 66.3792L51.6571 78.8021C51.9442 79.2843 52.337 79.695 52.8059 80.0034C53.2749 80.3117 53.8077 80.5096 54.3642 80.5821H54.8833C55.8509 80.5879 56.7825 80.2153 57.4792 79.5438C57.7286 79.3186 57.9413 79.0558 58.1096 78.765L63.5237 69.6425H74.1667C74.8201 69.6451 75.4626 69.475 76.0292 69.1494C76.5957 68.8238 77.0662 68.3542 77.3929 67.7883C77.7394 67.2116 77.9225 66.5514 77.9225 65.8785C77.9225 65.2057 77.7394 64.5455 77.3929 63.9688ZM34.0796 69.6425L30.7792 64.1171C30.4542 63.5689 29.9934 63.1137 29.4413 62.7954C28.8892 62.4771 28.2643 62.3065 27.6271 62.3H21.2117L26.5146 53.1033C30.1663 56.6221 34.7686 58.9942 39.7533 59.9267L34.0796 69.6425ZM44.5 52.8438C40.8328 52.8438 37.248 51.7563 34.1988 49.7189C31.1496 47.6815 28.7731 44.7857 27.3697 41.3977C25.9663 38.0096 25.5992 34.2815 26.3146 30.6848C27.03 27.0881 28.7959 23.7842 31.389 21.1911C33.9821 18.598 37.286 16.8321 40.8827 16.1167C44.4794 15.4013 48.2075 15.7684 51.5956 17.1718C54.9836 18.5752 57.8794 20.9517 59.9168 24.0009C61.9542 27.05 63.0417 30.6349 63.0417 34.3021C63.0417 39.2196 61.0882 43.9358 57.6109 47.413C54.1337 50.8903 49.4175 52.8438 44.5 52.8438ZM61.3729 62.3C60.7356 62.3065 60.1108 62.4771 59.5587 62.7954C59.0066 63.1137 58.5458 63.5689 58.2208 64.1171L54.9204 69.6425L49.2837 59.8154C54.251 58.8638 58.8363 56.4939 62.4854 52.9921L67.7883 62.1888L61.3729 62.3Z" stroke="white"/>
</g>
</g>
</svg>
