<svg width="101" height="101" viewBox="0 0 101 101" fill="none" xmlns="http://www.w3.org/2000/svg">
<path d="M87.8279 72.5937L76.4234 52.8987C78.7571 48.6126 79.9728 43.8074 79.9584 38.9271C79.9584 31.1142 76.8547 23.6214 71.3302 18.0969C65.8057 12.5724 58.3129 9.46875 50.5 9.46875C42.6872 9.46875 35.1943 12.5724 29.6698 18.0969C24.1453 23.6214 21.0417 31.1142 21.0417 38.9271C21.0272 43.8074 22.243 48.6126 24.5767 52.8987L13.1721 72.5937C12.802 73.2347 12.6075 73.962 12.6083 74.7021C12.609 75.4422 12.8049 76.1691 13.1763 76.8093C13.5476 77.4496 14.0812 77.9806 14.7233 78.3487C15.3654 78.7169 16.0932 78.9092 16.8334 78.9062H28.9113L35.0554 89.2587C35.2626 89.6018 35.5176 89.9136 35.8129 90.1846C36.5931 90.9365 37.6332 91.3586 38.7167 91.3629H39.3059C39.9412 91.276 40.5482 91.045 41.0807 90.6876C41.6131 90.3302 42.0568 89.8559 42.3779 89.3008L50.5 75.3292L58.6221 89.4271C58.9479 89.9743 59.3937 90.4404 59.9259 90.7903C60.458 91.1402 61.0627 91.3648 61.6942 91.4471H62.2834C63.3814 91.4537 64.4386 91.0308 65.2292 90.2687C65.5122 90.0132 65.7536 89.715 65.9446 89.385L72.0888 79.0325H84.1667C84.9082 79.0354 85.6374 78.8424 86.2803 78.4729C86.9233 78.1034 87.4572 77.5705 87.8279 76.9283C88.2212 76.2738 88.4289 75.5246 88.4289 74.761C88.4289 73.9975 88.2212 73.2483 87.8279 72.5937ZM38.6746 79.0325L34.9292 72.7621C34.5604 72.14 34.0375 71.6234 33.4109 71.2622C32.7844 70.901 32.0753 70.7074 31.3521 70.7H24.0717L30.0896 60.2633C34.2337 64.2565 39.4566 66.9485 45.1134 68.0067L38.6746 79.0325ZM50.5 59.9687C46.3384 59.9687 42.2702 58.7347 38.8099 56.4226C35.3496 54.1105 32.6527 50.8242 31.0601 46.9794C29.4675 43.1345 29.0508 38.9037 29.8627 34.8221C30.6746 30.7404 32.6786 26.9911 35.6213 24.0484C38.564 21.1056 42.3133 19.1016 46.395 18.2897C50.4767 17.4778 54.7075 17.8945 58.5523 19.4871C62.3972 21.0797 65.6834 23.7767 67.9955 27.237C70.3076 30.6972 71.5417 34.7654 71.5417 38.9271C71.5417 44.5077 69.3248 49.8597 65.3787 53.8058C61.4327 57.7519 56.0806 59.9687 50.5 59.9687ZM69.6479 70.7C68.9248 70.7074 68.2157 70.901 67.5891 71.2622C66.9626 71.6234 66.4397 72.14 66.0709 72.7621L62.3254 79.0325L55.9288 67.8804C61.5658 66.8005 66.7693 64.1111 70.9104 60.1371L76.9284 70.5737L69.6479 70.7Z" fill="black"/>
<path d="M87.8279 72.5937L76.4234 52.8987C78.7571 48.6126 79.9728 43.8074 79.9584 38.9271C79.9584 31.1142 76.8547 23.6214 71.3302 18.0969C65.8057 12.5724 58.3129 9.46875 50.5 9.46875C42.6872 9.46875 35.1943 12.5724 29.6698 18.0969C24.1453 23.6214 21.0417 31.1142 21.0417 38.9271C21.0272 43.8074 22.243 48.6126 24.5767 52.8987L13.1721 72.5937C12.802 73.2347 12.6075 73.962 12.6083 74.7021C12.609 75.4422 12.8049 76.1691 13.1763 76.8093C13.5476 77.4496 14.0812 77.9806 14.7233 78.3487C15.3654 78.7169 16.0932 78.9092 16.8334 78.9062H28.9113L35.0554 89.2587C35.2626 89.6018 35.5176 89.9136 35.8129 90.1846C36.5931 90.9365 37.6332 91.3586 38.7167 91.3629H39.3059C39.9412 91.276 40.5482 91.045 41.0807 90.6876C41.6131 90.3302 42.0568 89.8559 42.3779 89.3008L50.5 75.3292L58.6221 89.4271C58.9479 89.9743 59.3937 90.4404 59.9259 90.7903C60.458 91.1402 61.0627 91.3648 61.6942 91.4471H62.2834C63.3814 91.4537 64.4386 91.0308 65.2292 90.2687C65.5122 90.0132 65.7536 89.715 65.9446 89.385L72.0888 79.0325H84.1667C84.9082 79.0354 85.6374 78.8424 86.2803 78.4729C86.9233 78.1034 87.4572 77.5705 87.8279 76.9283C88.2212 76.2738 88.4289 75.5246 88.4289 74.761C88.4289 73.9975 88.2212 73.2483 87.8279 72.5937ZM38.6746 79.0325L34.9292 72.7621C34.5604 72.14 34.0375 71.6234 33.4109 71.2622C32.7844 70.901 32.0753 70.7074 31.3521 70.7H24.0717L30.0896 60.2633C34.2337 64.2565 39.4566 66.9485 45.1134 68.0067L38.6746 79.0325ZM50.5 59.9687C46.3384 59.9687 42.2702 58.7347 38.8099 56.4226C35.3496 54.1105 32.6527 50.8242 31.0601 46.9794C29.4675 43.1345 29.0508 38.9037 29.8627 34.8221C30.6746 30.7404 32.6786 26.9911 35.6213 24.0484C38.564 21.1056 42.3133 19.1016 46.395 18.2897C50.4767 17.4778 54.7075 17.8945 58.5523 19.4871C62.3972 21.0797 65.6834 23.7767 67.9955 27.237C70.3076 30.6972 71.5417 34.7654 71.5417 38.9271C71.5417 44.5077 69.3248 49.8597 65.3787 53.8058C61.4327 57.7519 56.0806 59.9687 50.5 59.9687ZM69.6479 70.7C68.9248 70.7074 68.2157 70.901 67.5891 71.2622C66.9626 71.6234 66.4397 72.14 66.0709 72.7621L62.3254 79.0325L55.9288 67.8804C61.5658 66.8005 66.7693 64.1111 70.9104 60.1371L76.9284 70.5737L69.6479 70.7Z" stroke="white"/>
</svg>
