<?xml version="1.0" encoding="UTF-8"?>
<svg id="Camada_2" data-name="Camada 2" xmlns="http://www.w3.org/2000/svg" width="32" height="32" viewBox="0 0 32 32">
  <rect x=".2825" width="32.16284" height="32.16284" style="fill: #5e2028;"/>
  <g>
    <path d="m13.89892,14.95196v4.03986c0,.77602.04367,1.35233.13116,1.72892s.24924.6867.48509.93008c.20542.2131.44309.37089.71333.4736.26993.10271.62568.16547,1.06695.1883v.26248h-7.29228v-.26248c.44111-.02282.79686-.08559,1.0671-.1883.26993-.10271.50776-.2605.71318-.4736.24346-.24338.40688-.55151.49072-.92437.08369-.37264.12553-.95093.12553-1.73463v-8.41066c0-.78347-.04184-1.36176-.12553-1.73463-.08384-.37264-.24726-.68077-.49072-.92437-.20542-.22056-.44507-.38032-.71896-.47931-.27389-.09875-.62766-.15977-1.06132-.18259v-.26248h5.5006c.92042,0,1.52526.00396,1.81451.01141,1.17924.05333,2.10362.2131,2.77312.47931.75319.3044,1.33703.7589,1.75182,1.36374.41448.60484.62188,1.30668.62188,2.10552,0,1.18685-.44903,2.138-1.34662,2.85301-.27389.2131-.57623.38801-.90733.52495-.3308.13694-.77419.26643-1.32942.38801.45648.19028.79489.38801,1.01567.59343.17498.15977.33475.35948.47931.59913.1444.23965.36123.66388.65049,1.27244.67711,1.39227,1.18868,2.40992,1.53484,3.05272.34616.64303.63725,1.10894.8731,1.39797.19005.23592.37462.39942.55356.49072.17864.0913.42392.15231.736.18259v.26248h-3.78879c-.1902-.41829-.31208-.68472-.36518-.79884l-.79884-1.81451c-.47931-1.08787-.96257-2.05021-1.44933-2.88724-.48691-.82912-.93198-1.396-1.33521-1.70039-.20542-.15208-.4262-.2605-.6619-.32524-.23585-.06452-.52495-.097-.86731-.097h-.55919Zm0-.25106h.43366c.94324,0,1.61853-.0531,2.02556-.15977.40703-.10644.78926-.32699,1.14698-.6619.79884-.76065,1.19826-1.70412,1.19826-2.83018,0-.60088-.1161-1.16578-.34799-1.69469-.2322-.52868-.55356-.96432-.96439-1.30668-.31954-.25852-.70009-.43936-1.1412-.54207-.44126-.10271-1.06893-.15406-1.88298-.15406h-.46789v7.34934Z" style="fill: #f8f7f0;"/>
    <rect x="9.00316" y="24.83253" width="14.72151" height=".33253" style="fill: #c7a572;"/>
  </g>
</svg>