<svg width="106" height="106" viewBox="0 0 106 106" fill="none" xmlns="http://www.w3.org/2000/svg">
<g id="Tribut&#195;&#161;rio / Fiscal">
<path id="Star 2" d="M51.51 10.4979C52.305 9.60989 53.6953 9.60989 54.4903 10.4979L64.8666 22.0886C65.2717 22.5411 65.8606 22.7851 66.4671 22.7515L82 21.8928C83.1901 21.827 84.1732 22.8101 84.1074 24.0002L83.2487 39.5331C83.2151 40.1396 83.4591 40.7285 83.9116 41.1337L95.5023 51.5099C96.3903 52.3049 96.3903 53.6952 95.5023 54.4902L83.9116 64.8664C83.4591 65.2716 83.2151 65.8604 83.2487 66.4669L84.1074 81.9999C84.1732 83.19 83.1901 84.1731 82 84.1073L66.4671 83.2485C65.8606 83.215 65.2717 83.4589 64.8665 83.9115L54.4903 95.5022C53.6953 96.3902 52.305 96.3902 51.51 95.5022L41.1338 83.9115C40.7286 83.4589 40.1398 83.215 39.5333 83.2485L24.0003 84.1073C22.8102 84.1731 21.8271 83.19 21.8929 81.9999L22.7517 66.4669C22.7852 65.8604 22.5413 65.2716 22.0887 64.8664L10.498 54.4902C9.61001 53.6952 9.61001 52.3049 10.498 51.5099L22.0887 41.1337C22.5413 40.7285 22.7852 40.1396 22.7517 39.5331L21.8929 24.0002C21.8271 22.8101 22.8102 21.827 24.0003 21.8928L39.5333 22.7515C40.1398 22.7851 40.7286 22.5411 41.1338 22.0886L51.51 10.4979Z" stroke="#C7A572" stroke-width="4"/>
<rect id="Rectangle 87" x="41.9585" y="41.9584" width="0.0421296" height="0.0421296" stroke="#C7A572" stroke-width="4" stroke-linejoin="round"/>
<rect id="Rectangle 88" x="64.0415" y="64.0416" width="0.0421296" height="0.0421296" stroke="#C7A572" stroke-width="4" stroke-linejoin="round"/>
<path id="Vector 65" d="M66.25 39.75L39.75 66.25" stroke="#C7A572" stroke-width="4" stroke-linecap="round" stroke-linejoin="round"/>
</g>
</svg>
