<svg width="49" height="30" viewBox="0 0 49 30" fill="none" xmlns="http://www.w3.org/2000/svg">
<path d="M48.7492 15.0029C48.7492 15.0029 37.5884 15.0029 29.7236 23.1975C31.2246 20.7873 32.0465 17.9697 32.0465 15.0029C32.0465 12.0362 31.2218 9.21857 29.7207 6.80554C37.7311 14.8595 48.7492 15.0029 48.7492 15.0029Z" fill="#C7A673"/>
<path d="M1.25 15C1.25 7.63756 7.18857 1.66669 14.5112 1.66669C21.8338 1.66669 27.7724 7.63756 27.7724 15" fill="#A16970"/>
<path d="M27.7752 15C27.7752 22.3653 21.8367 28.3333 14.514 28.3333C7.19142 28.3333 1.25 22.3653 1.25 15" fill="#A16970"/>
<path d="M1.25 15C1.25 7.63756 7.18857 1.66669 14.5112 1.66669C21.8338 1.66669 27.7724 7.63756 27.7724 15C27.7724 22.3625 21.8338 28.3334 14.5112 28.3334C7.18857 28.3334 1.25 22.3653 1.25 15Z" stroke="#F7F7F0" stroke-width="2" stroke-miterlimit="10"/>
<path d="M9.5625 15C9.5625 17.945 11.8226 20.3334 14.6094 20.3334C17.3962 20.3334 19.6562 17.945 19.6562 15C19.6562 12.0551 17.3962 9.66671 14.6094 9.66671C11.8226 9.66671 9.5625 12.0539 9.5625 15Z" fill="#C7A572" stroke="white" stroke-width="2" stroke-miterlimit="10"/>
</svg>
