<svg width="555" height="280" viewBox="0 0 555 280" fill="none" xmlns="http://www.w3.org/2000/svg">
<path d="M167 132L195.256 115.636C199.368 113.254 204.036 112 208.787 112H270" stroke="#7A7167"/>
<path d="M167 80L193.651 53.7601C198.702 48.7873 205.506 46 212.594 46H249.5" stroke="#7A7167"/>
<path d="M167 151L195.07 168.069C199.297 170.64 204.15 172 209.098 172H289.5" stroke="#7A7167"/>
<path d="M167 197L193.604 223.963C198.677 229.105 205.6 232 212.823 232H308" stroke="#7A7167"/>
<circle cx="139.724" cy="138.724" r="64.5" fill="#EAD7C4" stroke="#7A7167"/>
<g clip-path="url(#clip0_105_192)">
<path d="M133.35 135.307V149.317C133.35 152.008 133.507 154.006 133.822 155.312C134.137 156.618 134.719 157.694 135.568 158.538C136.308 159.277 137.164 159.824 138.136 160.18C139.108 160.536 140.389 160.754 141.978 160.833V161.743H115.724V160.833C117.312 160.754 118.593 160.536 119.566 160.18C120.538 159.824 121.394 159.277 122.133 158.538C123.01 157.694 123.598 156.625 123.9 155.332C124.201 154.04 124.352 152.034 124.352 149.317V120.15C124.352 117.434 124.201 115.428 123.9 114.135C123.598 112.843 123.01 111.774 122.133 110.93C121.394 110.165 120.531 109.611 119.545 109.268C118.559 108.925 117.285 108.713 115.724 108.634V107.724H135.527C138.841 107.724 141.018 107.738 142.06 107.764C146.305 107.949 149.633 108.503 152.043 109.426C154.755 110.481 156.857 112.058 158.35 114.155C159.843 116.252 160.589 118.686 160.589 121.456C160.589 125.572 158.973 128.871 155.741 131.35C154.755 132.089 153.667 132.696 152.475 133.17C151.284 133.645 149.687 134.094 147.688 134.516C149.332 135.176 150.55 135.861 151.345 136.574C151.975 137.128 152.55 137.82 153.071 138.651C153.59 139.483 154.371 140.954 155.412 143.064C157.85 147.892 159.692 151.421 160.938 153.65C162.184 155.88 163.232 157.496 164.081 158.498C164.766 159.316 165.43 159.883 166.074 160.2C166.718 160.516 167.601 160.728 168.724 160.833V161.743H155.084C154.399 160.293 153.96 159.369 153.769 158.973L150.893 152.681C149.168 148.908 147.428 145.571 145.675 142.668C143.922 139.793 142.32 137.827 140.868 136.772C140.129 136.244 139.334 135.868 138.485 135.644C137.636 135.42 136.595 135.307 135.363 135.307L133.35 135.307ZM133.35 134.437H134.911C138.307 134.437 140.738 134.253 142.203 133.883C143.669 133.514 145.045 132.749 146.333 131.587C149.209 128.95 150.647 125.678 150.647 121.773C150.647 119.689 150.229 117.73 149.394 115.896C148.558 114.063 147.401 112.552 145.922 111.365C144.771 110.468 143.401 109.841 141.813 109.485C140.225 109.129 137.965 108.951 135.034 108.951H133.35L133.35 134.437Z" fill="#5E2028"/>
<path d="M168.724 169.457H115.724V170.61H168.724V169.457Z" fill="#C7A572"/>
</g>
<mask id="path-8-inside-1_105_192" fill="white">
<path d="M139.724 270.448C108.368 270.448 78.0399 259.263 54.193 238.902C30.346 218.542 14.5443 190.343 9.62867 159.374C4.71306 128.405 11.006 96.6989 27.3762 69.955C43.7464 43.2111 69.1199 23.1841 98.935 13.4744L109.132 44.7868C86.771 52.0691 67.7408 67.0894 55.4632 87.1473C43.1856 107.205 38.4658 130.985 42.1525 154.212C45.8392 177.438 57.6905 198.588 75.5758 213.858C93.461 229.128 116.207 237.517 139.724 237.517V270.448Z"/>
</mask>
<path d="M139.724 270.448C108.368 270.448 78.0399 259.263 54.193 238.902C30.346 218.542 14.5443 190.343 9.62867 159.374C4.71306 128.405 11.006 96.6989 27.3762 69.955C43.7464 43.2111 69.1199 23.1841 98.935 13.4744L109.132 44.7868C86.771 52.0691 67.7408 67.0894 55.4632 87.1473C43.1856 107.205 38.4658 130.985 42.1525 154.212C45.8392 177.438 57.6905 198.588 75.5758 213.858C93.461 229.128 116.207 237.517 139.724 237.517V270.448Z" fill="#9F7E4C" stroke="#EAD7C4" stroke-width="2" mask="url(#path-8-inside-1_105_192)"/>
<mask id="path-9-inside-2_105_192" fill="white">
<path d="M176.821 253.075C164.898 256.958 152.443 258.957 139.904 258.999L139.803 228.874C149.207 228.843 158.549 227.344 167.491 224.431L176.821 253.075Z"/>
</mask>
<path d="M176.821 253.075C164.898 256.958 152.443 258.957 139.904 258.999L139.803 228.874C149.207 228.843 158.549 227.344 167.491 224.431L176.821 253.075Z" fill="#4F4941" stroke="#EAD7C4" stroke-width="2" mask="url(#path-9-inside-2_105_192)"/>
<mask id="path-10-inside-3_105_192" fill="white">
<path d="M102.363 23.8653C120.454 18.0048 139.674 16.5089 158.454 19.5C177.233 22.4911 195.038 29.8843 210.413 41.0751C225.788 52.2659 238.295 66.9366 246.914 83.8876C255.532 100.839 260.016 119.589 260 138.605L229.875 138.579C229.887 124.317 226.524 110.254 220.06 97.5407C213.597 84.8274 204.216 73.8244 192.685 65.4313C181.154 57.0382 167.8 51.4933 153.715 49.25C139.631 47.0067 125.215 48.1286 111.647 52.524L102.363 23.8653Z"/>
</mask>
<path d="M102.363 23.8653C120.454 18.0048 139.674 16.5089 158.454 19.5C177.233 22.4911 195.038 29.8843 210.413 41.0751C225.788 52.2659 238.295 66.9366 246.914 83.8876C255.532 100.839 260.016 119.589 260 138.605L229.875 138.579C229.887 124.317 226.524 110.254 220.06 97.5407C213.597 84.8274 204.216 73.8244 192.685 65.4313C181.154 57.0382 167.8 51.4933 153.715 49.25C139.631 47.0067 125.215 48.1286 111.647 52.524L102.363 23.8653Z" fill="#5E2028" stroke="#EAD7C4" stroke-width="2" mask="url(#path-10-inside-3_105_192)"/>
<mask id="path-11-inside-4_105_192" fill="white">
<path d="M271.448 138.724C271.448 166.542 262.642 193.645 246.291 216.15C229.941 238.654 206.885 255.405 180.429 264.001L170.253 232.682C190.095 226.235 207.386 213.672 219.649 196.793C231.912 179.915 238.517 159.587 238.517 138.724H271.448Z"/>
</mask>
<path d="M271.448 138.724C271.448 166.542 262.642 193.645 246.291 216.15C229.941 238.654 206.885 255.405 180.429 264.001L170.253 232.682C190.095 226.235 207.386 213.672 219.649 196.793C231.912 179.915 238.517 159.587 238.517 138.724H271.448Z" fill="#A16970" stroke="#EAD7C4" stroke-width="2" mask="url(#path-11-inside-4_105_192)"/>
<path d="M349.738 40.155V41.8125H346.475V51H344.458V41.8125H341.18V40.155H349.738ZM350.71 51V43.305H351.797C351.987 43.305 352.12 43.34 352.195 43.41C352.27 43.48 352.32 43.6 352.345 43.77L352.457 44.7C352.732 44.225 353.055 43.85 353.425 43.575C353.795 43.3 354.21 43.1625 354.67 43.1625C355.05 43.1625 355.365 43.25 355.615 43.425L355.375 44.8125C355.36 44.9025 355.327 44.9675 355.277 45.0075C355.227 45.0425 355.16 45.06 355.075 45.06C355 45.06 354.897 45.0425 354.767 45.0075C354.637 44.9725 354.465 44.955 354.25 44.955C353.865 44.955 353.535 45.0625 353.26 45.2775C352.985 45.4875 352.752 45.7975 352.562 46.2075V51H350.71ZM363.643 51H362.811C362.636 51 362.498 50.975 362.398 50.925C362.298 50.87 362.223 50.7625 362.173 50.6025L362.008 50.055C361.813 50.23 361.621 50.385 361.431 50.52C361.246 50.65 361.053 50.76 360.853 50.85C360.653 50.94 360.441 51.0075 360.216 51.0525C359.991 51.0975 359.741 51.12 359.466 51.12C359.141 51.12 358.841 51.0775 358.566 50.9925C358.291 50.9025 358.053 50.77 357.853 50.595C357.658 50.42 357.506 50.2025 357.396 49.9425C357.286 49.6825 357.231 49.38 357.231 49.035C357.231 48.745 357.306 48.46 357.456 48.18C357.611 47.895 357.866 47.64 358.221 47.415C358.576 47.185 359.048 46.995 359.638 46.845C360.228 46.695 360.961 46.61 361.836 46.59V46.14C361.836 45.625 361.726 45.245 361.506 45C361.291 44.75 360.976 44.625 360.561 44.625C360.261 44.625 360.011 44.66 359.811 44.73C359.611 44.8 359.436 44.88 359.286 44.97C359.141 45.055 359.006 45.1325 358.881 45.2025C358.756 45.2725 358.618 45.3075 358.468 45.3075C358.343 45.3075 358.236 45.275 358.146 45.21C358.056 45.145 357.983 45.065 357.928 44.97L357.591 44.3775C358.476 43.5675 359.543 43.1625 360.793 43.1625C361.243 43.1625 361.643 43.2375 361.993 43.3875C362.348 43.5325 362.648 43.7375 362.893 44.0025C363.138 44.2625 363.323 44.575 363.448 44.94C363.578 45.305 363.643 45.705 363.643 46.14V51ZM360.043 49.845C360.233 49.845 360.408 49.8275 360.568 49.7925C360.728 49.7575 360.878 49.705 361.018 49.635C361.163 49.565 361.301 49.48 361.431 49.38C361.566 49.275 361.701 49.1525 361.836 49.0125V47.715C361.296 47.74 360.843 47.7875 360.478 47.8575C360.118 47.9225 359.828 48.0075 359.608 48.1125C359.388 48.2175 359.231 48.34 359.136 48.48C359.046 48.62 359.001 48.7725 359.001 48.9375C359.001 49.2625 359.096 49.495 359.286 49.635C359.481 49.775 359.733 49.845 360.043 49.845ZM366.487 51V39.855H368.34V44.25C368.645 43.925 368.99 43.6675 369.375 43.4775C369.76 43.2825 370.21 43.185 370.725 43.185C371.145 43.185 371.527 43.2725 371.872 43.4475C372.222 43.6175 372.522 43.8675 372.772 44.1975C373.027 44.5275 373.222 44.935 373.357 45.42C373.497 45.905 373.567 46.4625 373.567 47.0925C373.567 47.6675 373.49 48.2 373.335 48.69C373.18 49.18 372.957 49.605 372.667 49.965C372.382 50.325 372.035 50.6075 371.625 50.8125C371.22 51.0125 370.765 51.1125 370.26 51.1125C370.025 51.1125 369.81 51.0875 369.615 51.0375C369.42 50.9925 369.242 50.9275 369.082 50.8425C368.922 50.7575 368.772 50.655 368.632 50.535C368.497 50.41 368.367 50.2725 368.242 50.1225L368.16 50.64C368.13 50.77 368.077 50.8625 368.002 50.9175C367.932 50.9725 367.835 51 367.71 51H366.487ZM370.087 44.625C369.702 44.625 369.372 44.7075 369.097 44.8725C368.827 45.0325 368.575 45.26 368.34 45.555V49.005C368.55 49.265 368.777 49.4475 369.022 49.5525C369.272 49.6525 369.542 49.7025 369.832 49.7025C370.112 49.7025 370.365 49.65 370.59 49.545C370.815 49.44 371.005 49.28 371.16 49.065C371.32 48.85 371.442 48.58 371.527 48.255C371.612 47.925 371.655 47.5375 371.655 47.0925C371.655 46.6425 371.617 46.2625 371.542 45.9525C371.472 45.6375 371.37 45.3825 371.235 45.1875C371.1 44.9925 370.935 44.85 370.74 44.76C370.55 44.67 370.332 44.625 370.087 44.625ZM382.049 51H381.217C381.042 51 380.904 50.975 380.804 50.925C380.704 50.87 380.629 50.7625 380.579 50.6025L380.414 50.055C380.219 50.23 380.027 50.385 379.837 50.52C379.652 50.65 379.459 50.76 379.259 50.85C379.059 50.94 378.847 51.0075 378.622 51.0525C378.397 51.0975 378.147 51.12 377.872 51.12C377.547 51.12 377.247 51.0775 376.972 50.9925C376.697 50.9025 376.459 50.77 376.259 50.595C376.064 50.42 375.912 50.2025 375.802 49.9425C375.692 49.6825 375.637 49.38 375.637 49.035C375.637 48.745 375.712 48.46 375.862 48.18C376.017 47.895 376.272 47.64 376.627 47.415C376.982 47.185 377.454 46.995 378.044 46.845C378.634 46.695 379.367 46.61 380.242 46.59V46.14C380.242 45.625 380.132 45.245 379.912 45C379.697 44.75 379.382 44.625 378.967 44.625C378.667 44.625 378.417 44.66 378.217 44.73C378.017 44.8 377.842 44.88 377.692 44.97C377.547 45.055 377.412 45.1325 377.287 45.2025C377.162 45.2725 377.024 45.3075 376.874 45.3075C376.749 45.3075 376.642 45.275 376.552 45.21C376.462 45.145 376.389 45.065 376.334 44.97L375.997 44.3775C376.882 43.5675 377.949 43.1625 379.199 43.1625C379.649 43.1625 380.049 43.2375 380.399 43.3875C380.754 43.5325 381.054 43.7375 381.299 44.0025C381.544 44.2625 381.729 44.575 381.854 44.94C381.984 45.305 382.049 45.705 382.049 46.14V51ZM378.449 49.845C378.639 49.845 378.814 49.8275 378.974 49.7925C379.134 49.7575 379.284 49.705 379.424 49.635C379.569 49.565 379.707 49.48 379.837 49.38C379.972 49.275 380.107 49.1525 380.242 49.0125V47.715C379.702 47.74 379.249 47.7875 378.884 47.8575C378.524 47.9225 378.234 48.0075 378.014 48.1125C377.794 48.2175 377.637 48.34 377.542 48.48C377.452 48.62 377.407 48.7725 377.407 48.9375C377.407 49.2625 377.502 49.495 377.692 49.635C377.887 49.775 378.139 49.845 378.449 49.845ZM386.843 39.855V51H384.991V39.855H386.843ZM389.943 51V39.855H391.796V44.1375C392.096 43.8525 392.426 43.6225 392.786 43.4475C393.146 43.2725 393.568 43.185 394.053 43.185C394.473 43.185 394.846 43.2575 395.171 43.4025C395.496 43.5425 395.766 43.7425 395.981 44.0025C396.201 44.2575 396.366 44.565 396.476 44.925C396.591 45.28 396.648 45.6725 396.648 46.1025V51H394.796V46.1025C394.796 45.6325 394.686 45.27 394.466 45.015C394.251 44.755 393.926 44.625 393.491 44.625C393.171 44.625 392.871 44.6975 392.591 44.8425C392.311 44.9875 392.046 45.185 391.796 45.435V51H389.943ZM401.441 43.305V51H399.589V43.305H401.441ZM401.719 41.0625C401.719 41.2225 401.686 41.3725 401.621 41.5125C401.556 41.6525 401.469 41.775 401.359 41.88C401.254 41.985 401.129 42.07 400.984 42.135C400.839 42.195 400.684 42.225 400.519 42.225C400.359 42.225 400.206 42.195 400.061 42.135C399.921 42.07 399.799 41.985 399.694 41.88C399.589 41.775 399.504 41.6525 399.439 41.5125C399.379 41.3725 399.349 41.2225 399.349 41.0625C399.349 40.8975 399.379 40.7425 399.439 40.5975C399.504 40.4525 399.589 40.3275 399.694 40.2225C399.799 40.1175 399.921 40.035 400.061 39.975C400.206 39.91 400.359 39.8775 400.519 39.8775C400.684 39.8775 400.839 39.91 400.984 39.975C401.129 40.035 401.254 40.1175 401.359 40.2225C401.469 40.3275 401.556 40.4525 401.621 40.5975C401.686 40.7425 401.719 40.8975 401.719 41.0625ZM409.108 44.805C409.058 44.885 409.006 44.9425 408.951 44.9775C408.896 45.0075 408.826 45.0225 408.741 45.0225C408.651 45.0225 408.553 44.9975 408.448 44.9475C408.348 44.8975 408.231 44.8425 408.096 44.7825C407.961 44.7175 407.806 44.66 407.631 44.61C407.461 44.56 407.258 44.535 407.023 44.535C406.658 44.535 406.371 44.6125 406.161 44.7675C405.951 44.9225 405.846 45.125 405.846 45.375C405.846 45.54 405.898 45.68 406.003 45.795C406.113 45.905 406.256 46.0025 406.431 46.0875C406.611 46.1725 406.813 46.25 407.038 46.32C407.263 46.385 407.493 46.4575 407.728 46.5375C407.963 46.6175 408.193 46.71 408.418 46.815C408.643 46.915 408.843 47.045 409.018 47.205C409.198 47.36 409.341 47.5475 409.446 47.7675C409.556 47.9875 409.611 48.2525 409.611 48.5625C409.611 48.9325 409.543 49.275 409.408 49.59C409.273 49.9 409.076 50.17 408.816 50.4C408.556 50.625 408.233 50.8025 407.848 50.9325C407.468 51.0575 407.031 51.12 406.536 51.12C406.271 51.12 406.011 51.095 405.756 51.045C405.506 51 405.263 50.935 405.028 50.85C404.798 50.765 404.583 50.665 404.383 50.55C404.188 50.435 404.016 50.31 403.866 50.175L404.293 49.47C404.348 49.385 404.413 49.32 404.488 49.275C404.563 49.23 404.658 49.2075 404.773 49.2075C404.888 49.2075 404.996 49.24 405.096 49.305C405.201 49.37 405.321 49.44 405.456 49.515C405.591 49.59 405.748 49.66 405.928 49.725C406.113 49.79 406.346 49.8225 406.626 49.8225C406.846 49.8225 407.033 49.7975 407.188 49.7475C407.348 49.6925 407.478 49.6225 407.578 49.5375C407.683 49.4525 407.758 49.355 407.803 49.245C407.853 49.13 407.878 49.0125 407.878 48.8925C407.878 48.7125 407.823 48.565 407.713 48.45C407.608 48.335 407.466 48.235 407.286 48.15C407.111 48.065 406.908 47.99 406.678 47.925C406.453 47.855 406.221 47.78 405.981 47.7C405.746 47.62 405.513 47.5275 405.283 47.4225C405.058 47.3125 404.856 47.175 404.676 47.01C404.501 46.845 404.358 46.6425 404.248 46.4025C404.143 46.1625 404.091 45.8725 404.091 45.5325C404.091 45.2175 404.153 44.9175 404.278 44.6325C404.403 44.3475 404.586 44.1 404.826 43.89C405.071 43.675 405.373 43.505 405.733 43.38C406.098 43.25 406.518 43.185 406.993 43.185C407.523 43.185 408.006 43.2725 408.441 43.4475C408.876 43.6225 409.238 43.8525 409.528 44.1375L409.108 44.805ZM414.616 51.12C413.951 51.12 413.439 50.9325 413.079 50.5575C412.719 50.1775 412.539 49.655 412.539 48.99V44.6925H411.759C411.659 44.6925 411.571 44.66 411.496 44.595C411.426 44.53 411.391 44.4325 411.391 44.3025V43.5675L412.629 43.365L413.019 41.265C413.039 41.165 413.084 41.0875 413.154 41.0325C413.229 40.9775 413.321 40.95 413.431 40.95H414.391V43.3725H416.416V44.6925H414.391V48.8625C414.391 49.1025 414.451 49.29 414.571 49.425C414.691 49.56 414.851 49.6275 415.051 49.6275C415.166 49.6275 415.261 49.615 415.336 49.59C415.416 49.56 415.484 49.53 415.539 49.5C415.599 49.47 415.651 49.4425 415.696 49.4175C415.741 49.3875 415.786 49.3725 415.831 49.3725C415.886 49.3725 415.931 49.3875 415.966 49.4175C416.001 49.4425 416.039 49.4825 416.079 49.5375L416.634 50.4375C416.364 50.6625 416.054 50.8325 415.704 50.9475C415.354 51.0625 414.991 51.12 414.616 51.12ZM424.919 51H424.087C423.912 51 423.774 50.975 423.674 50.925C423.574 50.87 423.499 50.7625 423.449 50.6025L423.284 50.055C423.089 50.23 422.897 50.385 422.707 50.52C422.522 50.65 422.329 50.76 422.129 50.85C421.929 50.94 421.717 51.0075 421.492 51.0525C421.267 51.0975 421.017 51.12 420.742 51.12C420.417 51.12 420.117 51.0775 419.842 50.9925C419.567 50.9025 419.329 50.77 419.129 50.595C418.934 50.42 418.782 50.2025 418.672 49.9425C418.562 49.6825 418.507 49.38 418.507 49.035C418.507 48.745 418.582 48.46 418.732 48.18C418.887 47.895 419.142 47.64 419.497 47.415C419.852 47.185 420.324 46.995 420.914 46.845C421.504 46.695 422.237 46.61 423.112 46.59V46.14C423.112 45.625 423.002 45.245 422.782 45C422.567 44.75 422.252 44.625 421.837 44.625C421.537 44.625 421.287 44.66 421.087 44.73C420.887 44.8 420.712 44.88 420.562 44.97C420.417 45.055 420.282 45.1325 420.157 45.2025C420.032 45.2725 419.894 45.3075 419.744 45.3075C419.619 45.3075 419.512 45.275 419.422 45.21C419.332 45.145 419.259 45.065 419.204 44.97L418.867 44.3775C419.752 43.5675 420.819 43.1625 422.069 43.1625C422.519 43.1625 422.919 43.2375 423.269 43.3875C423.624 43.5325 423.924 43.7375 424.169 44.0025C424.414 44.2625 424.599 44.575 424.724 44.94C424.854 45.305 424.919 45.705 424.919 46.14V51ZM421.319 49.845C421.509 49.845 421.684 49.8275 421.844 49.7925C422.004 49.7575 422.154 49.705 422.294 49.635C422.439 49.565 422.577 49.48 422.707 49.38C422.842 49.275 422.977 49.1525 423.112 49.0125V47.715C422.572 47.74 422.119 47.7875 421.754 47.8575C421.394 47.9225 421.104 48.0075 420.884 48.1125C420.664 48.2175 420.507 48.34 420.412 48.48C420.322 48.62 420.277 48.7725 420.277 48.9375C420.277 49.2625 420.372 49.495 420.562 49.635C420.757 49.775 421.009 49.845 421.319 49.845Z" fill="#7A7167"/>
<path d="M293.362 49.005H295.364V50.578C295.364 50.7247 295.316 50.853 295.221 50.963C295.126 51.0657 294.986 51.117 294.803 51.117H293.362V55H290.986V51.117H284.276C284.093 51.117 283.931 51.062 283.792 50.952C283.653 50.8347 283.565 50.6917 283.528 50.523L283.253 49.148L290.788 39.083H293.362V49.005ZM290.986 43.802C290.986 43.5673 290.993 43.3143 291.008 43.043C291.023 42.7717 291.048 42.4893 291.085 42.196L286.146 49.005H290.986V43.802ZM308.972 47.047C308.972 48.433 308.821 49.6393 308.521 50.666C308.227 51.6853 307.817 52.5287 307.289 53.196C306.768 53.8633 306.148 54.362 305.43 54.692C304.718 55.0147 303.948 55.176 303.12 55.176C302.291 55.176 301.521 55.0147 300.81 54.692C300.106 54.362 299.493 53.8633 298.973 53.196C298.452 52.5287 298.045 51.6853 297.752 50.666C297.458 49.6393 297.312 48.433 297.312 47.047C297.312 45.6537 297.458 44.4473 297.752 43.428C298.045 42.4087 298.452 41.5653 298.973 40.898C299.493 40.2307 300.106 39.7357 300.81 39.413C301.521 39.083 302.291 38.918 303.12 38.918C303.948 38.918 304.718 39.083 305.43 39.413C306.148 39.7357 306.768 40.2307 307.289 40.898C307.817 41.5653 308.227 42.4087 308.521 43.428C308.821 44.4473 308.972 45.6537 308.972 47.047ZM306.167 47.047C306.167 45.8957 306.082 44.9423 305.914 44.187C305.745 43.4317 305.518 42.8303 305.232 42.383C304.953 41.9357 304.63 41.624 304.264 41.448C303.897 41.2647 303.516 41.173 303.12 41.173C302.731 41.173 302.353 41.2647 301.987 41.448C301.627 41.624 301.308 41.9357 301.03 42.383C300.751 42.8303 300.527 43.4317 300.359 44.187C300.197 44.9423 300.117 45.8957 300.117 47.047C300.117 48.1983 300.197 49.1517 300.359 49.907C300.527 50.6623 300.751 51.2637 301.03 51.711C301.308 52.1583 301.627 52.4737 301.987 52.657C302.353 52.833 302.731 52.921 303.12 52.921C303.516 52.921 303.897 52.833 304.264 52.657C304.63 52.4737 304.953 52.1583 305.232 51.711C305.518 51.2637 305.745 50.6623 305.914 49.907C306.082 49.1517 306.167 48.1983 306.167 47.047ZM318.542 42.944C318.542 43.5453 318.44 44.088 318.234 44.572C318.036 45.056 317.769 45.4703 317.431 45.815C317.094 46.1523 316.702 46.4127 316.254 46.596C315.807 46.7793 315.341 46.871 314.857 46.871C314.329 46.871 313.842 46.7793 313.394 46.596C312.947 46.4127 312.558 46.1523 312.228 45.815C311.906 45.4703 311.653 45.056 311.469 44.572C311.286 44.088 311.194 43.5453 311.194 42.944C311.194 42.328 311.286 41.7707 311.469 41.272C311.653 40.7733 311.906 40.3517 312.228 40.007C312.558 39.6623 312.947 39.3983 313.394 39.215C313.842 39.0243 314.329 38.929 314.857 38.929C315.385 38.929 315.873 39.0243 316.32 39.215C316.775 39.3983 317.167 39.6623 317.497 40.007C317.827 40.3517 318.084 40.7733 318.267 41.272C318.451 41.7707 318.542 42.328 318.542 42.944ZM316.441 42.944C316.441 42.5187 316.401 42.163 316.32 41.877C316.24 41.591 316.126 41.36 315.979 41.184C315.84 41.008 315.671 40.8833 315.473 40.81C315.283 40.7293 315.077 40.689 314.857 40.689C314.637 40.689 314.432 40.7293 314.241 40.81C314.051 40.8833 313.886 41.008 313.746 41.184C313.607 41.36 313.497 41.591 313.416 41.877C313.343 42.163 313.306 42.5187 313.306 42.944C313.306 43.3547 313.343 43.6993 313.416 43.978C313.497 44.2493 313.607 44.4693 313.746 44.638C313.886 44.8067 314.051 44.9277 314.241 45.001C314.432 45.0743 314.637 45.111 314.857 45.111C315.077 45.111 315.283 45.0743 315.473 45.001C315.671 44.9277 315.84 44.8067 315.979 44.638C316.126 44.4693 316.24 44.2493 316.32 43.978C316.401 43.6993 316.441 43.3547 316.441 42.944ZM323.833 39.523C323.921 39.413 324.031 39.314 324.163 39.226C324.295 39.138 324.479 39.094 324.713 39.094H326.682L314.868 54.593C314.78 54.7103 314.667 54.8093 314.527 54.89C314.395 54.9633 314.234 55 314.043 55H312.019L323.833 39.523ZM327.518 51.26C327.518 51.8613 327.416 52.404 327.21 52.888C327.012 53.372 326.745 53.7863 326.407 54.131C326.07 54.4683 325.678 54.7323 325.23 54.923C324.783 55.1063 324.317 55.198 323.833 55.198C323.305 55.198 322.818 55.1063 322.37 54.923C321.923 54.7323 321.534 54.4683 321.204 54.131C320.882 53.7863 320.629 53.372 320.445 52.888C320.262 52.404 320.17 51.8613 320.17 51.26C320.17 50.644 320.262 50.0867 320.445 49.588C320.629 49.0893 320.882 48.6677 321.204 48.323C321.534 47.9783 321.923 47.7143 322.37 47.531C322.818 47.3403 323.305 47.245 323.833 47.245C324.361 47.245 324.849 47.3403 325.296 47.531C325.751 47.7143 326.143 47.9783 326.473 48.323C326.803 48.6677 327.06 49.0893 327.243 49.588C327.427 50.0867 327.518 50.644 327.518 51.26ZM325.428 51.26C325.428 50.8347 325.384 50.479 325.296 50.193C325.216 49.907 325.102 49.676 324.955 49.5C324.816 49.324 324.647 49.1993 324.449 49.126C324.259 49.0453 324.053 49.005 323.833 49.005C323.613 49.005 323.408 49.0453 323.217 49.126C323.027 49.1993 322.862 49.324 322.722 49.5C322.59 49.676 322.484 49.907 322.403 50.193C322.323 50.479 322.282 50.8347 322.282 51.26C322.282 51.6707 322.323 52.0153 322.403 52.294C322.484 52.5727 322.59 52.7963 322.722 52.965C322.862 53.1337 323.027 53.2547 323.217 53.328C323.408 53.4013 323.613 53.438 323.833 53.438C324.053 53.438 324.259 53.4013 324.449 53.328C324.647 53.2547 324.816 53.1337 324.955 52.965C325.102 52.7963 325.216 52.5727 325.296 52.294C325.384 52.0153 325.428 51.6707 325.428 51.26Z" fill="#9F7E4C"/>
<path d="M294 70C290.053 70 286.167 69.0266 282.686 67.1661C279.206 65.3056 276.237 62.6153 274.045 59.3337C271.852 56.052 270.502 52.2802 270.116 48.3524C269.729 44.4246 270.317 40.462 271.827 36.8156C273.337 33.1692 275.724 29.9516 278.775 27.4478C281.825 24.9439 285.447 23.2311 289.318 22.4612C293.189 21.6912 297.19 21.8877 300.967 23.0334C304.744 24.1791 308.18 26.2386 310.971 29.0294L307.511 32.4888C305.289 30.2669 302.554 28.6272 299.547 27.7151C296.54 26.8029 293.354 26.6464 290.272 27.2595C287.19 27.8725 284.307 29.2361 281.878 31.2296C279.449 33.223 277.549 35.7847 276.347 38.6878C275.144 41.5909 274.676 44.7457 274.984 47.8729C275.292 51 276.367 54.003 278.113 56.6157C279.858 59.2284 282.221 61.3702 284.993 62.8515C287.764 64.3327 290.858 65.1077 294 65.1077L294 70Z" fill="#9F7E4C"/>
<path d="M363.18 109.182V113H361.163V102.155H364.695C365.42 102.155 366.048 102.24 366.578 102.41C367.108 102.58 367.545 102.817 367.89 103.122C368.235 103.427 368.49 103.792 368.655 104.217C368.82 104.642 368.903 105.107 368.903 105.612C368.903 106.137 368.815 106.62 368.64 107.06C368.465 107.495 368.203 107.87 367.853 108.185C367.503 108.5 367.065 108.745 366.54 108.92C366.015 109.095 365.4 109.182 364.695 109.182H363.18ZM363.18 107.607H364.695C365.065 107.607 365.388 107.562 365.663 107.472C365.938 107.377 366.165 107.245 366.345 107.075C366.525 106.9 366.66 106.69 366.75 106.445C366.84 106.195 366.885 105.917 366.885 105.612C366.885 105.322 366.84 105.06 366.75 104.825C366.66 104.59 366.525 104.39 366.345 104.225C366.165 104.06 365.938 103.935 365.663 103.85C365.388 103.76 365.065 103.715 364.695 103.715H363.18V107.607ZM371.365 113V105.305H372.453C372.643 105.305 372.775 105.34 372.85 105.41C372.925 105.48 372.975 105.6 373 105.77L373.113 106.7C373.388 106.225 373.71 105.85 374.08 105.575C374.45 105.3 374.865 105.162 375.325 105.162C375.705 105.162 376.02 105.25 376.27 105.425L376.03 106.812C376.015 106.902 375.983 106.967 375.933 107.007C375.883 107.042 375.815 107.06 375.73 107.06C375.655 107.06 375.553 107.042 375.423 107.007C375.293 106.972 375.12 106.955 374.905 106.955C374.52 106.955 374.19 107.062 373.915 107.277C373.64 107.487 373.408 107.797 373.218 108.207V113H371.365ZM381.668 105.185C382.153 105.185 382.598 105.262 383.003 105.417C383.413 105.572 383.766 105.8 384.061 106.1C384.356 106.395 384.586 106.76 384.751 107.195C384.916 107.625 384.998 108.117 384.998 108.672C384.998 108.812 384.991 108.93 384.976 109.025C384.966 109.115 384.943 109.187 384.908 109.242C384.878 109.292 384.836 109.33 384.781 109.355C384.726 109.375 384.656 109.385 384.571 109.385H379.816C379.871 110.175 380.083 110.755 380.453 111.125C380.823 111.495 381.313 111.68 381.923 111.68C382.223 111.68 382.481 111.645 382.696 111.575C382.916 111.505 383.106 111.427 383.266 111.342C383.431 111.257 383.573 111.18 383.693 111.11C383.818 111.04 383.938 111.005 384.053 111.005C384.128 111.005 384.193 111.02 384.248 111.05C384.303 111.08 384.351 111.122 384.391 111.177L384.931 111.852C384.726 112.092 384.496 112.295 384.241 112.46C383.986 112.62 383.718 112.75 383.438 112.85C383.163 112.945 382.881 113.013 382.591 113.053C382.306 113.093 382.028 113.113 381.758 113.113C381.223 113.113 380.726 113.025 380.266 112.85C379.806 112.67 379.406 112.407 379.066 112.062C378.726 111.712 378.458 111.282 378.263 110.772C378.068 110.257 377.971 109.662 377.971 108.987C377.971 108.462 378.056 107.97 378.226 107.51C378.396 107.045 378.638 106.642 378.953 106.302C379.273 105.957 379.661 105.685 380.116 105.485C380.576 105.285 381.093 105.185 381.668 105.185ZM381.706 106.512C381.166 106.512 380.743 106.665 380.438 106.97C380.133 107.275 379.938 107.707 379.853 108.267H383.333C383.333 108.027 383.301 107.802 383.236 107.592C383.171 107.377 383.071 107.19 382.936 107.03C382.801 106.87 382.631 106.745 382.426 106.655C382.221 106.56 381.981 106.512 381.706 106.512ZM391.107 113H389.427L386.367 105.305H387.904C388.039 105.305 388.152 105.337 388.242 105.402C388.337 105.467 388.402 105.55 388.437 105.65L389.922 109.76C390.007 110 390.077 110.235 390.132 110.465C390.192 110.695 390.244 110.925 390.289 111.155C390.334 110.925 390.384 110.695 390.439 110.465C390.499 110.235 390.574 110 390.664 109.76L392.187 105.65C392.222 105.55 392.284 105.467 392.374 105.402C392.464 105.337 392.572 105.305 392.697 105.305H394.159L391.107 113ZM398.222 105.305V113H396.37V105.305H398.222ZM398.5 103.062C398.5 103.222 398.467 103.372 398.402 103.512C398.337 103.652 398.25 103.775 398.14 103.88C398.035 103.985 397.91 104.07 397.765 104.135C397.62 104.195 397.465 104.225 397.3 104.225C397.14 104.225 396.987 104.195 396.842 104.135C396.702 104.07 396.58 103.985 396.475 103.88C396.37 103.775 396.285 103.652 396.22 103.512C396.16 103.372 396.13 103.222 396.13 103.062C396.13 102.897 396.16 102.742 396.22 102.597C396.285 102.452 396.37 102.327 396.475 102.222C396.58 102.117 396.702 102.035 396.842 101.975C396.987 101.91 397.14 101.877 397.3 101.877C397.465 101.877 397.62 101.91 397.765 101.975C397.91 102.035 398.035 102.117 398.14 102.222C398.25 102.327 398.337 102.452 398.402 102.597C398.467 102.742 398.5 102.897 398.5 103.062ZM406.737 113C406.497 113 406.34 112.887 406.265 112.662L406.115 111.92C405.955 112.1 405.787 112.262 405.612 112.407C405.437 112.552 405.247 112.677 405.042 112.782C404.842 112.887 404.625 112.967 404.39 113.023C404.16 113.083 403.91 113.113 403.64 113.113C403.22 113.113 402.835 113.025 402.485 112.85C402.135 112.675 401.832 112.422 401.577 112.092C401.327 111.757 401.132 111.345 400.992 110.855C400.857 110.365 400.79 109.805 400.79 109.175C400.79 108.605 400.867 108.075 401.022 107.585C401.177 107.095 401.4 106.67 401.69 106.31C401.98 105.95 402.327 105.67 402.732 105.47C403.137 105.265 403.592 105.162 404.097 105.162C404.527 105.162 404.895 105.232 405.2 105.372C405.505 105.507 405.777 105.69 406.017 105.92V101.855H407.87V113H406.737ZM404.27 111.642C404.655 111.642 404.982 111.562 405.252 111.402C405.522 111.242 405.777 111.015 406.017 110.72V107.27C405.807 107.015 405.577 106.835 405.327 106.73C405.082 106.625 404.817 106.572 404.532 106.572C404.252 106.572 403.997 106.625 403.767 106.73C403.542 106.835 403.35 106.995 403.19 107.21C403.035 107.42 402.915 107.69 402.83 108.02C402.745 108.345 402.702 108.73 402.702 109.175C402.702 109.625 402.737 110.007 402.807 110.322C402.882 110.632 402.987 110.887 403.122 111.087C403.257 111.282 403.422 111.425 403.617 111.515C403.812 111.6 404.03 111.642 404.27 111.642ZM414.057 105.185C414.542 105.185 414.987 105.262 415.392 105.417C415.802 105.572 416.154 105.8 416.449 106.1C416.744 106.395 416.974 106.76 417.139 107.195C417.304 107.625 417.387 108.117 417.387 108.672C417.387 108.812 417.379 108.93 417.364 109.025C417.354 109.115 417.332 109.187 417.297 109.242C417.267 109.292 417.224 109.33 417.169 109.355C417.114 109.375 417.044 109.385 416.959 109.385H412.204C412.259 110.175 412.472 110.755 412.842 111.125C413.212 111.495 413.702 111.68 414.312 111.68C414.612 111.68 414.869 111.645 415.084 111.575C415.304 111.505 415.494 111.427 415.654 111.342C415.819 111.257 415.962 111.18 416.082 111.11C416.207 111.04 416.327 111.005 416.442 111.005C416.517 111.005 416.582 111.02 416.637 111.05C416.692 111.08 416.739 111.122 416.779 111.177L417.319 111.852C417.114 112.092 416.884 112.295 416.629 112.46C416.374 112.62 416.107 112.75 415.827 112.85C415.552 112.945 415.269 113.013 414.979 113.053C414.694 113.093 414.417 113.113 414.147 113.113C413.612 113.113 413.114 113.025 412.654 112.85C412.194 112.67 411.794 112.407 411.454 112.062C411.114 111.712 410.847 111.282 410.652 110.772C410.457 110.257 410.359 109.662 410.359 108.987C410.359 108.462 410.444 107.97 410.614 107.51C410.784 107.045 411.027 106.642 411.342 106.302C411.662 105.957 412.049 105.685 412.504 105.485C412.964 105.285 413.482 105.185 414.057 105.185ZM414.094 106.512C413.554 106.512 413.132 106.665 412.827 106.97C412.522 107.275 412.327 107.707 412.242 108.267H415.722C415.722 108.027 415.689 107.802 415.624 107.592C415.559 107.377 415.459 107.19 415.324 107.03C415.189 106.87 415.019 106.745 414.814 106.655C414.609 106.56 414.369 106.512 414.094 106.512ZM419.889 113V105.305H421.022C421.262 105.305 421.419 105.417 421.494 105.642L421.622 106.25C421.777 106.09 421.939 105.945 422.109 105.815C422.284 105.685 422.467 105.572 422.657 105.477C422.852 105.382 423.059 105.31 423.279 105.26C423.499 105.21 423.739 105.185 423.999 105.185C424.419 105.185 424.792 105.257 425.117 105.402C425.442 105.542 425.712 105.742 425.927 106.002C426.147 106.257 426.312 106.565 426.422 106.925C426.537 107.28 426.594 107.672 426.594 108.102V113H424.742V108.102C424.742 107.632 424.632 107.27 424.412 107.015C424.197 106.755 423.872 106.625 423.437 106.625C423.117 106.625 422.817 106.697 422.537 106.842C422.257 106.987 421.992 107.185 421.742 107.435V113H419.889ZM434.822 106.932C434.767 107.002 434.712 107.057 434.657 107.097C434.607 107.137 434.532 107.157 434.432 107.157C434.337 107.157 434.245 107.13 434.155 107.075C434.065 107.015 433.957 106.95 433.832 106.88C433.707 106.805 433.557 106.74 433.382 106.685C433.212 106.625 433 106.595 432.745 106.595C432.42 106.595 432.135 106.655 431.89 106.775C431.645 106.89 431.44 107.057 431.275 107.277C431.115 107.497 430.995 107.765 430.915 108.08C430.835 108.39 430.795 108.742 430.795 109.137C430.795 109.547 430.837 109.912 430.922 110.232C431.012 110.552 431.14 110.822 431.305 111.042C431.47 111.257 431.67 111.422 431.905 111.537C432.14 111.647 432.405 111.702 432.7 111.702C432.995 111.702 433.232 111.667 433.412 111.597C433.597 111.522 433.752 111.442 433.877 111.357C434.002 111.267 434.11 111.187 434.2 111.117C434.295 111.042 434.4 111.005 434.515 111.005C434.665 111.005 434.777 111.062 434.852 111.177L435.385 111.852C435.18 112.092 434.957 112.295 434.717 112.46C434.477 112.62 434.227 112.75 433.967 112.85C433.712 112.945 433.447 113.013 433.172 113.053C432.897 113.093 432.625 113.113 432.355 113.113C431.88 113.113 431.432 113.025 431.012 112.85C430.592 112.67 430.225 112.41 429.91 112.07C429.6 111.73 429.352 111.315 429.167 110.825C428.987 110.33 428.897 109.767 428.897 109.137C428.897 108.572 428.977 108.05 429.137 107.57C429.302 107.085 429.542 106.667 429.857 106.317C430.172 105.962 430.562 105.685 431.027 105.485C431.492 105.285 432.027 105.185 432.632 105.185C433.207 105.185 433.71 105.277 434.14 105.463C434.575 105.647 434.965 105.912 435.31 106.257L434.822 106.932ZM439.536 105.305V113H437.683V105.305H439.536ZM439.813 103.062C439.813 103.222 439.781 103.372 439.716 103.512C439.651 103.652 439.563 103.775 439.453 103.88C439.348 103.985 439.223 104.07 439.078 104.135C438.933 104.195 438.778 104.225 438.613 104.225C438.453 104.225 438.301 104.195 438.156 104.135C438.016 104.07 437.893 103.985 437.788 103.88C437.683 103.775 437.598 103.652 437.533 103.512C437.473 103.372 437.443 103.222 437.443 103.062C437.443 102.897 437.473 102.742 437.533 102.597C437.598 102.452 437.683 102.327 437.788 102.222C437.893 102.117 438.016 102.035 438.156 101.975C438.301 101.91 438.453 101.877 438.613 101.877C438.778 101.877 438.933 101.91 439.078 101.975C439.223 102.035 439.348 102.117 439.453 102.222C439.563 102.327 439.651 102.452 439.716 102.597C439.781 102.742 439.813 102.897 439.813 103.062ZM448.666 113H447.833C447.658 113 447.521 112.975 447.421 112.925C447.321 112.87 447.246 112.762 447.196 112.602L447.031 112.055C446.836 112.23 446.643 112.385 446.453 112.52C446.268 112.65 446.076 112.76 445.876 112.85C445.676 112.94 445.463 113.008 445.238 113.053C445.013 113.098 444.763 113.12 444.488 113.12C444.163 113.12 443.863 113.078 443.588 112.992C443.313 112.902 443.076 112.77 442.876 112.595C442.681 112.42 442.528 112.202 442.418 111.942C442.308 111.682 442.253 111.38 442.253 111.035C442.253 110.745 442.328 110.46 442.478 110.18C442.633 109.895 442.888 109.64 443.243 109.415C443.598 109.185 444.071 108.995 444.661 108.845C445.251 108.695 445.983 108.61 446.858 108.59V108.14C446.858 107.625 446.748 107.245 446.528 107C446.313 106.75 445.998 106.625 445.583 106.625C445.283 106.625 445.033 106.66 444.833 106.73C444.633 106.8 444.458 106.88 444.308 106.97C444.163 107.055 444.028 107.132 443.903 107.202C443.778 107.272 443.641 107.307 443.491 107.307C443.366 107.307 443.258 107.275 443.168 107.21C443.078 107.145 443.006 107.065 442.951 106.97L442.613 106.377C443.498 105.567 444.566 105.162 445.816 105.162C446.266 105.162 446.666 105.237 447.016 105.387C447.371 105.532 447.671 105.737 447.916 106.002C448.161 106.262 448.346 106.575 448.471 106.94C448.601 107.305 448.666 107.705 448.666 108.14V113ZM445.066 111.845C445.256 111.845 445.431 111.827 445.591 111.792C445.751 111.757 445.901 111.705 446.041 111.635C446.186 111.565 446.323 111.48 446.453 111.38C446.588 111.275 446.723 111.152 446.858 111.012V109.715C446.318 109.74 445.866 109.787 445.501 109.857C445.141 109.922 444.851 110.007 444.631 110.112C444.411 110.217 444.253 110.34 444.158 110.48C444.068 110.62 444.023 110.772 444.023 110.937C444.023 111.262 444.118 111.495 444.308 111.635C444.503 111.775 444.756 111.845 445.066 111.845ZM448.336 102.035L446.483 103.992C446.388 104.092 446.296 104.162 446.206 104.202C446.121 104.237 446.008 104.255 445.868 104.255H444.758L445.823 102.432C445.898 102.302 445.986 102.205 446.086 102.14C446.186 102.07 446.336 102.035 446.536 102.035H448.336ZM451.487 113V105.305H452.575C452.765 105.305 452.897 105.34 452.972 105.41C453.047 105.48 453.097 105.6 453.122 105.77L453.235 106.7C453.51 106.225 453.832 105.85 454.202 105.575C454.572 105.3 454.987 105.162 455.447 105.162C455.827 105.162 456.142 105.25 456.392 105.425L456.152 106.812C456.137 106.902 456.105 106.967 456.055 107.007C456.005 107.042 455.937 107.06 455.852 107.06C455.777 107.06 455.675 107.042 455.545 107.007C455.415 106.972 455.242 106.955 455.027 106.955C454.642 106.955 454.312 107.062 454.037 107.277C453.762 107.487 453.53 107.797 453.34 108.207V113H451.487ZM460.583 105.305V113H458.73V105.305H460.583ZM460.86 103.062C460.86 103.222 460.828 103.372 460.763 103.512C460.698 103.652 460.61 103.775 460.5 103.88C460.395 103.985 460.27 104.07 460.125 104.135C459.98 104.195 459.825 104.225 459.66 104.225C459.5 104.225 459.348 104.195 459.203 104.135C459.063 104.07 458.94 103.985 458.835 103.88C458.73 103.775 458.645 103.652 458.58 103.512C458.52 103.372 458.49 103.222 458.49 103.062C458.49 102.897 458.52 102.742 458.58 102.597C458.645 102.452 458.73 102.327 458.835 102.222C458.94 102.117 459.063 102.035 459.203 101.975C459.348 101.91 459.5 101.877 459.66 101.877C459.825 101.877 459.98 101.91 460.125 101.975C460.27 102.035 460.395 102.117 460.5 102.222C460.61 102.327 460.698 102.452 460.763 102.597C460.828 102.742 460.86 102.897 460.86 103.062ZM466.967 105.185C467.542 105.185 468.062 105.277 468.527 105.463C468.997 105.647 469.397 105.91 469.727 106.25C470.057 106.59 470.312 107.005 470.492 107.495C470.672 107.985 470.762 108.532 470.762 109.137C470.762 109.747 470.672 110.297 470.492 110.787C470.312 111.277 470.057 111.695 469.727 112.04C469.397 112.385 468.997 112.65 468.527 112.835C468.062 113.02 467.542 113.113 466.967 113.113C466.392 113.113 465.87 113.02 465.4 112.835C464.93 112.65 464.527 112.385 464.192 112.04C463.862 111.695 463.605 111.277 463.42 110.787C463.24 110.297 463.15 109.747 463.15 109.137C463.15 108.532 463.24 107.985 463.42 107.495C463.605 107.005 463.862 106.59 464.192 106.25C464.527 105.91 464.93 105.647 465.4 105.463C465.87 105.277 466.392 105.185 466.967 105.185ZM466.967 111.687C467.607 111.687 468.08 111.472 468.385 111.042C468.695 110.612 468.85 109.982 468.85 109.152C468.85 108.322 468.695 107.69 468.385 107.255C468.08 106.82 467.607 106.602 466.967 106.602C466.317 106.602 465.837 106.822 465.527 107.262C465.217 107.697 465.062 108.327 465.062 109.152C465.062 109.977 465.217 110.607 465.527 111.042C465.837 111.472 466.317 111.687 466.967 111.687Z" fill="#81776D"/>
<path d="M308.875 100.918C309.608 100.918 310.268 101.024 310.855 101.237C311.449 101.442 311.955 101.732 312.373 102.106C312.791 102.473 313.11 102.905 313.33 103.404C313.557 103.903 313.671 104.442 313.671 105.021C313.671 105.527 313.612 105.974 313.495 106.363C313.385 106.744 313.22 107.078 313 107.364C312.787 107.65 312.523 107.892 312.208 108.09C311.9 108.288 311.548 108.453 311.152 108.585C312.105 108.886 312.817 109.344 313.286 109.96C313.755 110.576 313.99 111.35 313.99 112.281C313.99 113.073 313.843 113.773 313.55 114.382C313.257 114.991 312.861 115.504 312.362 115.922C311.863 116.333 311.284 116.644 310.624 116.857C309.971 117.07 309.278 117.176 308.545 117.176C307.746 117.176 307.049 117.084 306.455 116.901C305.861 116.718 305.344 116.446 304.904 116.087C304.464 115.728 304.09 115.288 303.782 114.767C303.474 114.246 303.21 113.645 302.99 112.963L304.189 112.468C304.394 112.38 304.603 112.336 304.816 112.336C305.007 112.336 305.175 112.376 305.322 112.457C305.476 112.538 305.593 112.655 305.674 112.809C305.806 113.066 305.949 113.319 306.103 113.568C306.264 113.817 306.455 114.041 306.675 114.239C306.895 114.43 307.152 114.587 307.445 114.712C307.746 114.829 308.101 114.888 308.512 114.888C308.974 114.888 309.377 114.815 309.722 114.668C310.067 114.514 310.353 114.316 310.58 114.074C310.815 113.832 310.987 113.564 311.097 113.271C311.214 112.97 311.273 112.67 311.273 112.369C311.273 111.988 311.233 111.643 311.152 111.335C311.071 111.02 310.903 110.752 310.646 110.532C310.389 110.312 310.019 110.14 309.535 110.015C309.058 109.89 308.417 109.828 307.61 109.828V107.892C308.277 107.885 308.831 107.822 309.271 107.705C309.711 107.588 310.059 107.426 310.316 107.221C310.58 107.008 310.763 106.755 310.866 106.462C310.969 106.169 311.02 105.846 311.02 105.494C311.02 104.739 310.815 104.17 310.404 103.789C309.993 103.4 309.432 103.206 308.721 103.206C308.076 103.206 307.54 103.378 307.115 103.723C306.69 104.06 306.393 104.497 306.224 105.032C306.136 105.311 306.015 105.512 305.861 105.637C305.707 105.754 305.505 105.813 305.256 105.813C305.139 105.813 305.014 105.802 304.882 105.78L303.452 105.527C303.562 104.764 303.775 104.097 304.09 103.525C304.405 102.946 304.798 102.465 305.267 102.084C305.744 101.695 306.286 101.406 306.895 101.215C307.511 101.017 308.171 100.918 308.875 100.918ZM327.972 109.047C327.972 110.433 327.821 111.639 327.521 112.666C327.227 113.685 326.817 114.529 326.289 115.196C325.768 115.863 325.148 116.362 324.43 116.692C323.718 117.015 322.948 117.176 322.12 117.176C321.291 117.176 320.521 117.015 319.81 116.692C319.106 116.362 318.493 115.863 317.973 115.196C317.452 114.529 317.045 113.685 316.752 112.666C316.458 111.639 316.312 110.433 316.312 109.047C316.312 107.654 316.458 106.447 316.752 105.428C317.045 104.409 317.452 103.565 317.973 102.898C318.493 102.231 319.106 101.736 319.81 101.413C320.521 101.083 321.291 100.918 322.12 100.918C322.948 100.918 323.718 101.083 324.43 101.413C325.148 101.736 325.768 102.231 326.289 102.898C326.817 103.565 327.227 104.409 327.521 105.428C327.821 106.447 327.972 107.654 327.972 109.047ZM325.167 109.047C325.167 107.896 325.082 106.942 324.914 106.187C324.745 105.432 324.518 104.83 324.232 104.383C323.953 103.936 323.63 103.624 323.264 103.448C322.897 103.265 322.516 103.173 322.12 103.173C321.731 103.173 321.353 103.265 320.987 103.448C320.627 103.624 320.308 103.936 320.03 104.383C319.751 104.83 319.527 105.432 319.359 106.187C319.197 106.942 319.117 107.896 319.117 109.047C319.117 110.198 319.197 111.152 319.359 111.907C319.527 112.662 319.751 113.264 320.03 113.711C320.308 114.158 320.627 114.474 320.987 114.657C321.353 114.833 321.731 114.921 322.12 114.921C322.516 114.921 322.897 114.833 323.264 114.657C323.63 114.474 323.953 114.158 324.232 113.711C324.518 113.264 324.745 112.662 324.914 111.907C325.082 111.152 325.167 110.198 325.167 109.047ZM337.542 104.944C337.542 105.545 337.44 106.088 337.234 106.572C337.036 107.056 336.769 107.47 336.431 107.815C336.094 108.152 335.702 108.413 335.254 108.596C334.807 108.779 334.341 108.871 333.857 108.871C333.329 108.871 332.842 108.779 332.394 108.596C331.947 108.413 331.558 108.152 331.228 107.815C330.906 107.47 330.653 107.056 330.469 106.572C330.286 106.088 330.194 105.545 330.194 104.944C330.194 104.328 330.286 103.771 330.469 103.272C330.653 102.773 330.906 102.352 331.228 102.007C331.558 101.662 331.947 101.398 332.394 101.215C332.842 101.024 333.329 100.929 333.857 100.929C334.385 100.929 334.873 101.024 335.32 101.215C335.775 101.398 336.167 101.662 336.497 102.007C336.827 102.352 337.084 102.773 337.267 103.272C337.451 103.771 337.542 104.328 337.542 104.944ZM335.441 104.944C335.441 104.519 335.401 104.163 335.32 103.877C335.24 103.591 335.126 103.36 334.979 103.184C334.84 103.008 334.671 102.883 334.473 102.81C334.283 102.729 334.077 102.689 333.857 102.689C333.637 102.689 333.432 102.729 333.241 102.81C333.051 102.883 332.886 103.008 332.746 103.184C332.607 103.36 332.497 103.591 332.416 103.877C332.343 104.163 332.306 104.519 332.306 104.944C332.306 105.355 332.343 105.699 332.416 105.978C332.497 106.249 332.607 106.469 332.746 106.638C332.886 106.807 333.051 106.928 333.241 107.001C333.432 107.074 333.637 107.111 333.857 107.111C334.077 107.111 334.283 107.074 334.473 107.001C334.671 106.928 334.84 106.807 334.979 106.638C335.126 106.469 335.24 106.249 335.32 105.978C335.401 105.699 335.441 105.355 335.441 104.944ZM342.833 101.523C342.921 101.413 343.031 101.314 343.163 101.226C343.295 101.138 343.479 101.094 343.713 101.094H345.682L333.868 116.593C333.78 116.71 333.667 116.809 333.527 116.89C333.395 116.963 333.234 117 333.043 117H331.019L342.833 101.523ZM346.518 113.26C346.518 113.861 346.416 114.404 346.21 114.888C346.012 115.372 345.745 115.786 345.407 116.131C345.07 116.468 344.678 116.732 344.23 116.923C343.783 117.106 343.317 117.198 342.833 117.198C342.305 117.198 341.818 117.106 341.37 116.923C340.923 116.732 340.534 116.468 340.204 116.131C339.882 115.786 339.629 115.372 339.445 114.888C339.262 114.404 339.17 113.861 339.17 113.26C339.17 112.644 339.262 112.087 339.445 111.588C339.629 111.089 339.882 110.668 340.204 110.323C340.534 109.978 340.923 109.714 341.37 109.531C341.818 109.34 342.305 109.245 342.833 109.245C343.361 109.245 343.849 109.34 344.296 109.531C344.751 109.714 345.143 109.978 345.473 110.323C345.803 110.668 346.06 111.089 346.243 111.588C346.427 112.087 346.518 112.644 346.518 113.26ZM344.428 113.26C344.428 112.835 344.384 112.479 344.296 112.193C344.216 111.907 344.102 111.676 343.955 111.5C343.816 111.324 343.647 111.199 343.449 111.126C343.259 111.045 343.053 111.005 342.833 111.005C342.613 111.005 342.408 111.045 342.217 111.126C342.027 111.199 341.862 111.324 341.722 111.5C341.59 111.676 341.484 111.907 341.403 112.193C341.323 112.479 341.282 112.835 341.282 113.26C341.282 113.671 341.323 114.015 341.403 114.294C341.484 114.573 341.59 114.796 341.722 114.965C341.862 115.134 342.027 115.255 342.217 115.328C342.408 115.401 342.613 115.438 342.833 115.438C343.053 115.438 343.259 115.401 343.449 115.328C343.647 115.255 343.816 115.134 343.955 114.965C344.102 114.796 344.216 114.573 344.296 114.294C344.384 114.015 344.428 113.671 344.428 113.26Z" fill="#5E2028"/>
<path d="M313 132C309.053 132 305.167 131.027 301.686 129.166C298.206 127.306 295.237 124.615 293.045 121.334C290.852 118.052 289.502 114.28 289.116 110.352C288.729 106.425 289.317 102.462 290.827 98.8156C292.337 95.1692 294.724 91.9516 297.775 89.4478C300.825 86.9439 304.447 85.2311 308.318 84.4612C312.189 83.6912 316.19 83.8877 319.967 85.0334C323.744 86.1791 327.18 88.2386 329.971 91.0294L326.511 94.4888C324.289 92.2669 321.554 90.6272 318.547 89.7151C315.54 88.8029 312.354 88.6464 309.272 89.2595C306.19 89.8725 303.307 91.2361 300.878 93.2296C298.449 95.223 296.549 97.7847 295.347 100.688C294.144 103.591 293.676 106.746 293.984 109.873C294.292 113 295.367 116.003 297.113 118.616C298.858 121.228 301.221 123.37 303.993 124.851C306.764 126.333 309.858 127.108 313 127.108L313 132Z" fill="#5E2028"/>
<path d="M385.908 168.127C385.853 168.237 385.788 168.315 385.713 168.36C385.643 168.405 385.558 168.427 385.458 168.427C385.358 168.427 385.245 168.39 385.12 168.315C384.995 168.235 384.848 168.147 384.678 168.052C384.508 167.957 384.308 167.872 384.078 167.797C383.853 167.717 383.585 167.677 383.275 167.677C382.995 167.677 382.75 167.712 382.54 167.782C382.335 167.847 382.16 167.94 382.015 168.06C381.875 168.18 381.77 168.325 381.7 168.495C381.63 168.66 381.595 168.842 381.595 169.042C381.595 169.297 381.665 169.51 381.805 169.68C381.95 169.85 382.14 169.995 382.375 170.115C382.61 170.235 382.878 170.342 383.178 170.437C383.478 170.532 383.783 170.635 384.093 170.745C384.408 170.85 384.715 170.975 385.015 171.12C385.315 171.26 385.583 171.44 385.818 171.66C386.053 171.875 386.24 172.14 386.38 172.455C386.525 172.77 386.598 173.152 386.598 173.602C386.598 174.092 386.513 174.552 386.343 174.982C386.178 175.407 385.933 175.78 385.608 176.1C385.288 176.415 384.895 176.665 384.43 176.85C383.965 177.03 383.433 177.12 382.833 177.12C382.488 177.12 382.148 177.085 381.813 177.015C381.478 176.95 381.155 176.855 380.845 176.73C380.54 176.605 380.253 176.455 379.983 176.28C379.718 176.105 379.48 175.91 379.27 175.695L379.855 174.727C379.91 174.657 379.975 174.6 380.05 174.555C380.13 174.505 380.218 174.48 380.313 174.48C380.438 174.48 380.573 174.532 380.718 174.637C380.863 174.737 381.033 174.85 381.228 174.975C381.428 175.1 381.66 175.215 381.925 175.32C382.195 175.42 382.518 175.47 382.893 175.47C383.468 175.47 383.913 175.335 384.228 175.065C384.543 174.79 384.7 174.397 384.7 173.887C384.7 173.602 384.628 173.37 384.483 173.19C384.343 173.01 384.155 172.86 383.92 172.74C383.685 172.615 383.418 172.51 383.118 172.425C382.818 172.34 382.513 172.247 382.203 172.147C381.893 172.047 381.588 171.927 381.288 171.787C380.988 171.647 380.72 171.465 380.485 171.24C380.25 171.015 380.06 170.735 379.915 170.4C379.775 170.06 379.705 169.642 379.705 169.147C379.705 168.752 379.783 168.367 379.938 167.992C380.098 167.617 380.328 167.285 380.628 166.995C380.933 166.705 381.305 166.472 381.745 166.297C382.185 166.122 382.688 166.035 383.253 166.035C383.893 166.035 384.483 166.135 385.023 166.335C385.563 166.535 386.023 166.815 386.403 167.175L385.908 168.127ZM395.062 177H394.229C394.054 177 393.917 176.975 393.817 176.925C393.717 176.87 393.642 176.762 393.592 176.602L393.427 176.055C393.232 176.23 393.039 176.385 392.849 176.52C392.664 176.65 392.472 176.76 392.272 176.85C392.072 176.94 391.859 177.008 391.634 177.053C391.409 177.098 391.159 177.12 390.884 177.12C390.559 177.12 390.259 177.078 389.984 176.992C389.709 176.902 389.472 176.77 389.272 176.595C389.077 176.42 388.924 176.202 388.814 175.942C388.704 175.682 388.649 175.38 388.649 175.035C388.649 174.745 388.724 174.46 388.874 174.18C389.029 173.895 389.284 173.64 389.639 173.415C389.994 173.185 390.467 172.995 391.057 172.845C391.647 172.695 392.379 172.61 393.254 172.59V172.14C393.254 171.625 393.144 171.245 392.924 171C392.709 170.75 392.394 170.625 391.979 170.625C391.679 170.625 391.429 170.66 391.229 170.73C391.029 170.8 390.854 170.88 390.704 170.97C390.559 171.055 390.424 171.132 390.299 171.202C390.174 171.272 390.037 171.307 389.887 171.307C389.762 171.307 389.654 171.275 389.564 171.21C389.474 171.145 389.402 171.065 389.347 170.97L389.009 170.377C389.894 169.567 390.962 169.162 392.212 169.162C392.662 169.162 393.062 169.237 393.412 169.387C393.767 169.532 394.067 169.737 394.312 170.002C394.557 170.262 394.742 170.575 394.867 170.94C394.997 171.305 395.062 171.705 395.062 172.14V177ZM391.462 175.845C391.652 175.845 391.827 175.827 391.987 175.792C392.147 175.757 392.297 175.705 392.437 175.635C392.582 175.565 392.719 175.48 392.849 175.38C392.984 175.275 393.119 175.152 393.254 175.012V173.715C392.714 173.74 392.262 173.787 391.897 173.857C391.537 173.922 391.247 174.007 391.027 174.112C390.807 174.217 390.649 174.34 390.554 174.48C390.464 174.62 390.419 174.772 390.419 174.937C390.419 175.262 390.514 175.495 390.704 175.635C390.899 175.775 391.152 175.845 391.462 175.845ZM399.579 169.305V174.195C399.579 174.665 399.686 175.03 399.901 175.29C400.121 175.545 400.449 175.672 400.884 175.672C401.204 175.672 401.504 175.602 401.784 175.462C402.064 175.317 402.329 175.12 402.579 174.87V169.305H404.431V177H403.299C403.059 177 402.901 176.887 402.826 176.662L402.699 176.047C402.539 176.207 402.374 176.355 402.204 176.49C402.034 176.62 401.851 176.732 401.656 176.827C401.466 176.917 401.259 176.987 401.034 177.038C400.814 177.093 400.576 177.12 400.321 177.12C399.901 177.12 399.529 177.05 399.204 176.91C398.884 176.765 398.614 176.562 398.394 176.302C398.174 176.042 398.006 175.735 397.891 175.38C397.781 175.02 397.726 174.625 397.726 174.195V169.305H399.579ZM403.734 166.035L401.881 167.992C401.786 168.092 401.694 168.162 401.604 168.202C401.519 168.237 401.406 168.255 401.266 168.255H400.156L401.221 166.432C401.296 166.302 401.384 166.205 401.484 166.14C401.584 166.07 401.734 166.035 401.934 166.035H403.734ZM412.824 177C412.584 177 412.426 176.887 412.351 176.662L412.201 175.92C412.041 176.1 411.874 176.262 411.699 176.407C411.524 176.552 411.334 176.677 411.129 176.782C410.929 176.887 410.711 176.967 410.476 177.023C410.246 177.083 409.996 177.113 409.726 177.113C409.306 177.113 408.921 177.025 408.571 176.85C408.221 176.675 407.919 176.422 407.664 176.092C407.414 175.757 407.219 175.345 407.079 174.855C406.944 174.365 406.876 173.805 406.876 173.175C406.876 172.605 406.954 172.075 407.109 171.585C407.264 171.095 407.486 170.67 407.776 170.31C408.066 169.95 408.414 169.67 408.819 169.47C409.224 169.265 409.679 169.162 410.184 169.162C410.614 169.162 410.981 169.232 411.286 169.372C411.591 169.507 411.864 169.69 412.104 169.92V165.855H413.956V177H412.824ZM410.356 175.642C410.741 175.642 411.069 175.562 411.339 175.402C411.609 175.242 411.864 175.015 412.104 174.72V171.27C411.894 171.015 411.664 170.835 411.414 170.73C411.169 170.625 410.904 170.572 410.619 170.572C410.339 170.572 410.084 170.625 409.854 170.73C409.629 170.835 409.436 170.995 409.276 171.21C409.121 171.42 409.001 171.69 408.916 172.02C408.831 172.345 408.789 172.73 408.789 173.175C408.789 173.625 408.824 174.007 408.894 174.322C408.969 174.632 409.074 174.887 409.209 175.087C409.344 175.282 409.509 175.425 409.704 175.515C409.899 175.6 410.116 175.642 410.356 175.642ZM420.144 169.185C420.629 169.185 421.074 169.262 421.479 169.417C421.889 169.572 422.241 169.8 422.536 170.1C422.831 170.395 423.061 170.76 423.226 171.195C423.391 171.625 423.474 172.117 423.474 172.672C423.474 172.812 423.466 172.93 423.451 173.025C423.441 173.115 423.419 173.187 423.384 173.242C423.354 173.292 423.311 173.33 423.256 173.355C423.201 173.375 423.131 173.385 423.046 173.385H418.291C418.346 174.175 418.559 174.755 418.929 175.125C419.299 175.495 419.789 175.68 420.399 175.68C420.699 175.68 420.956 175.645 421.171 175.575C421.391 175.505 421.581 175.427 421.741 175.342C421.906 175.257 422.049 175.18 422.169 175.11C422.294 175.04 422.414 175.005 422.529 175.005C422.604 175.005 422.669 175.02 422.724 175.05C422.779 175.08 422.826 175.122 422.866 175.177L423.406 175.852C423.201 176.092 422.971 176.295 422.716 176.46C422.461 176.62 422.194 176.75 421.914 176.85C421.639 176.945 421.356 177.013 421.066 177.053C420.781 177.093 420.504 177.113 420.234 177.113C419.699 177.113 419.201 177.025 418.741 176.85C418.281 176.67 417.881 176.407 417.541 176.062C417.201 175.712 416.934 175.282 416.739 174.772C416.544 174.257 416.446 173.662 416.446 172.987C416.446 172.462 416.531 171.97 416.701 171.51C416.871 171.045 417.114 170.642 417.429 170.302C417.749 169.957 418.136 169.685 418.591 169.485C419.051 169.285 419.569 169.185 420.144 169.185ZM420.181 170.512C419.641 170.512 419.219 170.665 418.914 170.97C418.609 171.275 418.414 171.707 418.329 172.267H421.809C421.809 172.027 421.776 171.802 421.711 171.592C421.646 171.377 421.546 171.19 421.411 171.03C421.276 170.87 421.106 170.745 420.901 170.655C420.696 170.56 420.456 170.512 420.181 170.512Z" fill="#81776D"/>
<path d="M327.622 162.918C328.355 162.918 329.026 163.028 329.635 163.248C330.244 163.461 330.764 163.765 331.197 164.161C331.63 164.557 331.967 165.034 332.209 165.591C332.451 166.148 332.572 166.768 332.572 167.45C332.572 168.037 332.484 168.579 332.308 169.078C332.139 169.577 331.908 170.053 331.615 170.508C331.329 170.963 330.992 171.403 330.603 171.828C330.214 172.253 329.807 172.686 329.382 173.126L325.796 176.789C326.148 176.686 326.493 176.609 326.83 176.558C327.167 176.499 327.49 176.47 327.798 176.47H331.879C332.172 176.47 332.403 176.554 332.572 176.723C332.748 176.884 332.836 177.101 332.836 177.372V179H321.924V178.098C321.924 177.915 321.961 177.724 322.034 177.526C322.115 177.328 322.239 177.145 322.408 176.976L327.237 172.136C327.64 171.725 328 171.333 328.315 170.959C328.638 170.585 328.905 170.215 329.118 169.848C329.338 169.481 329.503 169.111 329.613 168.737C329.73 168.356 329.789 167.956 329.789 167.538C329.789 167.157 329.734 166.823 329.624 166.537C329.514 166.244 329.356 165.998 329.151 165.8C328.946 165.602 328.7 165.455 328.414 165.36C328.135 165.257 327.82 165.206 327.468 165.206C326.815 165.206 326.276 165.371 325.851 165.701C325.433 166.031 325.14 166.475 324.971 167.032C324.89 167.311 324.769 167.512 324.608 167.637C324.447 167.754 324.241 167.813 323.992 167.813C323.882 167.813 323.761 167.802 323.629 167.78L322.199 167.527C322.309 166.764 322.522 166.097 322.837 165.525C323.152 164.946 323.545 164.465 324.014 164.084C324.491 163.695 325.033 163.406 325.642 163.215C326.258 163.017 326.918 162.918 327.622 162.918ZM346.972 171.047C346.972 172.433 346.821 173.639 346.521 174.666C346.227 175.685 345.817 176.529 345.289 177.196C344.768 177.863 344.148 178.362 343.43 178.692C342.718 179.015 341.948 179.176 341.12 179.176C340.291 179.176 339.521 179.015 338.81 178.692C338.106 178.362 337.493 177.863 336.973 177.196C336.452 176.529 336.045 175.685 335.752 174.666C335.458 173.639 335.312 172.433 335.312 171.047C335.312 169.654 335.458 168.447 335.752 167.428C336.045 166.409 336.452 165.565 336.973 164.898C337.493 164.231 338.106 163.736 338.81 163.413C339.521 163.083 340.291 162.918 341.12 162.918C341.948 162.918 342.718 163.083 343.43 163.413C344.148 163.736 344.768 164.231 345.289 164.898C345.817 165.565 346.227 166.409 346.521 167.428C346.821 168.447 346.972 169.654 346.972 171.047ZM344.167 171.047C344.167 169.896 344.082 168.942 343.914 168.187C343.745 167.432 343.518 166.83 343.232 166.383C342.953 165.936 342.63 165.624 342.264 165.448C341.897 165.265 341.516 165.173 341.12 165.173C340.731 165.173 340.353 165.265 339.987 165.448C339.627 165.624 339.308 165.936 339.03 166.383C338.751 166.83 338.527 167.432 338.359 168.187C338.197 168.942 338.117 169.896 338.117 171.047C338.117 172.198 338.197 173.152 338.359 173.907C338.527 174.662 338.751 175.264 339.03 175.711C339.308 176.158 339.627 176.474 339.987 176.657C340.353 176.833 340.731 176.921 341.12 176.921C341.516 176.921 341.897 176.833 342.264 176.657C342.63 176.474 342.953 176.158 343.232 175.711C343.518 175.264 343.745 174.662 343.914 173.907C344.082 173.152 344.167 172.198 344.167 171.047ZM356.542 166.944C356.542 167.545 356.44 168.088 356.234 168.572C356.036 169.056 355.769 169.47 355.431 169.815C355.094 170.152 354.702 170.413 354.254 170.596C353.807 170.779 353.341 170.871 352.857 170.871C352.329 170.871 351.842 170.779 351.394 170.596C350.947 170.413 350.558 170.152 350.228 169.815C349.906 169.47 349.653 169.056 349.469 168.572C349.286 168.088 349.194 167.545 349.194 166.944C349.194 166.328 349.286 165.771 349.469 165.272C349.653 164.773 349.906 164.352 350.228 164.007C350.558 163.662 350.947 163.398 351.394 163.215C351.842 163.024 352.329 162.929 352.857 162.929C353.385 162.929 353.873 163.024 354.32 163.215C354.775 163.398 355.167 163.662 355.497 164.007C355.827 164.352 356.084 164.773 356.267 165.272C356.451 165.771 356.542 166.328 356.542 166.944ZM354.441 166.944C354.441 166.519 354.401 166.163 354.32 165.877C354.24 165.591 354.126 165.36 353.979 165.184C353.84 165.008 353.671 164.883 353.473 164.81C353.283 164.729 353.077 164.689 352.857 164.689C352.637 164.689 352.432 164.729 352.241 164.81C352.051 164.883 351.886 165.008 351.746 165.184C351.607 165.36 351.497 165.591 351.416 165.877C351.343 166.163 351.306 166.519 351.306 166.944C351.306 167.355 351.343 167.699 351.416 167.978C351.497 168.249 351.607 168.469 351.746 168.638C351.886 168.807 352.051 168.928 352.241 169.001C352.432 169.074 352.637 169.111 352.857 169.111C353.077 169.111 353.283 169.074 353.473 169.001C353.671 168.928 353.84 168.807 353.979 168.638C354.126 168.469 354.24 168.249 354.32 167.978C354.401 167.699 354.441 167.355 354.441 166.944ZM361.833 163.523C361.921 163.413 362.031 163.314 362.163 163.226C362.295 163.138 362.479 163.094 362.713 163.094H364.682L352.868 178.593C352.78 178.71 352.667 178.809 352.527 178.89C352.395 178.963 352.234 179 352.043 179H350.019L361.833 163.523ZM365.518 175.26C365.518 175.861 365.416 176.404 365.21 176.888C365.012 177.372 364.745 177.786 364.407 178.131C364.07 178.468 363.678 178.732 363.23 178.923C362.783 179.106 362.317 179.198 361.833 179.198C361.305 179.198 360.818 179.106 360.37 178.923C359.923 178.732 359.534 178.468 359.204 178.131C358.882 177.786 358.629 177.372 358.445 176.888C358.262 176.404 358.17 175.861 358.17 175.26C358.17 174.644 358.262 174.087 358.445 173.588C358.629 173.089 358.882 172.668 359.204 172.323C359.534 171.978 359.923 171.714 360.37 171.531C360.818 171.34 361.305 171.245 361.833 171.245C362.361 171.245 362.849 171.34 363.296 171.531C363.751 171.714 364.143 171.978 364.473 172.323C364.803 172.668 365.06 173.089 365.243 173.588C365.427 174.087 365.518 174.644 365.518 175.26ZM363.428 175.26C363.428 174.835 363.384 174.479 363.296 174.193C363.216 173.907 363.102 173.676 362.955 173.5C362.816 173.324 362.647 173.199 362.449 173.126C362.259 173.045 362.053 173.005 361.833 173.005C361.613 173.005 361.408 173.045 361.217 173.126C361.027 173.199 360.862 173.324 360.722 173.5C360.59 173.676 360.484 173.907 360.403 174.193C360.323 174.479 360.282 174.835 360.282 175.26C360.282 175.671 360.323 176.015 360.403 176.294C360.484 176.573 360.59 176.796 360.722 176.965C360.862 177.134 361.027 177.255 361.217 177.328C361.408 177.401 361.613 177.438 361.833 177.438C362.053 177.438 362.259 177.401 362.449 177.328C362.647 177.255 362.816 177.134 362.955 176.965C363.102 176.796 363.216 176.573 363.296 176.294C363.384 176.015 363.428 175.671 363.428 175.26Z" fill="#A16970"/>
<path d="M332 194C328.053 194 324.167 193.027 320.686 191.166C317.206 189.306 314.237 186.615 312.045 183.334C309.852 180.052 308.502 176.28 308.116 172.352C307.729 168.425 308.317 164.462 309.827 160.816C311.337 157.169 313.724 153.952 316.775 151.448C319.825 148.944 323.447 147.231 327.318 146.461C331.189 145.691 335.19 145.888 338.967 147.033C342.744 148.179 346.18 150.239 348.971 153.029L345.511 156.489C343.289 154.267 340.554 152.627 337.547 151.715C334.54 150.803 331.354 150.646 328.272 151.259C325.19 151.872 322.307 153.236 319.878 155.23C317.449 157.223 315.549 159.785 314.347 162.688C313.144 165.591 312.676 168.746 312.984 171.873C313.292 175 314.367 178.003 316.113 180.616C317.858 183.228 320.221 185.37 322.993 186.851C325.764 188.333 328.858 189.108 332 189.108L332 194Z" fill="#A16970"/>
<path d="M409.498 220.577C409.498 221.372 409.365 222.11 409.1 222.79C408.835 223.465 408.463 224.05 407.983 224.545C407.503 225.04 406.925 225.427 406.25 225.707C405.575 225.983 404.828 226.12 404.008 226.12C403.188 226.12 402.438 225.983 401.758 225.707C401.083 225.427 400.503 225.04 400.018 224.545C399.538 224.05 399.165 223.465 398.9 222.79C398.635 222.11 398.503 221.372 398.503 220.577C398.503 219.782 398.635 219.047 398.9 218.372C399.165 217.692 399.538 217.105 400.018 216.61C400.503 216.115 401.083 215.73 401.758 215.455C402.438 215.175 403.188 215.035 404.008 215.035C404.828 215.035 405.575 215.175 406.25 215.455C406.925 215.735 407.503 216.122 407.983 216.617C408.463 217.107 408.835 217.692 409.1 218.372C409.365 219.047 409.498 219.782 409.498 220.577ZM407.428 220.577C407.428 219.982 407.348 219.45 407.188 218.98C407.033 218.505 406.808 218.102 406.513 217.772C406.218 217.442 405.858 217.19 405.433 217.015C405.013 216.84 404.538 216.752 404.008 216.752C403.478 216.752 403 216.84 402.575 217.015C402.15 217.19 401.788 217.442 401.488 217.772C401.193 218.102 400.965 218.505 400.805 218.98C400.645 219.45 400.565 219.982 400.565 220.577C400.565 221.172 400.645 221.707 400.805 222.182C400.965 222.652 401.193 223.052 401.488 223.382C401.788 223.707 402.15 223.957 402.575 224.132C403 224.307 403.478 224.395 404.008 224.395C404.538 224.395 405.013 224.307 405.433 224.132C405.858 223.957 406.218 223.707 406.513 223.382C406.808 223.052 407.033 222.652 407.188 222.182C407.348 221.707 407.428 221.172 407.428 220.577ZM413.682 218.305V223.195C413.682 223.665 413.79 224.03 414.005 224.29C414.225 224.545 414.552 224.672 414.987 224.672C415.307 224.672 415.607 224.602 415.887 224.462C416.167 224.317 416.432 224.12 416.682 223.87V218.305H418.535V226H417.402C417.162 226 417.005 225.887 416.93 225.662L416.802 225.047C416.642 225.207 416.477 225.355 416.307 225.49C416.137 225.62 415.955 225.732 415.76 225.827C415.57 225.917 415.362 225.987 415.137 226.038C414.917 226.093 414.68 226.12 414.425 226.12C414.005 226.12 413.632 226.05 413.307 225.91C412.987 225.765 412.717 225.562 412.497 225.302C412.277 225.042 412.11 224.735 411.995 224.38C411.885 224.02 411.83 223.625 411.83 223.195V218.305H413.682ZM424.04 226.12C423.375 226.12 422.862 225.932 422.502 225.557C422.142 225.177 421.962 224.655 421.962 223.99V219.692H421.182C421.082 219.692 420.995 219.66 420.92 219.595C420.85 219.53 420.815 219.432 420.815 219.302V218.567L422.052 218.365L422.442 216.265C422.462 216.165 422.507 216.087 422.577 216.032C422.652 215.977 422.745 215.95 422.855 215.95H423.815V218.372H425.84V219.692H423.815V223.862C423.815 224.102 423.875 224.29 423.995 224.425C424.115 224.56 424.275 224.627 424.475 224.627C424.59 224.627 424.685 224.615 424.76 224.59C424.84 224.56 424.907 224.53 424.962 224.5C425.022 224.47 425.075 224.442 425.12 224.417C425.165 224.387 425.21 224.372 425.255 224.372C425.31 224.372 425.355 224.387 425.39 224.417C425.425 224.442 425.462 224.482 425.502 224.537L426.057 225.437C425.787 225.662 425.477 225.832 425.127 225.947C424.777 226.063 424.415 226.12 424.04 226.12ZM428.313 226V218.305H429.401C429.591 218.305 429.723 218.34 429.798 218.41C429.873 218.48 429.923 218.6 429.948 218.77L430.061 219.7C430.336 219.225 430.658 218.85 431.028 218.575C431.398 218.3 431.813 218.162 432.273 218.162C432.653 218.162 432.968 218.25 433.218 218.425L432.978 219.812C432.963 219.902 432.931 219.967 432.881 220.007C432.831 220.042 432.763 220.06 432.678 220.06C432.603 220.06 432.501 220.042 432.371 220.007C432.241 219.972 432.068 219.955 431.853 219.955C431.468 219.955 431.138 220.062 430.863 220.277C430.588 220.487 430.356 220.797 430.166 221.207V226H428.313ZM441.247 226H440.414C440.239 226 440.102 225.975 440.002 225.925C439.902 225.87 439.827 225.762 439.777 225.602L439.612 225.055C439.417 225.23 439.224 225.385 439.034 225.52C438.849 225.65 438.657 225.76 438.457 225.85C438.257 225.94 438.044 226.008 437.819 226.053C437.594 226.098 437.344 226.12 437.069 226.12C436.744 226.12 436.444 226.078 436.169 225.992C435.894 225.902 435.657 225.77 435.457 225.595C435.262 225.42 435.109 225.202 434.999 224.942C434.889 224.682 434.834 224.38 434.834 224.035C434.834 223.745 434.909 223.46 435.059 223.18C435.214 222.895 435.469 222.64 435.824 222.415C436.179 222.185 436.652 221.995 437.242 221.845C437.832 221.695 438.564 221.61 439.439 221.59V221.14C439.439 220.625 439.329 220.245 439.109 220C438.894 219.75 438.579 219.625 438.164 219.625C437.864 219.625 437.614 219.66 437.414 219.73C437.214 219.8 437.039 219.88 436.889 219.97C436.744 220.055 436.609 220.132 436.484 220.202C436.359 220.272 436.222 220.307 436.072 220.307C435.947 220.307 435.839 220.275 435.749 220.21C435.659 220.145 435.587 220.065 435.532 219.97L435.194 219.377C436.079 218.567 437.147 218.162 438.397 218.162C438.847 218.162 439.247 218.237 439.597 218.387C439.952 218.532 440.252 218.737 440.497 219.002C440.742 219.262 440.927 219.575 441.052 219.94C441.182 220.305 441.247 220.705 441.247 221.14V226ZM437.647 224.845C437.837 224.845 438.012 224.827 438.172 224.792C438.332 224.757 438.482 224.705 438.622 224.635C438.767 224.565 438.904 224.48 439.034 224.38C439.169 224.275 439.304 224.152 439.439 224.012V222.715C438.899 222.74 438.447 222.787 438.082 222.857C437.722 222.922 437.432 223.007 437.212 223.112C436.992 223.217 436.834 223.34 436.739 223.48C436.649 223.62 436.604 223.772 436.604 223.937C436.604 224.262 436.699 224.495 436.889 224.635C437.084 224.775 437.337 224.845 437.647 224.845ZM448.636 219.805C448.586 219.885 448.533 219.942 448.478 219.977C448.423 220.007 448.353 220.022 448.268 220.022C448.178 220.022 448.081 219.997 447.976 219.947C447.876 219.897 447.758 219.842 447.623 219.782C447.488 219.717 447.333 219.66 447.158 219.61C446.988 219.56 446.786 219.535 446.551 219.535C446.186 219.535 445.898 219.612 445.688 219.767C445.478 219.922 445.373 220.125 445.373 220.375C445.373 220.54 445.426 220.68 445.531 220.795C445.641 220.905 445.783 221.002 445.958 221.087C446.138 221.172 446.341 221.25 446.566 221.32C446.791 221.385 447.021 221.457 447.256 221.537C447.491 221.617 447.721 221.71 447.946 221.815C448.171 221.915 448.371 222.045 448.546 222.205C448.726 222.36 448.868 222.547 448.973 222.767C449.083 222.987 449.138 223.252 449.138 223.562C449.138 223.932 449.071 224.275 448.936 224.59C448.801 224.9 448.603 225.17 448.343 225.4C448.083 225.625 447.761 225.802 447.376 225.932C446.996 226.058 446.558 226.12 446.063 226.12C445.798 226.12 445.538 226.095 445.283 226.045C445.033 226 444.791 225.935 444.556 225.85C444.326 225.765 444.111 225.665 443.911 225.55C443.716 225.435 443.543 225.31 443.393 225.175L443.821 224.47C443.876 224.385 443.941 224.32 444.016 224.275C444.091 224.23 444.186 224.207 444.301 224.207C444.416 224.207 444.523 224.24 444.623 224.305C444.728 224.37 444.848 224.44 444.983 224.515C445.118 224.59 445.276 224.66 445.456 224.725C445.641 224.79 445.873 224.822 446.153 224.822C446.373 224.822 446.561 224.797 446.716 224.747C446.876 224.692 447.006 224.622 447.106 224.537C447.211 224.452 447.286 224.355 447.331 224.245C447.381 224.13 447.406 224.012 447.406 223.892C447.406 223.712 447.351 223.565 447.241 223.45C447.136 223.335 446.993 223.235 446.813 223.15C446.638 223.065 446.436 222.99 446.206 222.925C445.981 222.855 445.748 222.78 445.508 222.7C445.273 222.62 445.041 222.527 444.811 222.422C444.586 222.312 444.383 222.175 444.203 222.01C444.028 221.845 443.886 221.642 443.776 221.402C443.671 221.162 443.618 220.872 443.618 220.532C443.618 220.217 443.681 219.917 443.806 219.632C443.931 219.347 444.113 219.1 444.353 218.89C444.598 218.675 444.901 218.505 445.261 218.38C445.626 218.25 446.046 218.185 446.521 218.185C447.051 218.185 447.533 218.272 447.968 218.447C448.403 218.622 448.766 218.852 449.056 219.137L448.636 219.805ZM405.935 233.155V234.76H401.128V237.767H404.915V239.32H401.128V242.387H405.935V244H399.095V233.155H405.935ZM413.141 237.805C413.091 237.885 413.039 237.942 412.984 237.977C412.929 238.007 412.859 238.022 412.774 238.022C412.684 238.022 412.586 237.997 412.481 237.947C412.381 237.897 412.264 237.842 412.129 237.782C411.994 237.717 411.839 237.66 411.664 237.61C411.494 237.56 411.291 237.535 411.056 237.535C410.691 237.535 410.404 237.612 410.194 237.767C409.984 237.922 409.879 238.125 409.879 238.375C409.879 238.54 409.931 238.68 410.036 238.795C410.146 238.905 410.289 239.002 410.464 239.087C410.644 239.172 410.846 239.25 411.071 239.32C411.296 239.385 411.526 239.457 411.761 239.537C411.996 239.617 412.226 239.71 412.451 239.815C412.676 239.915 412.876 240.045 413.051 240.205C413.231 240.36 413.374 240.547 413.479 240.767C413.589 240.987 413.644 241.252 413.644 241.562C413.644 241.932 413.576 242.275 413.441 242.59C413.306 242.9 413.109 243.17 412.849 243.4C412.589 243.625 412.266 243.802 411.881 243.932C411.501 244.058 411.064 244.12 410.569 244.12C410.304 244.12 410.044 244.095 409.789 244.045C409.539 244 409.296 243.935 409.061 243.85C408.831 243.765 408.616 243.665 408.416 243.55C408.221 243.435 408.049 243.31 407.899 243.175L408.326 242.47C408.381 242.385 408.446 242.32 408.521 242.275C408.596 242.23 408.691 242.207 408.806 242.207C408.921 242.207 409.029 242.24 409.129 242.305C409.234 242.37 409.354 242.44 409.489 242.515C409.624 242.59 409.781 242.66 409.961 242.725C410.146 242.79 410.379 242.822 410.659 242.822C410.879 242.822 411.066 242.797 411.221 242.747C411.381 242.692 411.511 242.622 411.611 242.537C411.716 242.452 411.791 242.355 411.836 242.245C411.886 242.13 411.911 242.012 411.911 241.892C411.911 241.712 411.856 241.565 411.746 241.45C411.641 241.335 411.499 241.235 411.319 241.15C411.144 241.065 410.941 240.99 410.711 240.925C410.486 240.855 410.254 240.78 410.014 240.7C409.779 240.62 409.546 240.527 409.316 240.422C409.091 240.312 408.889 240.175 408.709 240.01C408.534 239.845 408.391 239.642 408.281 239.402C408.176 239.162 408.124 238.872 408.124 238.532C408.124 238.217 408.186 237.917 408.311 237.632C408.436 237.347 408.619 237.1 408.859 236.89C409.104 236.675 409.406 236.505 409.766 236.38C410.131 236.25 410.551 236.185 411.026 236.185C411.556 236.185 412.039 236.272 412.474 236.447C412.909 236.622 413.271 236.852 413.561 237.137L413.141 237.805ZM416.122 246.513V236.305H417.254C417.374 236.305 417.477 236.332 417.562 236.387C417.647 236.442 417.702 236.527 417.727 236.642L417.877 237.355C418.187 237 418.542 236.712 418.942 236.492C419.347 236.272 419.819 236.162 420.359 236.162C420.779 236.162 421.162 236.25 421.507 236.425C421.857 236.6 422.157 236.855 422.407 237.19C422.662 237.52 422.857 237.93 422.992 238.42C423.132 238.905 423.202 239.462 423.202 240.092C423.202 240.667 423.124 241.2 422.969 241.69C422.814 242.18 422.592 242.605 422.302 242.965C422.017 243.325 421.669 243.608 421.259 243.812C420.854 244.013 420.399 244.113 419.894 244.113C419.459 244.113 419.089 244.048 418.784 243.917C418.484 243.782 418.214 243.597 417.974 243.362V246.513H416.122ZM419.722 237.625C419.337 237.625 419.007 237.707 418.732 237.872C418.462 238.032 418.209 238.26 417.974 238.555V242.005C418.184 242.265 418.412 242.447 418.657 242.552C418.907 242.652 419.174 242.702 419.459 242.702C419.739 242.702 419.992 242.65 420.217 242.545C420.447 242.44 420.639 242.28 420.794 242.065C420.954 241.85 421.077 241.58 421.162 241.255C421.247 240.925 421.289 240.537 421.289 240.092C421.289 239.642 421.252 239.262 421.177 238.952C421.107 238.637 421.004 238.382 420.869 238.187C420.734 237.992 420.569 237.85 420.374 237.76C420.184 237.67 419.967 237.625 419.722 237.625ZM428.783 236.185C429.268 236.185 429.713 236.262 430.118 236.417C430.528 236.572 430.881 236.8 431.176 237.1C431.471 237.395 431.701 237.76 431.866 238.195C432.031 238.625 432.113 239.117 432.113 239.672C432.113 239.812 432.106 239.93 432.091 240.025C432.081 240.115 432.058 240.187 432.023 240.242C431.993 240.292 431.951 240.33 431.896 240.355C431.841 240.375 431.771 240.385 431.686 240.385H426.931C426.986 241.175 427.198 241.755 427.568 242.125C427.938 242.495 428.428 242.68 429.038 242.68C429.338 242.68 429.596 242.645 429.811 242.575C430.031 242.505 430.221 242.427 430.381 242.342C430.546 242.257 430.688 242.18 430.808 242.11C430.933 242.04 431.053 242.005 431.168 242.005C431.243 242.005 431.308 242.02 431.363 242.05C431.418 242.08 431.466 242.122 431.506 242.177L432.046 242.852C431.841 243.092 431.611 243.295 431.356 243.46C431.101 243.62 430.833 243.75 430.553 243.85C430.278 243.945 429.996 244.013 429.706 244.053C429.421 244.093 429.143 244.113 428.873 244.113C428.338 244.113 427.841 244.025 427.381 243.85C426.921 243.67 426.521 243.407 426.181 243.062C425.841 242.712 425.573 242.282 425.378 241.772C425.183 241.257 425.086 240.662 425.086 239.987C425.086 239.462 425.171 238.97 425.341 238.51C425.511 238.045 425.753 237.642 426.068 237.302C426.388 236.957 426.776 236.685 427.231 236.485C427.691 236.285 428.208 236.185 428.783 236.185ZM428.821 237.512C428.281 237.512 427.858 237.665 427.553 237.97C427.248 238.275 427.053 238.707 426.968 239.267H430.448C430.448 239.027 430.416 238.802 430.351 238.592C430.286 238.377 430.186 238.19 430.051 238.03C429.916 237.87 429.746 237.745 429.541 237.655C429.336 237.56 429.096 237.512 428.821 237.512ZM440.023 237.932C439.968 238.002 439.913 238.057 439.858 238.097C439.808 238.137 439.733 238.157 439.633 238.157C439.538 238.157 439.446 238.13 439.356 238.075C439.266 238.015 439.158 237.95 439.033 237.88C438.908 237.805 438.758 237.74 438.583 237.685C438.413 237.625 438.201 237.595 437.946 237.595C437.621 237.595 437.336 237.655 437.091 237.775C436.846 237.89 436.641 238.057 436.476 238.277C436.316 238.497 436.196 238.765 436.116 239.08C436.036 239.39 435.996 239.742 435.996 240.137C435.996 240.547 436.038 240.912 436.123 241.232C436.213 241.552 436.341 241.822 436.506 242.042C436.671 242.257 436.871 242.422 437.106 242.537C437.341 242.647 437.606 242.702 437.901 242.702C438.196 242.702 438.433 242.667 438.613 242.597C438.798 242.522 438.953 242.442 439.078 242.357C439.203 242.267 439.311 242.187 439.401 242.117C439.496 242.042 439.601 242.005 439.716 242.005C439.866 242.005 439.978 242.062 440.053 242.177L440.586 242.852C440.381 243.092 440.158 243.295 439.918 243.46C439.678 243.62 439.428 243.75 439.168 243.85C438.913 243.945 438.648 244.013 438.373 244.053C438.098 244.093 437.826 244.113 437.556 244.113C437.081 244.113 436.633 244.025 436.213 243.85C435.793 243.67 435.426 243.41 435.111 243.07C434.801 242.73 434.553 242.315 434.368 241.825C434.188 241.33 434.098 240.767 434.098 240.137C434.098 239.572 434.178 239.05 434.338 238.57C434.503 238.085 434.743 237.667 435.058 237.317C435.373 236.962 435.763 236.685 436.228 236.485C436.693 236.285 437.228 236.185 437.833 236.185C438.408 236.185 438.911 236.277 439.341 236.463C439.776 236.647 440.166 236.912 440.511 237.257L440.023 237.932ZM444.737 236.305V244H442.884V236.305H444.737ZM445.014 234.062C445.014 234.222 444.982 234.372 444.917 234.512C444.852 234.652 444.764 234.775 444.654 234.88C444.549 234.985 444.424 235.07 444.279 235.135C444.134 235.195 443.979 235.225 443.814 235.225C443.654 235.225 443.502 235.195 443.357 235.135C443.217 235.07 443.094 234.985 442.989 234.88C442.884 234.775 442.799 234.652 442.734 234.512C442.674 234.372 442.644 234.222 442.644 234.062C442.644 233.897 442.674 233.742 442.734 233.597C442.799 233.452 442.884 233.327 442.989 233.222C443.094 233.117 443.217 233.035 443.357 232.975C443.502 232.91 443.654 232.877 443.814 232.877C443.979 232.877 444.134 232.91 444.279 232.975C444.424 233.035 444.549 233.117 444.654 233.222C444.764 233.327 444.852 233.452 444.917 233.597C444.982 233.742 445.014 233.897 445.014 234.062ZM453.867 244H453.034C452.859 244 452.722 243.975 452.622 243.925C452.522 243.87 452.447 243.762 452.397 243.602L452.232 243.055C452.037 243.23 451.844 243.385 451.654 243.52C451.469 243.65 451.277 243.76 451.077 243.85C450.877 243.94 450.664 244.008 450.439 244.053C450.214 244.098 449.964 244.12 449.689 244.12C449.364 244.12 449.064 244.078 448.789 243.992C448.514 243.902 448.277 243.77 448.077 243.595C447.882 243.42 447.729 243.202 447.619 242.942C447.509 242.682 447.454 242.38 447.454 242.035C447.454 241.745 447.529 241.46 447.679 241.18C447.834 240.895 448.089 240.64 448.444 240.415C448.799 240.185 449.272 239.995 449.862 239.845C450.452 239.695 451.184 239.61 452.059 239.59V239.14C452.059 238.625 451.949 238.245 451.729 238C451.514 237.75 451.199 237.625 450.784 237.625C450.484 237.625 450.234 237.66 450.034 237.73C449.834 237.8 449.659 237.88 449.509 237.97C449.364 238.055 449.229 238.132 449.104 238.202C448.979 238.272 448.842 238.307 448.692 238.307C448.567 238.307 448.459 238.275 448.369 238.21C448.279 238.145 448.207 238.065 448.152 237.97L447.814 237.377C448.699 236.567 449.767 236.162 451.017 236.162C451.467 236.162 451.867 236.237 452.217 236.387C452.572 236.532 452.872 236.737 453.117 237.002C453.362 237.262 453.547 237.575 453.672 237.94C453.802 238.305 453.867 238.705 453.867 239.14V244ZM450.267 242.845C450.457 242.845 450.632 242.827 450.792 242.792C450.952 242.757 451.102 242.705 451.242 242.635C451.387 242.565 451.524 242.48 451.654 242.38C451.789 242.275 451.924 242.152 452.059 242.012V240.715C451.519 240.74 451.067 240.787 450.702 240.857C450.342 240.922 450.052 241.007 449.832 241.112C449.612 241.217 449.454 241.34 449.359 241.48C449.269 241.62 449.224 241.772 449.224 241.937C449.224 242.262 449.319 242.495 449.509 242.635C449.704 242.775 449.957 242.845 450.267 242.845ZM458.661 232.855V244H456.808V232.855H458.661ZM463.733 236.305V244H461.881V236.305H463.733ZM464.011 234.062C464.011 234.222 463.978 234.372 463.913 234.512C463.848 234.652 463.761 234.775 463.651 234.88C463.546 234.985 463.421 235.07 463.276 235.135C463.131 235.195 462.976 235.225 462.811 235.225C462.651 235.225 462.498 235.195 462.353 235.135C462.213 235.07 462.091 234.985 461.986 234.88C461.881 234.775 461.796 234.652 461.731 234.512C461.671 234.372 461.641 234.222 461.641 234.062C461.641 233.897 461.671 233.742 461.731 233.597C461.796 233.452 461.881 233.327 461.986 233.222C462.091 233.117 462.213 233.035 462.353 232.975C462.498 232.91 462.651 232.877 462.811 232.877C462.976 232.877 463.131 232.91 463.276 232.975C463.421 233.035 463.546 233.117 463.651 233.222C463.761 233.327 463.848 233.452 463.913 233.597C463.978 233.742 464.011 233.897 464.011 234.062ZM472.248 244C472.008 244 471.85 243.887 471.775 243.662L471.625 242.92C471.465 243.1 471.298 243.262 471.123 243.407C470.948 243.552 470.758 243.677 470.553 243.782C470.353 243.887 470.135 243.967 469.9 244.023C469.67 244.083 469.42 244.113 469.15 244.113C468.73 244.113 468.345 244.025 467.995 243.85C467.645 243.675 467.343 243.422 467.088 243.092C466.838 242.757 466.643 242.345 466.503 241.855C466.368 241.365 466.3 240.805 466.3 240.175C466.3 239.605 466.378 239.075 466.533 238.585C466.688 238.095 466.91 237.67 467.2 237.31C467.49 236.95 467.838 236.67 468.243 236.47C468.648 236.265 469.103 236.162 469.608 236.162C470.038 236.162 470.405 236.232 470.71 236.372C471.015 236.507 471.288 236.69 471.528 236.92V232.855H473.38V244H472.248ZM469.78 242.642C470.165 242.642 470.493 242.562 470.763 242.402C471.033 242.242 471.288 242.015 471.528 241.72V238.27C471.318 238.015 471.088 237.835 470.838 237.73C470.593 237.625 470.328 237.572 470.043 237.572C469.763 237.572 469.508 237.625 469.278 237.73C469.053 237.835 468.86 237.995 468.7 238.21C468.545 238.42 468.425 238.69 468.34 239.02C468.255 239.345 468.213 239.73 468.213 240.175C468.213 240.625 468.248 241.007 468.318 241.322C468.393 241.632 468.498 241.887 468.633 242.087C468.768 242.282 468.933 242.425 469.128 242.515C469.323 242.6 469.54 242.642 469.78 242.642ZM482.417 244H481.585C481.41 244 481.272 243.975 481.172 243.925C481.072 243.87 480.997 243.762 480.947 243.602L480.782 243.055C480.587 243.23 480.395 243.385 480.205 243.52C480.02 243.65 479.827 243.76 479.627 243.85C479.427 243.94 479.215 244.008 478.99 244.053C478.765 244.098 478.515 244.12 478.24 244.12C477.915 244.12 477.615 244.078 477.34 243.992C477.065 243.902 476.827 243.77 476.627 243.595C476.432 243.42 476.28 243.202 476.17 242.942C476.06 242.682 476.005 242.38 476.005 242.035C476.005 241.745 476.08 241.46 476.23 241.18C476.385 240.895 476.64 240.64 476.995 240.415C477.35 240.185 477.822 239.995 478.412 239.845C479.002 239.695 479.735 239.61 480.61 239.59V239.14C480.61 238.625 480.5 238.245 480.28 238C480.065 237.75 479.75 237.625 479.335 237.625C479.035 237.625 478.785 237.66 478.585 237.73C478.385 237.8 478.21 237.88 478.06 237.97C477.915 238.055 477.78 238.132 477.655 238.202C477.53 238.272 477.392 238.307 477.242 238.307C477.117 238.307 477.01 238.275 476.92 238.21C476.83 238.145 476.757 238.065 476.702 237.97L476.365 237.377C477.25 236.567 478.317 236.162 479.567 236.162C480.017 236.162 480.417 236.237 480.767 236.387C481.122 236.532 481.422 236.737 481.667 237.002C481.912 237.262 482.097 237.575 482.222 237.94C482.352 238.305 482.417 238.705 482.417 239.14V244ZM478.817 242.845C479.007 242.845 479.182 242.827 479.342 242.792C479.502 242.757 479.652 242.705 479.792 242.635C479.937 242.565 480.075 242.48 480.205 242.38C480.34 242.275 480.475 242.152 480.61 242.012V240.715C480.07 240.74 479.617 240.787 479.252 240.857C478.892 240.922 478.602 241.007 478.382 241.112C478.162 241.217 478.005 241.34 477.91 241.48C477.82 241.62 477.775 241.772 477.775 241.937C477.775 242.262 477.87 242.495 478.06 242.635C478.255 242.775 478.507 242.845 478.817 242.845ZM490.654 244C490.414 244 490.257 243.887 490.182 243.662L490.032 242.92C489.872 243.1 489.704 243.262 489.529 243.407C489.354 243.552 489.164 243.677 488.959 243.782C488.759 243.887 488.542 243.967 488.307 244.023C488.077 244.083 487.827 244.113 487.557 244.113C487.137 244.113 486.752 244.025 486.402 243.85C486.052 243.675 485.749 243.422 485.494 243.092C485.244 242.757 485.049 242.345 484.909 241.855C484.774 241.365 484.707 240.805 484.707 240.175C484.707 239.605 484.784 239.075 484.939 238.585C485.094 238.095 485.317 237.67 485.607 237.31C485.897 236.95 486.244 236.67 486.649 236.47C487.054 236.265 487.509 236.162 488.014 236.162C488.444 236.162 488.812 236.232 489.117 236.372C489.422 236.507 489.694 236.69 489.934 236.92V232.855H491.787V244H490.654ZM488.187 242.642C488.572 242.642 488.899 242.562 489.169 242.402C489.439 242.242 489.694 242.015 489.934 241.72V238.27C489.724 238.015 489.494 237.835 489.244 237.73C488.999 237.625 488.734 237.572 488.449 237.572C488.169 237.572 487.914 237.625 487.684 237.73C487.459 237.835 487.267 237.995 487.107 238.21C486.952 238.42 486.832 238.69 486.747 239.02C486.662 239.345 486.619 239.73 486.619 240.175C486.619 240.625 486.654 241.007 486.724 241.322C486.799 241.632 486.904 241.887 487.039 242.087C487.174 242.282 487.339 242.425 487.534 242.515C487.729 242.6 487.947 242.642 488.187 242.642ZM497.974 236.185C498.459 236.185 498.904 236.262 499.309 236.417C499.719 236.572 500.071 236.8 500.366 237.1C500.661 237.395 500.891 237.76 501.056 238.195C501.221 238.625 501.304 239.117 501.304 239.672C501.304 239.812 501.296 239.93 501.281 240.025C501.271 240.115 501.249 240.187 501.214 240.242C501.184 240.292 501.141 240.33 501.086 240.355C501.031 240.375 500.961 240.385 500.876 240.385H496.121C496.176 241.175 496.389 241.755 496.759 242.125C497.129 242.495 497.619 242.68 498.229 242.68C498.529 242.68 498.786 242.645 499.001 242.575C499.221 242.505 499.411 242.427 499.571 242.342C499.736 242.257 499.879 242.18 499.999 242.11C500.124 242.04 500.244 242.005 500.359 242.005C500.434 242.005 500.499 242.02 500.554 242.05C500.609 242.08 500.656 242.122 500.696 242.177L501.236 242.852C501.031 243.092 500.801 243.295 500.546 243.46C500.291 243.62 500.024 243.75 499.744 243.85C499.469 243.945 499.186 244.013 498.896 244.053C498.611 244.093 498.334 244.113 498.064 244.113C497.529 244.113 497.031 244.025 496.571 243.85C496.111 243.67 495.711 243.407 495.371 243.062C495.031 242.712 494.764 242.282 494.569 241.772C494.374 241.257 494.276 240.662 494.276 239.987C494.276 239.462 494.361 238.97 494.531 238.51C494.701 238.045 494.944 237.642 495.259 237.302C495.579 236.957 495.966 236.685 496.421 236.485C496.881 236.285 497.399 236.185 497.974 236.185ZM498.011 237.512C497.471 237.512 497.049 237.665 496.744 237.97C496.439 238.275 496.244 238.707 496.159 239.267H499.639C499.639 239.027 499.606 238.802 499.541 238.592C499.476 238.377 499.376 238.19 499.241 238.03C499.106 237.87 498.936 237.745 498.731 237.655C498.526 237.56 498.286 237.512 498.011 237.512ZM508.374 237.805C508.324 237.885 508.271 237.942 508.216 237.977C508.161 238.007 508.091 238.022 508.006 238.022C507.916 238.022 507.819 237.997 507.714 237.947C507.614 237.897 507.496 237.842 507.361 237.782C507.226 237.717 507.071 237.66 506.896 237.61C506.726 237.56 506.524 237.535 506.289 237.535C505.924 237.535 505.636 237.612 505.426 237.767C505.216 237.922 505.111 238.125 505.111 238.375C505.111 238.54 505.164 238.68 505.269 238.795C505.379 238.905 505.521 239.002 505.696 239.087C505.876 239.172 506.079 239.25 506.304 239.32C506.529 239.385 506.759 239.457 506.994 239.537C507.229 239.617 507.459 239.71 507.684 239.815C507.909 239.915 508.109 240.045 508.284 240.205C508.464 240.36 508.606 240.547 508.711 240.767C508.821 240.987 508.876 241.252 508.876 241.562C508.876 241.932 508.809 242.275 508.674 242.59C508.539 242.9 508.341 243.17 508.081 243.4C507.821 243.625 507.499 243.802 507.114 243.932C506.734 244.058 506.296 244.12 505.801 244.12C505.536 244.12 505.276 244.095 505.021 244.045C504.771 244 504.529 243.935 504.294 243.85C504.064 243.765 503.849 243.665 503.649 243.55C503.454 243.435 503.281 243.31 503.131 243.175L503.559 242.47C503.614 242.385 503.679 242.32 503.754 242.275C503.829 242.23 503.924 242.207 504.039 242.207C504.154 242.207 504.261 242.24 504.361 242.305C504.466 242.37 504.586 242.44 504.721 242.515C504.856 242.59 505.014 242.66 505.194 242.725C505.379 242.79 505.611 242.822 505.891 242.822C506.111 242.822 506.299 242.797 506.454 242.747C506.614 242.692 506.744 242.622 506.844 242.537C506.949 242.452 507.024 242.355 507.069 242.245C507.119 242.13 507.144 242.012 507.144 241.892C507.144 241.712 507.089 241.565 506.979 241.45C506.874 241.335 506.731 241.235 506.551 241.15C506.376 241.065 506.174 240.99 505.944 240.925C505.719 240.855 505.486 240.78 505.246 240.7C505.011 240.62 504.779 240.527 504.549 240.422C504.324 240.312 504.121 240.175 503.941 240.01C503.766 239.845 503.624 239.642 503.514 239.402C503.409 239.162 503.356 238.872 503.356 238.532C503.356 238.217 503.419 237.917 503.544 237.632C503.669 237.347 503.851 237.1 504.091 236.89C504.336 236.675 504.639 236.505 504.999 236.38C505.364 236.25 505.784 236.185 506.259 236.185C506.789 236.185 507.271 236.272 507.706 236.447C508.141 236.622 508.504 236.852 508.794 237.137L508.374 237.805Z" fill="#81776D"/>
<path d="M354.879 227.249C354.879 227.638 354.754 227.953 354.505 228.195C354.263 228.437 353.856 228.558 353.284 228.558H348.906L348.334 231.88C349.053 231.733 349.709 231.66 350.303 231.66C351.139 231.66 351.872 231.785 352.503 232.034C353.141 232.283 353.676 232.628 354.109 233.068C354.542 233.508 354.868 234.025 355.088 234.619C355.308 235.206 355.418 235.84 355.418 236.522C355.418 237.365 355.268 238.135 354.967 238.832C354.674 239.529 354.263 240.126 353.735 240.625C353.207 241.116 352.58 241.498 351.854 241.769C351.135 242.04 350.351 242.176 349.5 242.176C349.001 242.176 348.528 242.125 348.081 242.022C347.634 241.919 347.212 241.784 346.816 241.615C346.427 241.439 346.064 241.241 345.727 241.021C345.397 240.794 345.1 240.555 344.836 240.306L345.672 239.151C345.848 238.902 346.083 238.777 346.376 238.777C346.559 238.777 346.743 238.836 346.926 238.953C347.117 239.07 347.337 239.199 347.586 239.338C347.835 239.477 348.125 239.606 348.455 239.723C348.785 239.84 349.185 239.899 349.654 239.899C350.153 239.899 350.593 239.818 350.974 239.657C351.355 239.496 351.671 239.272 351.92 238.986C352.177 238.693 352.367 238.348 352.492 237.952C352.624 237.549 352.69 237.112 352.69 236.643C352.69 235.778 352.437 235.103 351.931 234.619C351.432 234.128 350.695 233.882 349.72 233.882C348.95 233.882 348.176 234.021 347.399 234.3L345.705 233.816L347.025 226.094H354.879V227.249ZM365.781 229.944C365.781 230.545 365.678 231.088 365.473 231.572C365.275 232.056 365.007 232.47 364.67 232.815C364.332 233.152 363.94 233.413 363.493 233.596C363.045 233.779 362.58 233.871 362.096 233.871C361.568 233.871 361.08 233.779 360.633 233.596C360.185 233.413 359.797 233.152 359.467 232.815C359.144 232.47 358.891 232.056 358.708 231.572C358.524 231.088 358.433 230.545 358.433 229.944C358.433 229.328 358.524 228.771 358.708 228.272C358.891 227.773 359.144 227.352 359.467 227.007C359.797 226.662 360.185 226.398 360.633 226.215C361.08 226.024 361.568 225.929 362.096 225.929C362.624 225.929 363.111 226.024 363.559 226.215C364.013 226.398 364.406 226.662 364.736 227.007C365.066 227.352 365.322 227.773 365.506 228.272C365.689 228.771 365.781 229.328 365.781 229.944ZM363.68 229.944C363.68 229.519 363.639 229.163 363.559 228.877C363.478 228.591 363.364 228.36 363.218 228.184C363.078 228.008 362.91 227.883 362.712 227.81C362.521 227.729 362.316 227.689 362.096 227.689C361.876 227.689 361.67 227.729 361.48 227.81C361.289 227.883 361.124 228.008 360.985 228.184C360.845 228.36 360.735 228.591 360.655 228.877C360.581 229.163 360.545 229.519 360.545 229.944C360.545 230.355 360.581 230.699 360.655 230.978C360.735 231.249 360.845 231.469 360.985 231.638C361.124 231.807 361.289 231.928 361.48 232.001C361.67 232.074 361.876 232.111 362.096 232.111C362.316 232.111 362.521 232.074 362.712 232.001C362.91 231.928 363.078 231.807 363.218 231.638C363.364 231.469 363.478 231.249 363.559 230.978C363.639 230.699 363.68 230.355 363.68 229.944ZM371.072 226.523C371.16 226.413 371.27 226.314 371.402 226.226C371.534 226.138 371.717 226.094 371.952 226.094H373.921L362.107 241.593C362.019 241.71 361.905 241.809 361.766 241.89C361.634 241.963 361.472 242 361.282 242H359.258L371.072 226.523ZM374.757 238.26C374.757 238.861 374.654 239.404 374.449 239.888C374.251 240.372 373.983 240.786 373.646 241.131C373.308 241.468 372.916 241.732 372.469 241.923C372.021 242.106 371.556 242.198 371.072 242.198C370.544 242.198 370.056 242.106 369.609 241.923C369.161 241.732 368.773 241.468 368.443 241.131C368.12 240.786 367.867 240.372 367.684 239.888C367.5 239.404 367.409 238.861 367.409 238.26C367.409 237.644 367.5 237.087 367.684 236.588C367.867 236.089 368.12 235.668 368.443 235.323C368.773 234.978 369.161 234.714 369.609 234.531C370.056 234.34 370.544 234.245 371.072 234.245C371.6 234.245 372.087 234.34 372.535 234.531C372.989 234.714 373.382 234.978 373.712 235.323C374.042 235.668 374.298 236.089 374.482 236.588C374.665 237.087 374.757 237.644 374.757 238.26ZM372.667 238.26C372.667 237.835 372.623 237.479 372.535 237.193C372.454 236.907 372.34 236.676 372.194 236.5C372.054 236.324 371.886 236.199 371.688 236.126C371.497 236.045 371.292 236.005 371.072 236.005C370.852 236.005 370.646 236.045 370.456 236.126C370.265 236.199 370.1 236.324 369.961 236.5C369.829 236.676 369.722 236.907 369.642 237.193C369.561 237.479 369.521 237.835 369.521 238.26C369.521 238.671 369.561 239.015 369.642 239.294C369.722 239.573 369.829 239.796 369.961 239.965C370.1 240.134 370.265 240.255 370.456 240.328C370.646 240.401 370.852 240.438 371.072 240.438C371.292 240.438 371.497 240.401 371.688 240.328C371.886 240.255 372.054 240.134 372.194 239.965C372.34 239.796 372.454 239.573 372.535 239.294C372.623 239.015 372.667 238.671 372.667 238.26Z" fill="#4F4941"/>
<path d="M351 256C347.053 256 343.167 255.027 339.686 253.166C336.206 251.306 333.237 248.615 331.045 245.334C328.852 242.052 327.502 238.28 327.116 234.352C326.729 230.425 327.317 226.462 328.827 222.816C330.337 219.169 332.724 215.952 335.775 213.448C338.825 210.944 342.447 209.231 346.318 208.461C350.189 207.691 354.19 207.888 357.967 209.033C361.744 210.179 365.18 212.239 367.971 215.029L364.511 218.489C362.289 216.267 359.554 214.627 356.547 213.715C353.54 212.803 350.354 212.646 347.272 213.259C344.19 213.872 341.307 215.236 338.878 217.23C336.449 219.223 334.549 221.785 333.347 224.688C332.144 227.591 331.676 230.746 331.984 233.873C332.292 237 333.367 240.003 335.113 242.616C336.858 245.228 339.221 247.37 341.993 248.851C344.764 250.333 347.858 251.108 351 251.108L351 256Z" fill="#4F4941"/>
<defs>
<clipPath id="clip0_105_192">
<rect width="53" height="63" fill="white" transform="translate(115.724 107.724)"/>
</clipPath>
</defs>
</svg>
