<svg width="90" height="90" viewBox="0 0 90 90" fill="none" xmlns="http://www.w3.org/2000/svg">
<path d="M78.75 37.5C79.2425 37.5001 79.7302 37.4032 80.1852 37.2148C80.6402 37.0264 81.0537 36.7502 81.4019 36.4019C81.7502 36.0537 82.0264 35.6402 82.2148 35.1852C82.4032 34.7302 82.5001 34.2425 82.5 33.75V22.5C82.5003 21.7132 82.2529 20.9462 81.7927 20.3079C81.3326 19.6696 80.6832 19.1925 79.9365 18.9441L46.1865 7.69409C45.4163 7.43774 44.5837 7.43774 43.8135 7.69409L10.0635 18.9441C9.31685 19.1925 8.66741 19.6696 8.20727 20.3079C7.74714 20.9462 7.49968 21.7132 7.5 22.5V33.75C7.49987 34.2425 7.59678 34.7302 7.78519 35.1852C7.9736 35.6402 8.24982 36.0537 8.59806 36.4019C8.94631 36.7502 9.35976 37.0264 9.81479 37.2148C10.2698 37.4032 10.7575 37.5001 11.25 37.5H15V64.441C12.8128 65.2114 10.9176 66.64 9.57475 68.5306C8.23189 70.4212 7.50713 72.681 7.5 75V82.5C7.49987 82.9925 7.59678 83.4802 7.78519 83.9352C7.9736 84.3902 8.24982 84.8037 8.59806 85.1519C8.94631 85.5002 9.35976 85.7764 9.81479 85.9648C10.2698 86.1532 10.7575 86.2501 11.25 86.25H78.75C79.2425 86.2501 79.7302 86.1532 80.1852 85.9648C80.6402 85.7764 81.0537 85.5002 81.4019 85.1519C81.7502 84.8037 82.0264 84.3902 82.2148 83.9352C82.4032 83.4802 82.5001 82.9925 82.5 82.5V75C82.4929 72.681 81.7681 70.4212 80.4252 68.5306C79.0824 66.64 77.1872 65.2114 75 64.441V37.5H78.75ZM75 78.75H15V75C15.001 74.0057 15.3964 73.0525 16.0994 72.3494C16.8025 71.6464 17.7557 71.251 18.75 71.25H71.25C72.2443 71.251 73.1975 71.6464 73.9006 72.3494C74.6036 73.0525 74.999 74.0057 75 75V78.75ZM22.5 63.75V37.5H30V63.75H22.5ZM37.5 63.75V37.5H52.5V63.75H37.5ZM60 63.75V37.5H67.5V63.75H60ZM15 30V25.2026L45 15.2014L75 25.2026V30H15Z" fill="black"/>
</svg>
