<svg width="79" height="79" viewBox="0 0 79 79" fill="none" xmlns="http://www.w3.org/2000/svg">
<g id="Integridade">
<path id="Vector" d="M69.1249 32.9167C69.5572 32.9168 69.9853 32.8317 70.3847 32.6663C70.7841 32.501 71.147 32.2585 71.4527 31.9528C71.7584 31.6471 72.0009 31.2842 72.1662 30.8848C72.3316 30.4854 72.4167 30.0573 72.4166 29.625V19.75C72.4169 19.0593 72.1996 18.3861 71.7958 17.8259C71.3919 17.2656 70.8218 16.8467 70.1664 16.6287L40.5414 6.75372C39.8653 6.52871 39.1345 6.52871 38.4584 6.75372L8.8334 16.6287C8.17804 16.8467 7.60798 17.2656 7.20408 17.8259C6.80018 18.3861 6.58297 19.0593 6.58325 19.75V29.625C6.58314 30.0573 6.6682 30.4854 6.83359 30.8848C6.99897 31.2842 7.24143 31.6471 7.54711 31.9528C7.85279 32.2585 8.21571 32.501 8.61512 32.6663C9.01453 32.8317 9.44262 32.9168 9.87492 32.9167H13.1666V56.5649C11.2467 57.2412 9.58316 58.4951 8.40442 60.1546C7.22568 61.8141 6.58951 63.7978 6.58325 65.8333V72.4167C6.58314 72.849 6.6682 73.2771 6.83359 73.6765C6.99897 74.0759 7.24143 74.4388 7.54711 74.7445C7.85279 75.0502 8.21571 75.2926 8.61512 75.458C9.01453 75.6234 9.44262 75.7085 9.87492 75.7084H69.1249C69.5572 75.7085 69.9853 75.6234 70.3847 75.458C70.7841 75.2926 71.147 75.0502 71.4527 74.7445C71.7584 74.4388 72.0009 74.0759 72.1662 73.6765C72.3316 73.2771 72.4167 72.849 72.4166 72.4167V65.8333C72.4103 63.7978 71.7742 61.8141 70.5954 60.1546C69.4167 58.4951 67.7532 57.2412 65.8332 56.5649V32.9167H69.1249ZM65.8332 69.125H13.1666V65.8333C13.1675 64.9606 13.5145 64.1239 14.1317 63.5068C14.7488 62.8896 15.5855 62.5426 16.4583 62.5417H62.5416C63.4143 62.5426 64.2511 62.8896 64.8682 63.5068C65.4853 64.1239 65.8324 64.9606 65.8332 65.8333V69.125ZM19.7499 55.9583V32.9167H26.3333V55.9583H19.7499ZM32.9166 55.9583V32.9167H46.0833V55.9583H32.9166ZM52.6666 55.9583V32.9167H59.2499V55.9583H52.6666ZM13.1666 26.3333V22.1223L39.4999 13.3434L65.8332 22.1223V26.3333H13.1666Z" fill="white"/>
</g>
</svg>
