<svg width="68" height="93" viewBox="0 0 68 93" fill="none" xmlns="http://www.w3.org/2000/svg">
<g clip-path="url(#clip0_89_206)">
<path d="M33.73 12.82C28.66 12.82 24.07 14.87 20.75 18.19C17.43 21.51 15.37 26.1 15.37 31.17C15.37 36.24 17.42 40.83 20.75 44.15C24.07 47.47 28.66 49.53 33.73 49.53C38.8 49.53 43.38 47.48 46.71 44.15C50.03 40.83 52.09 36.24 52.09 31.17C52.09 26.1 50.04 21.51 46.71 18.19C43.39 14.87 38.8 12.82 33.73 12.82ZM33.73 0C42.34 0 50.13 3.49 55.77 9.13C61.41 14.77 64.9 22.56 64.9 31.17C64.9 35.19 64.14 39.04 62.75 42.57C60.47 48.38 50.64 63.15 46.78 68.06C42.88 73.02 38.49 77.65 33.77 82.07C29.23 77.39 25.01 72.62 21.21 67.72C17.18 62.53 7.21999 48.77 4.83999 42.93C3.36999 39.31 2.54999 35.34 2.54999 31.18C2.54999 22.57 6.03999 14.78 11.68 9.14C17.32 3.49 25.12 0 33.73 0Z" fill="#5E1C26"/>
<path d="M54.81 69.22C58.62 70.34 61.65 71.75 63.76 73.34C66.16 75.14 67.45 77.23 67.45 79.45C67.45 83.36 63.42 86.72 56.91 89C50.94 91.09 42.74 92.38 33.72 92.38C24.7 92.38 16.5 91.09 10.53 89C4.01999 86.72 -0.0100098 83.36 -0.0100098 79.45C-0.0100098 77.11 1.40999 74.94 4.03999 73.08C6.35999 71.44 9.68999 69.99 13.83 68.88L14.73 72.24C10.97 73.25 8.01999 74.51 6.04999 75.9C4.38999 77.08 3.48999 78.29 3.48999 79.44C3.48999 81.71 6.61999 83.94 11.69 85.71C17.3 87.67 25.09 88.88 33.73 88.88C42.37 88.88 50.17 87.67 55.77 85.71C60.83 83.94 63.97 81.71 63.97 79.44C63.97 78.36 63.17 77.23 61.69 76.11C59.91 74.77 57.25 73.56 53.84 72.55L54.82 69.21L54.81 69.22Z" fill="#C7A673"/>
</g>
<defs>
<clipPath id="clip0_89_206">
<rect width="67.45" height="92.38" fill="white"/>
</clipPath>
</defs>
</svg>
