<svg width="57" height="32" viewBox="0 0 57 32" fill="none" xmlns="http://www.w3.org/2000/svg">
<path d="M52.25 16.0028C52.25 16.0028 41.0891 16.0028 33.2243 24.1974C34.7254 21.7872 35.5472 18.9696 35.5472 16.0028C35.5472 13.036 34.7225 10.2184 33.2215 7.80542C41.2318 15.8594 52.25 16.0028 52.25 16.0028Z" fill="#C7A673"/>
<path d="M4.75 16C4.75 8.6375 10.6886 2.66663 18.0112 2.66663C25.3338 2.66663 31.2724 8.6375 31.2724 16" fill="#A16970"/>
<path d="M31.2752 16C31.2752 23.3653 25.3367 29.3333 18.014 29.3333C10.6914 29.3333 4.75 23.3653 4.75 16" fill="#A16970"/>
<path d="M4.75 16C4.75 8.6375 10.6886 2.66663 18.0112 2.66663C25.3338 2.66663 31.2724 8.6375 31.2724 16C31.2724 23.3624 25.3338 29.3333 18.0112 29.3333C10.6886 29.3333 4.75 23.3653 4.75 16Z" stroke="#F7F7F0" stroke-width="2" stroke-miterlimit="10"/>
<path d="M13.0625 15.9999C13.0625 18.9449 15.3226 21.3333 18.1094 21.3333C20.8962 21.3333 23.1562 18.9449 23.1562 15.9999C23.1562 13.0549 20.8962 10.6666 18.1094 10.6666C15.3226 10.6666 13.0625 13.0538 13.0625 15.9999Z" fill="#C7A572" stroke="white" stroke-width="2" stroke-miterlimit="10"/>
</svg>
