<svg width="79" height="57" viewBox="0 0 79 57" fill="none" xmlns="http://www.w3.org/2000/svg">
<g id="Previdenci&#195;&#161;rio" clip-path="url(#clip0_57_568)">
<g id="Conte&#195;&#186;do">
<g id="Group">
<g id="Group_2">
<path id="Vector" d="M39.5026 57C49.7022 57 59.2797 53.3068 66.7228 46.3614C73.5573 39.9886 78.1097 31.2075 79 21.3246C74.954 19.6636 70.6246 19.0228 66.3657 19.3624C61.7077 19.7385 57.1503 21.3013 53.158 24.0092C44.4456 29.9293 40.262 40.7193 39.5026 50.7687C38.7413 40.7193 34.5544 29.9293 25.842 24.0092C21.8547 21.3013 17.2906 19.7385 12.6327 19.3624C8.37526 19.0228 4.04435 19.6636 0 21.3246C0.888688 31.2075 5.44272 39.9886 12.2772 46.3614C19.7203 53.3068 29.2978 57 39.5026 57Z" fill="#5E1F28"/>
<g id="Clip path group">
<mask id="mask0_57_568" style="mask-type:luminance" maskUnits="userSpaceOnUse" x="0" y="19" width="79" height="38">
<g id="clippath">
<path id="Vector_2" d="M39.5026 57C49.7022 57 59.2797 53.3068 66.7228 46.3614C73.5573 39.9886 78.1097 31.2075 79 21.3246C74.954 19.6636 70.6246 19.0228 66.3657 19.3624C61.7077 19.7385 57.1503 21.3013 53.158 24.0092C44.4456 29.9293 40.262 40.7193 39.5026 50.7687C38.7413 40.7193 34.5544 29.9293 25.842 24.0092C21.8547 21.3013 17.2906 19.7385 12.6327 19.3624C8.37526 19.0228 4.04435 19.6636 0 21.3246C0.888688 31.2075 5.44272 39.9886 12.2772 46.3614C19.7203 53.3068 29.2978 57 39.5026 57Z" fill="white"/>
</g>
</mask>
<g mask="url(#mask0_57_568)">
<g id="Group_3">
<path id="Vector_3" d="M79 19.0228H0V57H79V19.0228Z" fill="#5E1F28"/>
</g>
</g>
</g>
</g>
<path id="Vector_4" d="M53.1941 19.6193C52.4687 20.0325 51.7553 20.4809 51.0537 20.9414C46.9748 23.7153 43.6929 27.3624 41.3979 31.5409C41.386 31.5527 41.386 31.5645 41.3741 31.5763V31.5409H41.3265L41.3383 31.5763H37.5926L37.6163 31.5409C35.3094 27.3742 32.0274 23.7268 27.9486 20.9414C27.247 20.4809 26.5335 20.0325 25.8081 19.6193C26.8903 15.8422 28.6264 12.3366 30.8976 9.23243C33.2521 5.9983 36.1655 3.20072 39.507 0.981812C42.8247 3.20072 45.75 5.9983 48.1045 9.23243C50.3639 12.3366 52.112 15.8422 53.1941 19.6193Z" fill="#5E1F28"/>
</g>
</g>
</g>
<defs>
<clipPath id="clip0_57_568">
<rect width="79" height="56.0182" fill="white" transform="translate(0 0.981812)"/>
</clipPath>
</defs>
</svg>
