<svg width="116" height="116" viewBox="0 0 116 116" fill="none" xmlns="http://www.w3.org/2000/svg">
<g clip-path="url(#clip0_427_284)">
<circle cx="58" cy="58" r="57" stroke="#C7A572" stroke-width="2"/>
<g clip-path="url(#clip1_427_284)">
<path d="M58.5026 97C68.7022 97 78.2797 93.3068 85.7228 86.3615C92.5573 79.9887 97.1097 71.2076 98 61.3247C93.954 59.6637 89.6246 59.0229 85.3657 59.3624C80.7077 59.7385 76.1503 61.3014 72.158 64.0093C63.4456 69.9294 59.262 80.7193 58.5026 90.7687C57.7413 80.7194 53.5544 69.9294 44.842 64.0093C40.8547 61.3014 36.2906 59.7386 31.6327 59.3624C27.3753 59.0228 23.0443 59.6636 19 61.3247C19.8887 71.2076 24.4427 79.9887 31.2772 86.3615C38.7203 93.3068 48.2978 97 58.5026 97Z" fill="#5E1F28"/>
<mask id="mask0_427_284" style="mask-type:luminance" maskUnits="userSpaceOnUse" x="19" y="59" width="79" height="38">
<path d="M58.5026 97C68.7022 97 78.2797 93.3068 85.7228 86.3615C92.5573 79.9887 97.1097 71.2076 98 61.3247C93.954 59.6637 89.6246 59.0229 85.3657 59.3624C80.7077 59.7385 76.1503 61.3014 72.158 64.0093C63.4456 69.9294 59.262 80.7193 58.5026 90.7687C57.7413 80.7194 53.5544 69.9294 44.842 64.0093C40.8547 61.3014 36.2906 59.7386 31.6327 59.3624C27.3753 59.0228 23.0443 59.6636 19 61.3247C19.8887 71.2076 24.4427 79.9887 31.2772 86.3615C38.7203 93.3068 48.2978 97 58.5026 97Z" fill="white"/>
</mask>
<g mask="url(#mask0_427_284)">
<path d="M98 59.0229H19V97.0001H98V59.0229Z" fill="#5E1F28"/>
</g>
<path d="M72.1941 59.6193C71.4688 60.0325 70.7553 60.4809 70.0537 60.9414C65.9749 63.7153 62.6929 67.3624 60.3979 71.5409C60.386 71.5527 60.386 71.5645 60.3741 71.5763V71.5409H60.3265L60.3384 71.5763H56.5926L56.6163 71.5409C54.3094 67.3742 51.0274 63.7268 46.9486 60.9414C46.247 60.4809 45.5336 60.0325 44.8081 59.6193C45.8903 55.8422 47.6264 52.3366 49.8977 49.2324C52.2522 45.9983 55.1656 43.2007 58.5071 40.9818C61.8247 43.2007 64.7501 45.9983 67.1045 49.2324C69.3639 52.3366 71.112 55.8422 72.1941 59.6193Z" fill="#5E1F28"/>
</g>
</g>
<defs>
<clipPath id="clip0_427_284">
<rect width="116" height="116" fill="white"/>
</clipPath>
<clipPath id="clip1_427_284">
<rect width="79" height="56.0182" fill="white" transform="translate(19 40.9818)"/>
</clipPath>
</defs>
</svg>
