<svg width="116" height="116" viewBox="0 0 116 116" fill="none" xmlns="http://www.w3.org/2000/svg">
<g clip-path="url(#clip0_427_319)">
<circle cx="58" cy="58" r="57" stroke="#C7A572" stroke-width="2"/>
<g clip-path="url(#clip1_427_319)">
<path d="M18.5 56.4189C19.5463 36.2307 35.7254 20.0462 55.9152 19V33.727H52.2265C50.2949 33.727 48.7166 35.3052 48.7166 37.2366V49.2207H36.7337C34.8066 49.2207 33.2215 50.7967 33.2215 52.7304V56.4189H18.5Z" fill="#5E1F28"/>
<mask id="mask0_427_319" style="mask-type:luminance" maskUnits="userSpaceOnUse" x="18" y="19" width="38" height="38">
<path d="M18.5 56.4189C19.5463 36.2307 35.7254 20.0462 55.9152 19V33.727H52.2265C50.2949 33.727 48.7166 35.3052 48.7166 37.2366V49.2207H36.7337C34.8066 49.2207 33.2215 50.7967 33.2215 52.7304V56.4189H18.5Z" fill="white"/>
</mask>
<g mask="url(#mask0_427_319)">
<path d="M55.9152 19H18.5V56.4188H55.9152V19Z" fill="#5E1F28"/>
</g>
<path d="M55.9152 98C35.7254 96.9538 19.5463 80.7693 18.5 60.5812H33.2215V64.2764C33.2215 66.2033 34.8066 67.7793 36.7337 67.7793H48.7166V79.7634C48.7166 81.6948 50.2949 83.2731 52.2265 83.2731H55.9152V98Z" fill="#5E1F28"/>
<mask id="mask1_427_319" style="mask-type:luminance" maskUnits="userSpaceOnUse" x="18" y="60" width="38" height="38">
<path d="M55.9152 98C35.7254 96.9538 19.5463 80.7693 18.5 60.5812H33.2215V64.2764C33.2215 66.2033 34.8066 67.7793 36.7337 67.7793H48.7166V79.7634C48.7166 81.6948 50.2949 83.2731 52.2265 83.2731H55.9152V98Z" fill="white"/>
</mask>
<g mask="url(#mask1_427_319)">
<path d="M55.9152 60.5812H18.5V98H55.9152V60.5812Z" fill="#5E1F28"/>
</g>
<path d="M97.5 60.5812C96.4537 80.7694 80.27 96.9539 60.078 98V83.2731H63.7735C65.7006 83.2731 67.2789 81.6948 67.2789 79.7634V67.7793H79.2685C81.1934 67.7793 82.7717 66.2033 82.7717 64.2764V60.5812L97.5 60.5812Z" fill="#5E1F28"/>
<mask id="mask2_427_319" style="mask-type:luminance" maskUnits="userSpaceOnUse" x="60" y="60" width="38" height="38">
<path d="M97.5 60.5812C96.4537 80.7694 80.27 96.9539 60.078 98V83.2731H63.7735C65.7006 83.2731 67.2789 81.6948 67.2789 79.7634V67.7793H79.2685C81.1934 67.7793 82.7717 66.2033 82.7717 64.2764V60.5812L97.5 60.5812Z" fill="white"/>
</mask>
<g mask="url(#mask2_427_319)">
<path d="M97.5 60.5812H60.078V98H97.5V60.5812Z" fill="#5E1F28"/>
</g>
<path d="M60.078 19C80.2678 20.0462 96.4537 36.2285 97.5 56.4189H82.7717V52.7237C82.7717 50.7967 81.1934 49.2185 79.2618 49.2185H67.2767V37.23C67.2767 35.3053 65.7005 33.727 63.7734 33.727H60.0779L60.078 19Z" fill="#5E1F28"/>
<mask id="mask3_427_319" style="mask-type:luminance" maskUnits="userSpaceOnUse" x="60" y="19" width="38" height="38">
<path d="M60.078 19C80.2678 20.0462 96.4537 36.2285 97.5 56.4189H82.7717V52.7237C82.7717 50.7967 81.1934 49.2185 79.2618 49.2185H67.2767V37.23C67.2767 35.3053 65.7005 33.727 63.7734 33.727H60.0779L60.078 19Z" fill="white"/>
</mask>
<g mask="url(#mask3_427_319)">
<path d="M97.4999 19H60.0779V56.4189H97.4999V19Z" fill="#5E1F28"/>
</g>
</g>
</g>
<defs>
<clipPath id="clip0_427_319">
<rect width="116" height="116" fill="white"/>
</clipPath>
<clipPath id="clip1_427_319">
<rect width="79" height="79" fill="white" transform="translate(18.5 19)"/>
</clipPath>
</defs>
</svg>
