<svg width="77" height="77" viewBox="0 0 77 77" fill="none" xmlns="http://www.w3.org/2000/svg">
<g id="Simplicidade">
<path id="Vector" d="M38.5001 16.0416C34.0582 16.0416 29.7161 17.3588 26.0229 19.8266C22.3296 22.2943 19.4511 25.8018 17.7513 29.9055C16.0514 34.0093 15.6067 38.5249 16.4733 42.8814C17.3398 47.2379 19.4788 51.2396 22.6196 54.3804C25.7605 57.5213 29.7622 59.6602 34.1187 60.5268C38.4751 61.3933 42.9908 60.9486 47.0945 59.2488C51.1982 57.549 54.7057 54.6704 57.1735 50.9772C59.6412 47.2839 60.9584 42.9418 60.9584 38.5C60.9584 32.5437 58.5922 26.8313 54.3805 22.6195C50.1687 18.4078 44.4564 16.0416 38.5001 16.0416ZM38.5001 54.5416C35.3273 54.5416 32.2258 53.6008 29.5878 51.8381C26.9497 50.0755 24.8936 47.5701 23.6795 44.6389C22.4653 41.7076 22.1477 38.4822 22.7666 35.3704C23.3856 32.2586 24.9134 29.4003 27.1569 27.1568C29.4003 24.9133 32.2587 23.3855 35.3705 22.7665C38.4823 22.1476 41.7077 22.4653 44.6389 23.6794C47.5702 24.8936 50.0755 26.9497 51.8382 29.5877C53.6009 32.2257 54.5417 35.3272 54.5417 38.5C54.5417 42.7545 52.8516 46.8348 49.8432 49.8432C46.8348 52.8515 42.7546 54.5416 38.5001 54.5416ZM38.5001 28.875C36.5964 28.875 34.7355 29.4395 33.1527 30.4971C31.5699 31.5547 30.3362 33.0579 29.6077 34.8167C28.8792 36.5754 28.6886 38.5107 29.06 40.3777C29.4314 42.2448 30.3481 43.9598 31.6941 45.3059C33.0402 46.652 34.7552 47.5687 36.6223 47.94C38.4894 48.3114 40.4246 48.1208 42.1834 47.3923C43.9421 46.6638 45.4453 45.4302 46.5029 43.8473C47.5606 42.2645 48.1251 40.4036 48.1251 38.5C48.1251 35.9473 47.111 33.4991 45.306 31.6941C43.5009 29.889 41.0528 28.875 38.5001 28.875ZM38.5001 41.7083C37.8655 41.7083 37.2452 41.5201 36.7176 41.1676C36.19 40.8151 35.7788 40.314 35.5359 39.7278C35.2931 39.1415 35.2296 38.4964 35.3534 37.8741C35.4772 37.2517 35.7827 36.68 36.2314 36.2313C36.6801 35.7826 37.2518 35.4771 37.8741 35.3533C38.4965 35.2295 39.1416 35.293 39.7278 35.5359C40.3141 35.7787 40.8151 36.1899 41.1677 36.7175C41.5202 37.2451 41.7084 37.8654 41.7084 38.5C41.7084 39.3509 41.3704 40.1669 40.7687 40.7686C40.167 41.3703 39.351 41.7083 38.5001 41.7083ZM38.5001 3.20831C31.52 3.20831 24.6967 5.27813 18.8931 9.15603C13.0894 13.0339 8.56595 18.5457 5.89481 24.9944C3.22367 31.4432 2.52477 38.5391 3.88651 45.385C5.24825 52.231 8.60945 58.5193 13.5451 63.455C18.4807 68.3906 24.7691 71.7518 31.615 73.1135C38.4609 74.4753 45.5569 73.7764 52.0056 71.1052C58.4543 68.4341 63.9661 63.9107 67.844 58.107C71.7219 52.3033 73.7917 45.48 73.7917 38.5C73.7917 29.14 70.0735 20.1635 63.455 13.545C56.8366 6.92653 47.86 3.20831 38.5001 3.20831ZM38.5001 67.375C32.7891 67.375 27.2064 65.6815 22.458 62.5087C17.7095 59.3358 14.0085 54.8262 11.823 49.55C9.63755 44.2737 9.06573 38.4679 10.1799 32.8667C11.294 27.2655 14.0441 22.1205 18.0823 18.0823C22.1206 14.044 27.2656 11.294 32.8668 10.1798C38.468 9.06566 44.2738 9.63748 49.55 11.823C54.8263 14.0084 59.3359 17.7094 62.5087 22.4579C65.6816 27.2064 67.3751 32.789 67.3751 38.5C67.3751 46.1581 64.3329 53.5026 58.9178 58.9177C53.5026 64.3328 46.1582 67.375 38.5001 67.375Z" fill="white"/>
</g>
</svg>
