<svg width="89" height="89" viewBox="0 0 89 89" fill="none" xmlns="http://www.w3.org/2000/svg">
<path d="M44.5 18.5417C39.3659 18.5417 34.3471 20.0641 30.0783 22.9165C25.8095 25.7688 22.4823 29.823 20.5176 34.5662C18.5529 39.3095 18.0388 44.5288 19.0404 49.5643C20.0421 54.5997 22.5143 59.225 26.1447 62.8554C29.775 66.4857 34.4004 68.958 39.4358 69.9596C44.4712 70.9612 49.6906 70.4471 54.4338 68.4824C59.1771 66.5177 63.2312 63.1905 66.0836 58.9217C68.9359 54.6529 70.4583 49.6341 70.4583 44.5C70.4583 37.6155 67.7234 31.0129 62.8553 26.1447C57.9872 21.2766 51.3846 18.5417 44.5 18.5417ZM44.5 63.0417C40.8328 63.0417 37.248 61.9543 34.1988 59.9169C31.1496 57.8795 28.7731 54.9837 27.3697 51.5956C25.9664 48.2076 25.5992 44.4795 26.3146 40.8827C27.03 37.286 28.796 33.9822 31.3891 31.3891C33.9822 28.796 37.286 27.0301 40.8827 26.3146C44.4794 25.5992 48.2075 25.9664 51.5956 27.3698C54.9836 28.7731 57.8794 31.1497 59.9168 34.1988C61.9542 37.248 63.0417 40.8328 63.0417 44.5C63.0417 49.4176 61.0882 54.1337 57.6109 57.611C54.1337 61.0882 49.4176 63.0417 44.5 63.0417ZM44.5 33.375C42.2997 33.375 40.1488 34.0275 38.3193 35.2499C36.4898 36.4724 35.0639 38.2099 34.2218 40.2427C33.3798 42.2755 33.1595 44.5124 33.5888 46.6704C34.018 48.8285 35.0776 50.8107 36.6334 52.3666C38.1893 53.9225 40.1716 54.982 42.3296 55.4113C44.4877 55.8405 46.7245 55.6202 48.7574 54.7782C50.7902 53.9362 52.5277 52.5103 53.7501 50.6808C54.9725 48.8513 55.625 46.7004 55.625 44.5C55.625 41.5495 54.4529 38.7198 52.3666 36.6335C50.2802 34.5471 47.4505 33.375 44.5 33.375ZM44.5 48.2084C43.7666 48.2084 43.0496 47.9909 42.4398 47.5834C41.8299 47.1759 41.3546 46.5968 41.0739 45.9192C40.7933 45.2416 40.7198 44.4959 40.8629 43.7766C41.006 43.0572 41.3592 42.3965 41.8778 41.8779C42.3964 41.3592 43.0572 41.006 43.7765 40.863C44.4959 40.7199 45.2415 40.7933 45.9191 41.074C46.5967 41.3547 47.1759 41.83 47.5834 42.4398C47.9908 43.0496 48.2083 43.7666 48.2083 44.5C48.2083 45.4836 47.8176 46.4268 47.1222 47.1222C46.4267 47.8177 45.4835 48.2084 44.5 48.2084ZM44.5 3.70837C36.4322 3.70837 28.5455 6.10076 21.8374 10.583C15.1292 15.0653 9.90084 21.436 6.81341 28.8897C3.72599 36.3434 2.91818 44.5453 4.49213 52.4581C6.06609 60.3709 9.95112 67.6393 15.6559 73.3441C21.3608 79.0489 28.6291 82.9339 36.5419 84.5079C44.4547 86.0819 52.6566 85.274 60.1103 82.1866C67.564 79.0992 73.9348 73.8708 78.417 67.1627C82.8993 60.4545 85.2917 52.5679 85.2917 44.5C85.2917 33.6814 80.994 23.3059 73.3441 15.656C65.6941 8.00606 55.3186 3.70837 44.5 3.70837ZM44.5 77.875C37.899 77.875 31.4463 75.9176 25.9578 72.2503C20.4694 68.583 16.1916 63.3706 13.6655 57.2721C11.1394 51.1736 10.4785 44.463 11.7663 37.9889C13.0541 31.5148 16.2327 25.5679 20.9003 20.9004C25.5679 16.2328 31.5147 13.0541 37.9889 11.7663C44.463 10.4785 51.1736 11.1395 57.2721 13.6656C63.3705 16.1916 68.583 20.4694 72.2503 25.9579C75.9176 31.4464 77.875 37.8991 77.875 44.5C77.875 53.3516 74.3587 61.8407 68.0997 68.0997C61.8407 74.3587 53.3516 77.875 44.5 77.875Z" fill="black"/>
</svg>
