<svg width="41" height="49" viewBox="0 0 41 49" fill="none" xmlns="http://www.w3.org/2000/svg">
<g id="S&#195;&#173;mbolo" clip-path="url(#clip0_428_889)">
<g id="Camada 1">
<g id="Group">
<path id="Vector" d="M13.6349 21.4537V32.3498C13.6349 34.4428 13.7565 35.9972 14.0002 37.013C14.2438 38.0287 14.6943 38.8651 15.3512 39.5215C15.9233 40.0963 16.5852 40.5219 17.3378 40.7989C18.0896 41.0759 19.0804 41.2452 20.3093 41.3068V42.0147H0V41.3068C1.22852 41.2452 2.2193 41.0759 2.97192 40.7989C3.72369 40.5219 4.38605 40.0963 4.95814 39.5215C5.63617 38.8651 6.0913 38.034 6.3248 37.0284C6.55788 36.0233 6.67441 34.4636 6.67441 32.3498V9.66493C6.67441 7.55178 6.55788 5.99205 6.3248 4.98637C6.0913 3.9813 5.63617 3.15023 4.95814 2.49318C4.38604 1.89831 3.7186 1.46739 2.95581 1.20042C2.19303 0.934069 1.20776 0.769501 0 0.70794V0H15.3194C17.8828 0 19.5673 0.0106699 20.3729 0.0307787C23.6571 0.174624 26.2315 0.605543 28.0961 1.32354C30.1938 2.14455 31.8198 3.37041 32.975 5.00175C34.1294 6.63309 34.707 8.52606 34.707 10.6807C34.707 13.8818 33.4564 16.4472 30.9566 18.3757C30.1938 18.9504 29.3518 19.4222 28.4296 19.7915C27.5084 20.1609 26.2735 20.5102 24.7271 20.8381C25.9984 21.3513 26.9409 21.8846 27.5558 22.4386C28.0432 22.8695 28.4881 23.4082 28.8907 24.0546C29.2929 24.701 29.8967 25.8452 30.7023 27.4866C32.5881 31.2417 34.0128 33.9865 34.9769 35.7202C35.941 37.4546 36.7517 38.7112 37.4085 39.4908C37.9378 40.1271 38.4519 40.5681 38.9502 40.8143C39.4477 41.0605 40.1308 41.2251 41 41.3068V42.0147H30.4481C29.9183 40.8865 29.5789 40.1679 29.431 39.8601L27.2062 34.9661C25.8713 32.0319 24.5254 29.4364 23.1698 27.1787C21.8137 24.9425 20.5742 23.4135 19.4512 22.5925C18.8791 22.1823 18.2642 21.8899 17.6078 21.7153C16.9509 21.5413 16.1457 21.4537 15.1923 21.4537L13.6349 21.4537ZM13.6349 20.7765H14.8426C17.4696 20.7765 19.3503 20.6333 20.4839 20.3456C21.6175 20.0585 22.682 19.4636 23.6783 18.5604C25.9031 16.5088 27.0155 13.9641 27.0155 10.9269C27.0155 9.30624 26.6922 7.78263 26.0463 6.35608C25.3997 4.93014 24.5047 3.75517 23.3605 2.83176C22.4705 2.13449 21.4107 1.64673 20.1822 1.36971C18.9532 1.09269 17.2052 0.954182 14.938 0.954182H13.6349L13.6349 20.7765Z" fill="#F8F7F0"/>
<path id="Vector_2" d="M41 48.0146H0V48.9115H41V48.0146Z" fill="#F8F7F0"/>
</g>
</g>
</g>
<defs>
<clipPath id="clip0_428_889">
<rect width="41" height="49" fill="white"/>
</clipPath>
</defs>
</svg>
