<?xml version="1.0" encoding="UTF-8"?>
<svg id="Logo" xmlns="http://www.w3.org/2000/svg" width="312.89639" height="386.13396" viewBox="0 0 312.89639 386.13396">
  <path d="m104.05626,169.06106v85.86458c0,16.49376.92818,28.74281,2.78777,36.74713,1.85959,8.00433,5.29741,14.59536,10.31022,19.76826,4.366,4.52932,9.41761,7.88305,15.16132,10.06605,5.73724,2.183,13.2985,3.51705,22.67731,4.00216v5.57877H.00002v-5.57877c9.37557-.48511,16.93683-1.81916,22.68054-4.00216,5.73724-2.183,10.79209-5.53673,15.15809-10.06605,5.17451-5.1729,8.64791-11.72189,10.42988-19.64698,1.77874-7.92024,2.66811-20.21133,2.66811-36.86841V76.16237c0-16.65223-.88937-28.94332-2.66811-36.86841-1.78197-7.92024-5.25537-14.46923-10.42988-19.64698-4.366-4.68779-9.45966-8.08356-15.28099-10.18732C16.73634,7.36075,9.21713,6.06388.00002,5.57877V0h116.91167c19.5629,0,32.41833.08409,38.5663.24256,25.06405,1.13354,44.71103,4.52932,58.94094,10.18732,16.00865,6.46976,28.41778,16.12993,37.23386,28.98536,8.80961,12.85543,13.21765,27.77258,13.21765,44.75146,0,25.22575-9.54374,45.44193-28.62153,60.63883-5.82133,4.52932-12.24743,8.24688-19.28477,11.15754-7.03087,2.91066-16.45495,5.66286-28.25608,8.24688,9.70221,4.04421,16.89479,8.24688,21.58742,12.61288,3.71918,3.39577,7.11496,7.64049,10.18732,12.73415,3.06913,5.09366,7.67768,14.11025,13.82565,27.04492,14.39162,29.59175,25.26456,51.22122,32.62207,64.88355,7.35751,13.66718,13.54429,23.56991,18.5571,29.71303,4.03935,5.01443,7.96228,8.48944,11.76555,10.42988,3.7968,1.94044,9.01012,3.23731,15.6432,3.88089v5.57877h-80.52837c-4.04259-8.89046-6.63308-14.55332-7.76177-16.97887l-16.97887-38.5663c-10.18732-23.12199-20.45873-43.57587-30.80453-61.3665-10.34903-17.62245-19.80868-29.67098-28.37897-36.14074-4.366-3.23245-9.05863-5.53673-14.06821-6.91283-5.01281-1.37125-11.15754-2.06172-18.4342-2.06172h-11.88521Zm0-5.33622h9.2171c20.04801,0,34.40081-1.12869,43.05195-3.39577,8.65114-2.26223,16.77513-6.95002,24.37843-14.06821,16.97887-16.16712,25.46831-36.21998,25.46831-60.15372,0-12.77135-2.4676-24.77783-7.39632-36.01947-4.93519-11.23678-11.76555-20.49592-20.49754-27.77258-6.79155-5.49469-14.87996-9.33838-24.25553-11.52138-9.37881-2.183-22.71935-3.2745-40.02163-3.2745h-9.94477v156.20563Z" style="fill: #5e2028;"/>
  <rect y="379.06622" width="312.89639" height="7.06774" style="fill: #c7a572;"/>
</svg>