<svg width="116" height="116" viewBox="0 0 116 116" fill="none" xmlns="http://www.w3.org/2000/svg">
<g clip-path="url(#clip0_427_282)">
<circle cx="58" cy="58" r="57" stroke="#C7A572" stroke-width="2"/>
<g clip-path="url(#clip1_427_282)">
<path d="M58.0014 39.2809C65.3294 39.2809 71.2687 45.0029 71.2687 52.0629C71.2687 59.1229 65.3294 64.8474 58.0014 64.8474C50.6708 64.8474 44.7313 59.1228 44.7313 52.0629C44.7313 45.0029 50.6708 39.2809 58.0014 39.2809ZM55.9439 97.4479C56.6261 97.4791 57.3083 97.5 58.0014 97.5C58.6917 97.5 59.3739 97.4791 60.0561 97.4479L62.3356 95.1188L60.3863 73.733H55.6138L53.673 95.1188L55.9439 97.4479ZM58.0014 18.5C35.354 18.5 17 36.1851 17 58.0014C17 70.0348 22.593 80.8138 31.4099 88.0589C34.0277 77.8354 42.8283 69.9539 53.7785 68.3213L55.6138 71.0493H60.3863L62.2272 68.3213C73.1774 69.9539 81.9809 77.8354 84.5958 88.0589C93.4127 80.8138 99 70.0348 99 58.0014C99 36.1851 80.6462 18.5 58.0014 18.5Z" fill="#5E1F28"/>
<mask id="mask0_427_282" style="mask-type:luminance" maskUnits="userSpaceOnUse" x="17" y="18" width="82" height="80">
<path d="M58.0014 39.2809C65.3294 39.2809 71.2687 45.0029 71.2687 52.0629C71.2687 59.1229 65.3294 64.8474 58.0014 64.8474C50.6708 64.8474 44.7313 59.1228 44.7313 52.0629C44.7313 45.0029 50.6708 39.2809 58.0014 39.2809ZM55.9439 97.4479C56.6261 97.4791 57.3083 97.5 58.0014 97.5C58.6917 97.5 59.3739 97.4791 60.0561 97.4479L62.3356 95.1188L60.3863 73.733H55.6138L53.673 95.1188L55.9439 97.4479ZM58.0014 18.5C35.354 18.5 17 36.1851 17 58.0014C17 70.0348 22.593 80.8138 31.4099 88.0589C34.0277 77.8354 42.8283 69.9539 53.7785 68.3213L55.6138 71.0493H60.3863L62.2272 68.3213C73.1774 69.9539 81.9809 77.8354 84.5958 88.0589C93.4127 80.8138 99 70.0348 99 58.0014C99 36.1851 80.6462 18.5 58.0014 18.5Z" fill="white"/>
</mask>
<g mask="url(#mask0_427_282)">
<path d="M99 18.5H17V97.5H99V18.5Z" fill="#5E1F28"/>
</g>
</g>
</g>
<defs>
<clipPath id="clip0_427_282">
<rect width="116" height="116" fill="white"/>
</clipPath>
<clipPath id="clip1_427_282">
<rect width="82" height="79" fill="white" transform="translate(17 18.5)"/>
</clipPath>
</defs>
</svg>
