<svg width="326" height="76" viewBox="0 0 326 76" fill="none" xmlns="http://www.w3.org/2000/svg">
<path fill-rule="evenodd" clip-rule="evenodd" d="M68.9876 60C62.1004 69.6833 50.7878 76 38 76C17.0132 76 0 58.9868 0 38C0 17.0132 17.0132 0 38 0C50.3422 0 61.3101 5.88405 68.2515 15H316C321.523 15 326 19.4772 326 25V50C326 55.5228 321.523 60 316 60H68.9876Z" fill="#C7A572"/>
<g clip-path="url(#clip0_649_1085)">
<path d="M49.0688 46.9676C47.2257 48.5743 44.9282 50.5699 40.7471 50.5699H38.2526C35.2329 50.5699 32.4809 49.4938 30.5166 47.5385C28.5977 45.6288 27.5373 43.0167 27.5373 40.1824V36.8277C27.5373 33.9933 28.5927 31.3763 30.5166 29.4715C32.4859 27.5163 35.2329 26.4402 38.2526 26.4402H40.7471C44.9282 26.4402 47.2257 28.4358 49.0688 30.0424C50.9826 31.7097 52.6339 33.1446 57.0422 33.1446C57.7239 33.1446 58.3955 33.089 59.0519 32.9879C59.0469 32.9728 59.0418 32.9627 59.0368 32.9526C58.7742 32.316 58.4662 31.6895 58.1127 31.0832L55.1688 26.0764C52.4672 21.4839 47.4732 18.6546 42.0701 18.6546H36.1822C30.7791 18.6546 25.7851 21.4839 23.0835 26.0764L20.1396 31.0832C17.4381 35.6758 17.4381 41.3343 20.1396 45.9269L23.0835 50.9337C25.7851 55.5262 30.7791 58.3555 36.1822 58.3555H42.0701C47.4732 58.3555 52.4672 55.5262 55.1688 50.9337L58.1127 45.9269C58.4662 45.3206 58.7742 44.6992 59.0368 44.0626C59.0418 44.0474 59.0469 44.0373 59.0519 44.0272C58.4005 43.9211 57.7289 43.8706 57.0422 43.8706C52.6389 43.8706 50.9826 45.3054 49.0688 46.9727" fill="#F8F7F0"/>
<path d="M40.7471 29.4766H38.2526C33.6524 29.4766 30.6327 32.7 30.6327 36.8277V40.1824C30.6327 44.3101 33.6524 47.5335 38.2526 47.5335H40.7471C47.4479 47.5335 46.9227 40.8291 57.0371 40.8291C58.0066 40.8291 58.9661 40.915 59.8952 41.0868C60.2032 39.3791 60.2032 37.6361 59.8952 35.9284C58.961 36.1002 58.0066 36.186 57.0371 36.186C46.9177 36.186 47.4479 29.4766 40.7471 29.4766Z" fill="#F8F7F0"/>
<path d="M65.7123 43.5321C63.9854 42.2791 62.0009 41.4657 59.9002 41.0817C59.9002 41.0969 59.8952 41.112 59.8901 41.1322C59.7084 42.1124 59.4306 43.0824 59.0469 44.0222C60.8193 44.3051 62.4554 44.9568 63.8541 45.9622C63.849 45.9774 63.844 45.9926 63.8389 46.0077C63.031 48.5743 61.8191 50.9943 60.2285 53.1971C58.658 55.3696 56.7594 57.2844 54.5881 58.886C50.0737 62.2104 44.6959 63.9636 39.0403 63.9636C35.5359 63.9636 32.1425 63.2916 28.9411 61.9629C25.8558 60.6796 23.0785 58.8456 20.6951 56.5064C18.3117 54.1672 16.4383 51.444 15.1355 48.4126C13.7822 45.2751 13.1005 41.9406 13.1005 38.5C13.1005 35.0594 13.7872 31.7249 15.1355 28.5874C16.4433 25.556 18.3117 22.8328 20.6951 20.4936C23.0785 18.1544 25.8558 16.3204 28.9411 15.0371C32.1375 13.7084 35.5359 13.0364 39.0403 13.0364C44.7009 13.0364 50.0737 14.7896 54.5881 18.114C56.7644 19.7156 58.658 21.6304 60.2285 23.8029C61.8191 26.0057 63.031 28.4257 63.8389 30.9923C63.844 31.0074 63.849 31.0226 63.8541 31.0378C62.4554 32.0432 60.8243 32.7 59.0469 32.9778C59.4306 33.9176 59.7134 34.8876 59.8901 35.8678C59.8901 35.8829 59.8901 35.8981 59.9002 35.9132C62.0009 35.5293 63.9854 34.7108 65.7123 33.4629C67.3686 32.2604 67.0505 30.9013 66.798 30.093C63.1421 18.4626 52.0986 10 39.0403 10C22.9977 10 10 22.7621 10 38.5C10 54.2379 23.0027 67 39.0403 67C52.0986 67 63.1471 58.5374 66.798 46.8969C67.0505 46.0936 67.3737 44.7345 65.7123 43.5321Z" fill="#F8F7F0"/>
</g>
<defs>
<clipPath id="clip0_649_1085">
<rect width="57" height="57" fill="white" transform="translate(10 10)"/>
</clipPath>
</defs>
</svg>
