<svg width="326" height="76" viewBox="0 0 326 76" fill="none" xmlns="http://www.w3.org/2000/svg">
<g clip-path="url(#clip0_648_995)">
<path fill-rule="evenodd" clip-rule="evenodd" d="M68.9876 60C62.1004 69.6833 50.7878 76 38 76C17.0132 76 0 58.9868 0 38C0 17.0132 17.0132 0 38 0C50.3422 0 61.3101 5.88405 68.2515 15H316C321.523 15 326 19.4772 326 25V50C326 55.5228 321.523 60 316 60H68.9876Z" fill="#C7A572"/>
<g clip-path="url(#clip1_648_995)">
<path d="M49.0688 46.9676C47.2257 48.5743 44.9282 50.5699 40.7471 50.5699H38.2526C35.2329 50.5699 32.4809 49.4938 30.5166 47.5385C28.5977 45.6288 27.5373 43.0167 27.5373 40.1824V36.8277C27.5373 33.9933 28.5927 31.3763 30.5166 29.4715C32.4859 27.5163 35.2329 26.4402 38.2526 26.4402H40.7471C44.9282 26.4402 47.2257 28.4358 49.0688 30.0424C50.9826 31.7097 52.6339 33.1446 57.0422 33.1446C57.7239 33.1446 58.3955 33.089 59.0519 32.9879C59.0469 32.9728 59.0418 32.9627 59.0368 32.9526C58.7742 32.316 58.4662 31.6895 58.1127 31.0832L55.1688 26.0764C52.4672 21.4839 47.4732 18.6546 42.0701 18.6546H36.1822C30.7791 18.6546 25.7851 21.4839 23.0835 26.0764L20.1396 31.0832C17.4381 35.6758 17.4381 41.3343 20.1396 45.9269L23.0835 50.9337C25.7851 55.5262 30.7791 58.3555 36.1822 58.3555H42.0701C47.4732 58.3555 52.4672 55.5262 55.1688 50.9337L58.1127 45.9269C58.4662 45.3206 58.7742 44.6992 59.0368 44.0626C59.0418 44.0474 59.0469 44.0373 59.0519 44.0272C58.4005 43.9211 57.7289 43.8706 57.0422 43.8706C52.6389 43.8706 50.9826 45.3054 49.0688 46.9727" fill="#F8F7F0"/>
<path d="M40.7471 29.4766H38.2526C33.6524 29.4766 30.6327 32.7 30.6327 36.8277V40.1824C30.6327 44.3101 33.6524 47.5335 38.2526 47.5335H40.7471C47.4479 47.5335 46.9227 40.8291 57.0371 40.8291C58.0066 40.8291 58.9661 40.915 59.8952 41.0868C60.2032 39.3791 60.2032 37.6361 59.8952 35.9284C58.961 36.1002 58.0066 36.186 57.0371 36.186C46.9177 36.186 47.4479 29.4766 40.7471 29.4766Z" fill="#F8F7F0"/>
<path d="M65.7123 43.5321C63.9854 42.2791 62.0009 41.4657 59.9002 41.0817C59.9002 41.0969 59.8952 41.112 59.8901 41.1322C59.7084 42.1124 59.4306 43.0824 59.0469 44.0222C60.8193 44.3051 62.4554 44.9568 63.8541 45.9622C63.849 45.9774 63.844 45.9926 63.8389 46.0077C63.031 48.5743 61.8191 50.9943 60.2285 53.1971C58.658 55.3696 56.7594 57.2844 54.5881 58.886C50.0737 62.2104 44.6959 63.9636 39.0403 63.9636C35.5359 63.9636 32.1425 63.2916 28.9411 61.9629C25.8558 60.6796 23.0785 58.8456 20.6951 56.5064C18.3117 54.1672 16.4383 51.444 15.1355 48.4126C13.7822 45.2751 13.1005 41.9406 13.1005 38.5C13.1005 35.0594 13.7872 31.7249 15.1355 28.5874C16.4433 25.556 18.3117 22.8328 20.6951 20.4936C23.0785 18.1544 25.8558 16.3204 28.9411 15.0371C32.1375 13.7084 35.5359 13.0364 39.0403 13.0364C44.7009 13.0364 50.0737 14.7896 54.5881 18.114C56.7644 19.7156 58.658 21.6304 60.2285 23.8029C61.8191 26.0057 63.031 28.4257 63.8389 30.9923C63.844 31.0074 63.849 31.0226 63.8541 31.0378C62.4554 32.0432 60.8243 32.7 59.0469 32.9778C59.4306 33.9176 59.7134 34.8876 59.8901 35.8678C59.8901 35.8829 59.8901 35.8981 59.9002 35.9132C62.0009 35.5293 63.9854 34.7108 65.7123 33.4629C67.3686 32.2604 67.0505 30.9013 66.798 30.093C63.1421 18.4626 52.0986 10 39.0403 10C22.9977 10 10 22.7621 10 38.5C10 54.2379 23.0027 67 39.0403 67C52.0986 67 63.1471 58.5374 66.798 46.8969C67.0505 46.0936 67.3737 44.7345 65.7123 43.5321Z" fill="#F8F7F0"/>
</g>
<path d="M102.707 45H100.211C99.9311 45 99.6991 44.932 99.5151 44.796C99.3391 44.652 99.2111 44.476 99.1311 44.268L97.8351 40.728H90.6471L89.3511 44.268C89.2871 44.452 89.1591 44.62 88.9671 44.772C88.7831 44.924 88.5551 45 88.2831 45H85.7751L92.5911 27.648H95.8911L102.707 45ZM91.4751 38.448H97.0071L94.8951 32.676C94.7991 32.42 94.6911 32.12 94.5711 31.776C94.4591 31.424 94.3471 31.044 94.2351 30.636C94.1231 31.044 94.0111 31.424 93.8991 31.776C93.7951 32.128 93.6911 32.436 93.5871 32.7L91.4751 38.448ZM109.586 32.472C110.114 32.472 110.61 32.528 111.074 32.64C111.538 32.744 111.962 32.9 112.346 33.108H115.886V34.212C115.886 34.396 115.838 34.54 115.742 34.644C115.646 34.748 115.482 34.82 115.25 34.86L114.146 35.064C114.226 35.272 114.286 35.492 114.326 35.724C114.374 35.956 114.398 36.2 114.398 36.456C114.398 37.064 114.274 37.616 114.026 38.112C113.786 38.6 113.45 39.016 113.018 39.36C112.594 39.704 112.086 39.972 111.494 40.164C110.91 40.348 110.274 40.44 109.586 40.44C109.122 40.44 108.67 40.396 108.23 40.308C107.846 40.54 107.654 40.8 107.654 41.088C107.654 41.336 107.766 41.52 107.99 41.64C108.222 41.752 108.522 41.832 108.89 41.88C109.266 41.928 109.69 41.96 110.162 41.976C110.634 41.984 111.118 42.008 111.614 42.048C112.11 42.088 112.594 42.16 113.066 42.264C113.538 42.36 113.958 42.516 114.326 42.732C114.702 42.948 115.002 43.244 115.226 43.62C115.458 43.988 115.574 44.464 115.574 45.048C115.574 45.592 115.438 46.12 115.166 46.632C114.902 47.144 114.514 47.6 114.002 48C113.498 48.4 112.878 48.72 112.142 48.96C111.406 49.208 110.566 49.332 109.622 49.332C108.686 49.332 107.874 49.24 107.186 49.056C106.498 48.88 105.926 48.64 105.47 48.336C105.022 48.04 104.686 47.696 104.462 47.304C104.238 46.912 104.126 46.504 104.126 46.08C104.126 45.504 104.302 45.02 104.654 44.628C105.006 44.236 105.494 43.924 106.118 43.692C105.814 43.524 105.57 43.3 105.386 43.02C105.202 42.74 105.11 42.376 105.11 41.928C105.11 41.744 105.142 41.556 105.206 41.364C105.27 41.164 105.366 40.968 105.494 40.776C105.63 40.584 105.798 40.404 105.998 40.236C106.198 40.06 106.434 39.904 106.706 39.768C106.082 39.432 105.59 38.984 105.23 38.424C104.878 37.864 104.702 37.208 104.702 36.456C104.702 35.848 104.822 35.3 105.062 34.812C105.31 34.316 105.65 33.896 106.082 33.552C106.522 33.2 107.038 32.932 107.63 32.748C108.23 32.564 108.882 32.472 109.586 32.472ZM112.838 45.552C112.838 45.312 112.766 45.116 112.622 44.964C112.478 44.812 112.282 44.696 112.034 44.616C111.786 44.528 111.494 44.464 111.158 44.424C110.83 44.384 110.478 44.356 110.102 44.34C109.734 44.316 109.35 44.296 108.95 44.28C108.558 44.256 108.178 44.22 107.81 44.172C107.474 44.356 107.202 44.576 106.994 44.832C106.794 45.08 106.694 45.368 106.694 45.696C106.694 45.912 106.746 46.112 106.85 46.296C106.962 46.488 107.134 46.652 107.366 46.788C107.606 46.924 107.914 47.028 108.29 47.1C108.666 47.18 109.126 47.22 109.67 47.22C110.222 47.22 110.698 47.176 111.098 47.088C111.498 47.008 111.826 46.892 112.082 46.74C112.346 46.596 112.538 46.42 112.658 46.212C112.778 46.012 112.838 45.792 112.838 45.552ZM109.586 38.544C109.954 38.544 110.274 38.496 110.546 38.4C110.818 38.296 111.042 38.156 111.218 37.98C111.402 37.804 111.538 37.592 111.626 37.344C111.722 37.096 111.77 36.824 111.77 36.528C111.77 35.92 111.586 35.44 111.218 35.088C110.858 34.728 110.314 34.548 109.586 34.548C108.858 34.548 108.31 34.728 107.942 35.088C107.582 35.44 107.402 35.92 107.402 36.528C107.402 36.816 107.446 37.084 107.534 37.332C107.63 37.58 107.766 37.796 107.942 37.98C108.126 38.156 108.354 38.296 108.626 38.4C108.906 38.496 109.226 38.544 109.586 38.544ZM123.836 32.496C124.612 32.496 125.324 32.62 125.972 32.868C126.628 33.116 127.192 33.48 127.664 33.96C128.136 34.432 128.504 35.016 128.768 35.712C129.032 36.4 129.164 37.188 129.164 38.076C129.164 38.3 129.152 38.488 129.128 38.64C129.112 38.784 129.076 38.9 129.02 38.988C128.972 39.068 128.904 39.128 128.816 39.168C128.728 39.2 128.616 39.216 128.48 39.216H120.872C120.96 40.48 121.3 41.408 121.892 42C122.484 42.592 123.268 42.888 124.244 42.888C124.724 42.888 125.136 42.832 125.48 42.72C125.832 42.608 126.136 42.484 126.392 42.348C126.656 42.212 126.884 42.088 127.076 41.976C127.276 41.864 127.468 41.808 127.652 41.808C127.772 41.808 127.876 41.832 127.964 41.88C128.052 41.928 128.128 41.996 128.192 42.084L129.056 43.164C128.728 43.548 128.36 43.872 127.952 44.136C127.544 44.392 127.116 44.6 126.668 44.76C126.228 44.912 125.776 45.02 125.312 45.084C124.856 45.148 124.412 45.18 123.98 45.18C123.124 45.18 122.328 45.04 121.592 44.76C120.856 44.472 120.216 44.052 119.672 43.5C119.128 42.94 118.7 42.252 118.388 41.436C118.076 40.612 117.92 39.66 117.92 38.58C117.92 37.74 118.056 36.952 118.328 36.216C118.6 35.472 118.988 34.828 119.492 34.284C120.004 33.732 120.624 33.296 121.352 32.976C122.088 32.656 122.916 32.496 123.836 32.496ZM123.896 34.62C123.032 34.62 122.356 34.864 121.868 35.352C121.38 35.84 121.068 36.532 120.932 37.428H126.5C126.5 37.044 126.448 36.684 126.344 36.348C126.24 36.004 126.08 35.704 125.864 35.448C125.648 35.192 125.376 34.992 125.048 34.848C124.72 34.696 124.336 34.62 123.896 34.62ZM132.568 45V32.688H134.38C134.764 32.688 135.016 32.868 135.136 33.228L135.34 34.2C135.588 33.944 135.848 33.712 136.12 33.504C136.4 33.296 136.692 33.116 136.996 32.964C137.308 32.812 137.64 32.696 137.992 32.616C138.344 32.536 138.728 32.496 139.144 32.496C139.816 32.496 140.412 32.612 140.932 32.844C141.452 33.068 141.884 33.388 142.228 33.804C142.58 34.212 142.844 34.704 143.02 35.28C143.204 35.848 143.296 36.476 143.296 37.164V45H140.332V37.164C140.332 36.412 140.156 35.832 139.804 35.424C139.46 35.008 138.94 34.8 138.244 34.8C137.732 34.8 137.252 34.916 136.804 35.148C136.356 35.38 135.932 35.696 135.532 36.096V45H132.568ZM155.873 45C155.489 45 155.237 44.82 155.117 44.46L154.877 43.272C154.621 43.56 154.353 43.82 154.073 44.052C153.793 44.284 153.489 44.484 153.161 44.652C152.841 44.82 152.493 44.948 152.117 45.036C151.749 45.132 151.349 45.18 150.917 45.18C150.245 45.18 149.629 45.04 149.069 44.76C148.509 44.48 148.025 44.076 147.617 43.548C147.217 43.012 146.905 42.352 146.681 41.568C146.465 40.784 146.357 39.888 146.357 38.88C146.357 37.968 146.481 37.12 146.729 36.336C146.977 35.552 147.333 34.872 147.797 34.296C148.261 33.72 148.817 33.272 149.465 32.952C150.113 32.624 150.841 32.46 151.649 32.46C152.337 32.46 152.925 32.572 153.413 32.796C153.901 33.012 154.337 33.304 154.721 33.672V27.168H157.685V45H155.873ZM151.925 42.828C152.541 42.828 153.065 42.7 153.497 42.444C153.929 42.188 154.337 41.824 154.721 41.352V35.832C154.385 35.424 154.017 35.136 153.617 34.968C153.225 34.8 152.801 34.716 152.345 34.716C151.897 34.716 151.489 34.8 151.121 34.968C150.761 35.136 150.453 35.392 150.197 35.736C149.949 36.072 149.757 36.504 149.621 37.032C149.485 37.552 149.417 38.168 149.417 38.88C149.417 39.6 149.473 40.212 149.585 40.716C149.705 41.212 149.873 41.62 150.089 41.94C150.305 42.252 150.569 42.48 150.881 42.624C151.193 42.76 151.541 42.828 151.925 42.828ZM166.985 32.496C167.761 32.496 168.473 32.62 169.121 32.868C169.777 33.116 170.341 33.48 170.813 33.96C171.285 34.432 171.653 35.016 171.917 35.712C172.181 36.4 172.312 37.188 172.312 38.076C172.312 38.3 172.301 38.488 172.277 38.64C172.261 38.784 172.225 38.9 172.169 38.988C172.121 39.068 172.053 39.128 171.965 39.168C171.877 39.2 171.765 39.216 171.629 39.216H164.021C164.109 40.48 164.449 41.408 165.041 42C165.633 42.592 166.417 42.888 167.393 42.888C167.873 42.888 168.285 42.832 168.629 42.72C168.981 42.608 169.285 42.484 169.541 42.348C169.805 42.212 170.033 42.088 170.225 41.976C170.425 41.864 170.617 41.808 170.801 41.808C170.921 41.808 171.025 41.832 171.113 41.88C171.201 41.928 171.277 41.996 171.341 42.084L172.205 43.164C171.877 43.548 171.509 43.872 171.101 44.136C170.693 44.392 170.265 44.6 169.817 44.76C169.377 44.912 168.925 45.02 168.461 45.084C168.005 45.148 167.561 45.18 167.129 45.18C166.273 45.18 165.477 45.04 164.741 44.76C164.005 44.472 163.365 44.052 162.821 43.5C162.277 42.94 161.849 42.252 161.537 41.436C161.225 40.612 161.069 39.66 161.069 38.58C161.069 37.74 161.205 36.952 161.477 36.216C161.749 35.472 162.137 34.828 162.641 34.284C163.153 33.732 163.773 33.296 164.501 32.976C165.237 32.656 166.065 32.496 166.985 32.496ZM167.045 34.62C166.181 34.62 165.505 34.864 165.017 35.352C164.529 35.84 164.217 36.532 164.081 37.428H169.649C169.649 37.044 169.597 36.684 169.493 36.348C169.389 36.004 169.229 35.704 169.013 35.448C168.797 35.192 168.525 34.992 168.197 34.848C167.869 34.696 167.485 34.62 167.045 34.62ZM184.069 32.688V40.512C184.069 41.264 184.241 41.848 184.585 42.264C184.937 42.672 185.461 42.876 186.157 42.876C186.669 42.876 187.149 42.764 187.597 42.54C188.045 42.308 188.469 41.992 188.869 41.592V32.688H191.833V45H190.021C189.637 45 189.385 44.82 189.265 44.46L189.061 43.476C188.805 43.732 188.541 43.968 188.269 44.184C187.997 44.392 187.705 44.572 187.393 44.724C187.089 44.868 186.757 44.98 186.397 45.06C186.045 45.148 185.665 45.192 185.257 45.192C184.585 45.192 183.989 45.08 183.469 44.856C182.957 44.624 182.525 44.3 182.173 43.884C181.821 43.468 181.553 42.976 181.369 42.408C181.193 41.832 181.105 41.2 181.105 40.512V32.688H184.069ZM195.998 45V32.688H197.81C198.194 32.688 198.446 32.868 198.566 33.228L198.758 34.14C198.974 33.9 199.198 33.68 199.43 33.48C199.67 33.28 199.922 33.108 200.186 32.964C200.458 32.82 200.746 32.708 201.05 32.628C201.362 32.54 201.702 32.496 202.07 32.496C202.846 32.496 203.482 32.708 203.978 33.132C204.482 33.548 204.858 34.104 205.106 34.8C205.298 34.392 205.538 34.044 205.826 33.756C206.114 33.46 206.43 33.22 206.774 33.036C207.118 32.852 207.482 32.716 207.866 32.628C208.258 32.54 208.65 32.496 209.042 32.496C209.722 32.496 210.326 32.6 210.854 32.808C211.382 33.016 211.826 33.32 212.186 33.72C212.546 34.12 212.818 34.608 213.002 35.184C213.194 35.76 213.29 36.42 213.29 37.164V45H210.326V37.164C210.326 36.38 210.154 35.792 209.81 35.4C209.466 35 208.962 34.8 208.298 34.8C207.994 34.8 207.71 34.852 207.446 34.956C207.19 35.06 206.962 35.212 206.762 35.412C206.57 35.604 206.418 35.848 206.306 36.144C206.194 36.44 206.138 36.78 206.138 37.164V45H203.162V37.164C203.162 36.34 202.994 35.74 202.658 35.364C202.33 34.988 201.842 34.8 201.194 34.8C200.77 34.8 200.37 34.908 199.994 35.124C199.626 35.332 199.282 35.62 198.962 35.988V45H195.998ZM222.842 45V27.168H225.806V34.02C226.286 33.564 226.814 33.196 227.39 32.916C227.966 32.636 228.642 32.496 229.418 32.496C230.09 32.496 230.686 32.612 231.206 32.844C231.726 33.068 232.158 33.388 232.502 33.804C232.854 34.212 233.118 34.704 233.294 35.28C233.478 35.848 233.57 36.476 233.57 37.164V45H230.606V37.164C230.606 36.412 230.43 35.832 230.078 35.424C229.734 35.008 229.214 34.8 228.518 34.8C228.006 34.8 227.526 34.916 227.078 35.148C226.63 35.38 226.206 35.696 225.806 36.096V45H222.842ZM242.738 32.496C243.658 32.496 244.49 32.644 245.234 32.94C245.986 33.236 246.626 33.656 247.154 34.2C247.682 34.744 248.09 35.408 248.378 36.192C248.666 36.976 248.81 37.852 248.81 38.82C248.81 39.796 248.666 40.676 248.378 41.46C248.09 42.244 247.682 42.912 247.154 43.464C246.626 44.016 245.986 44.44 245.234 44.736C244.49 45.032 243.658 45.18 242.738 45.18C241.818 45.18 240.982 45.032 240.23 44.736C239.478 44.44 238.834 44.016 238.298 43.464C237.77 42.912 237.358 42.244 237.062 41.46C236.774 40.676 236.63 39.796 236.63 38.82C236.63 37.852 236.774 36.976 237.062 36.192C237.358 35.408 237.77 34.744 238.298 34.2C238.834 33.656 239.478 33.236 240.23 32.94C240.982 32.644 241.818 32.496 242.738 32.496ZM242.738 42.9C243.762 42.9 244.518 42.556 245.006 41.868C245.502 41.18 245.75 40.172 245.75 38.844C245.75 37.516 245.502 36.504 245.006 35.808C244.518 35.112 243.762 34.764 242.738 34.764C241.698 34.764 240.93 35.116 240.434 35.82C239.938 36.516 239.69 37.524 239.69 38.844C239.69 40.164 239.938 41.172 240.434 41.868C240.93 42.556 241.698 42.9 242.738 42.9ZM252.123 45V32.688H253.863C254.167 32.688 254.379 32.744 254.499 32.856C254.619 32.968 254.699 33.16 254.739 33.432L254.919 34.92C255.359 34.16 255.875 33.56 256.467 33.12C257.059 32.68 257.723 32.46 258.459 32.46C259.067 32.46 259.571 32.6 259.971 32.88L259.587 35.1C259.563 35.244 259.511 35.348 259.431 35.412C259.351 35.468 259.243 35.496 259.107 35.496C258.987 35.496 258.823 35.468 258.615 35.412C258.407 35.356 258.131 35.328 257.787 35.328C257.171 35.328 256.643 35.5 256.203 35.844C255.763 36.18 255.391 36.676 255.087 37.332V45H252.123ZM272.216 45H270.884C270.604 45 270.384 44.96 270.224 44.88C270.064 44.792 269.944 44.62 269.864 44.364L269.6 43.488C269.288 43.768 268.98 44.016 268.676 44.232C268.38 44.44 268.072 44.616 267.752 44.76C267.432 44.904 267.092 45.012 266.732 45.084C266.372 45.156 265.972 45.192 265.532 45.192C265.012 45.192 264.532 45.124 264.092 44.988C263.652 44.844 263.272 44.632 262.952 44.352C262.64 44.072 262.396 43.724 262.22 43.308C262.044 42.892 261.956 42.408 261.956 41.856C261.956 41.392 262.076 40.936 262.316 40.488C262.564 40.032 262.972 39.624 263.54 39.264C264.108 38.896 264.864 38.592 265.808 38.352C266.752 38.112 267.924 37.976 269.324 37.944V37.224C269.324 36.4 269.148 35.792 268.796 35.4C268.452 35 267.948 34.8 267.284 34.8C266.804 34.8 266.404 34.856 266.084 34.968C265.764 35.08 265.484 35.208 265.244 35.352C265.012 35.488 264.796 35.612 264.596 35.724C264.396 35.836 264.176 35.892 263.936 35.892C263.736 35.892 263.564 35.84 263.42 35.736C263.276 35.632 263.16 35.504 263.072 35.352L262.532 34.404C263.948 33.108 265.656 32.46 267.656 32.46C268.376 32.46 269.016 32.58 269.576 32.82C270.144 33.052 270.624 33.38 271.016 33.804C271.408 34.22 271.704 34.72 271.904 35.304C272.112 35.888 272.216 36.528 272.216 37.224V45ZM266.456 43.152C266.76 43.152 267.04 43.124 267.296 43.068C267.552 43.012 267.792 42.928 268.016 42.816C268.248 42.704 268.468 42.568 268.676 42.408C268.892 42.24 269.108 42.044 269.324 41.82V39.744C268.46 39.784 267.736 39.86 267.152 39.972C266.576 40.076 266.112 40.212 265.76 40.38C265.408 40.548 265.156 40.744 265.004 40.968C264.86 41.192 264.788 41.436 264.788 41.7C264.788 42.22 264.94 42.592 265.244 42.816C265.556 43.04 265.96 43.152 266.456 43.152ZM271.688 27.456L268.724 30.588C268.572 30.748 268.424 30.86 268.28 30.924C268.144 30.98 267.964 31.008 267.74 31.008H265.964L267.668 28.092C267.788 27.884 267.928 27.728 268.088 27.624C268.248 27.512 268.488 27.456 268.808 27.456H271.688ZM276.131 45V32.688H277.871C278.175 32.688 278.387 32.744 278.507 32.856C278.627 32.968 278.707 33.16 278.747 33.432L278.927 34.92C279.367 34.16 279.883 33.56 280.475 33.12C281.067 32.68 281.731 32.46 282.467 32.46C283.075 32.46 283.579 32.6 283.979 32.88L283.595 35.1C283.571 35.244 283.519 35.348 283.439 35.412C283.359 35.468 283.251 35.496 283.115 35.496C282.995 35.496 282.831 35.468 282.623 35.412C282.415 35.356 282.139 35.328 281.795 35.328C281.179 35.328 280.651 35.5 280.211 35.844C279.771 36.18 279.399 36.676 279.095 37.332V45H276.131ZM290.084 32.688V45H287.12V32.688H290.084ZM290.528 29.1C290.528 29.356 290.476 29.596 290.372 29.82C290.268 30.044 290.128 30.24 289.952 30.408C289.784 30.576 289.584 30.712 289.352 30.816C289.12 30.912 288.872 30.96 288.608 30.96C288.352 30.96 288.108 30.912 287.876 30.816C287.652 30.712 287.456 30.576 287.288 30.408C287.12 30.24 286.984 30.044 286.88 29.82C286.784 29.596 286.736 29.356 286.736 29.1C286.736 28.836 286.784 28.588 286.88 28.356C286.984 28.124 287.12 27.924 287.288 27.756C287.456 27.588 287.652 27.456 287.876 27.36C288.108 27.256 288.352 27.204 288.608 27.204C288.872 27.204 289.12 27.256 289.352 27.36C289.584 27.456 289.784 27.588 289.952 27.756C290.128 27.924 290.268 28.124 290.372 28.356C290.476 28.588 290.528 28.836 290.528 29.1ZM299.699 32.496C300.619 32.496 301.451 32.644 302.195 32.94C302.947 33.236 303.587 33.656 304.115 34.2C304.643 34.744 305.051 35.408 305.339 36.192C305.627 36.976 305.771 37.852 305.771 38.82C305.771 39.796 305.627 40.676 305.339 41.46C305.051 42.244 304.643 42.912 304.115 43.464C303.587 44.016 302.947 44.44 302.195 44.736C301.451 45.032 300.619 45.18 299.699 45.18C298.779 45.18 297.943 45.032 297.191 44.736C296.439 44.44 295.795 44.016 295.259 43.464C294.731 42.912 294.319 42.244 294.023 41.46C293.735 40.676 293.591 39.796 293.591 38.82C293.591 37.852 293.735 36.976 294.023 36.192C294.319 35.408 294.731 34.744 295.259 34.2C295.795 33.656 296.439 33.236 297.191 32.94C297.943 32.644 298.779 32.496 299.699 32.496ZM299.699 42.9C300.723 42.9 301.479 42.556 301.967 41.868C302.463 41.18 302.711 40.172 302.711 38.844C302.711 37.516 302.463 36.504 301.967 35.808C301.479 35.112 300.723 34.764 299.699 34.764C298.659 34.764 297.891 35.116 297.395 35.82C296.899 36.516 296.651 37.524 296.651 38.844C296.651 40.164 296.899 41.172 297.395 41.868C297.891 42.556 298.659 42.9 299.699 42.9Z" fill="#F8F7F0"/>
</g>
<defs>
<clipPath id="clip0_648_995">
<rect width="326" height="76" fill="white"/>
</clipPath>
<clipPath id="clip1_648_995">
<rect width="57" height="57" fill="white" transform="translate(10 10)"/>
</clipPath>
</defs>
</svg>
