<svg width="460" height="105" viewBox="0 0 460 105" fill="none" xmlns="http://www.w3.org/2000/svg">
<path fill-rule="evenodd" clip-rule="evenodd" d="M93.3768 84C83.8769 96.4595 68.8774 104.5 52 104.5C23.2812 104.5 0 81.2188 0 52.5C0 23.7812 23.2812 0.5 52 0.5C68.4215 0.5 83.0651 8.11199 92.5949 20H450C455.523 20 460 24.4772 460 30V74C460 79.5229 455.523 84 450 84H93.3768Z" fill="#C7A572"/>
<g clip-path="url(#clip0_649_1044)">
<path d="M52.85 74.82C48.09 74.82 43.68 73.41 39.98 70.98L31 73.84L33.92 65.22C31.12 61.39 29.47 56.69 29.47 51.61C29.47 50.85 29.51 50.1 29.59 49.36C30.72 37.61 40.72 28.4 52.85 28.4C64.98 28.4 75.23 37.84 76.16 49.8C76.21 50.4 76.24 51 76.24 51.61C76.24 64.41 65.74 74.82 52.85 74.82ZM80.65 50.91C80.27 35.98 67.98 24 52.85 24C37.72 24 25.71 35.71 25.06 50.4C25.05 50.81 25.03 51.21 25.03 51.61C25.03 56.83 26.49 61.7 29.01 65.87L24 80.68L39.41 75.78C43.4 77.97 47.98 79.22 52.85 79.22C68.22 79.22 80.67 66.86 80.67 51.61C80.67 51.37 80.67 51.14 80.66 50.9" fill="#F8F7F0"/>
<path d="M65.6 57.18C64.91 56.84 61.56 55.2 60.94 54.98C60.32 54.75 59.86 54.64 59.4 55.32C58.95 56 57.63 57.52 57.24 57.96C56.84 58.41 56.45 58.47 55.76 58.13C55.08 57.79 52.88 57.09 50.28 54.77C48.26 52.99 46.88 50.77 46.49 50.1C46.1 49.42 46.45 49.06 46.79 48.72C47.1 48.41 47.47 47.93 47.82 47.54C47.91 47.42 47.99 47.32 48.07 47.22C48.23 46.97 48.34 46.74 48.5 46.41C48.73 45.95 48.62 45.56 48.45 45.22C48.28 44.88 46.91 41.55 46.34 40.19C45.78 38.84 45.21 39.07 44.8 39.07C44.39 39.07 43.95 39 43.5 39C43.05 39 42.3 39.17 41.68 39.85C41.05 40.53 39.3 42.17 39.3 45.5C39.3 46.28 39.44 47.06 39.65 47.81C40.34 50.19 41.83 52.16 42.09 52.5C42.43 52.94 46.81 60 53.73 62.73C60.67 65.42 60.67 64.52 61.92 64.41C63.17 64.31 65.96 62.78 66.52 61.2C67.09 59.62 67.09 58.27 66.92 57.98C66.75 57.7 66.3 57.54 65.62 57.2" fill="#F8F7F0"/>
</g>
<defs>
<clipPath id="clip0_649_1044">
<rect width="56.66" height="56.68" fill="white" transform="translate(24 24)"/>
</clipPath>
</defs>
</svg>
