<svg width="460" height="105" viewBox="0 0 460 105" fill="none" xmlns="http://www.w3.org/2000/svg">
<g clip-path="url(#clip0_648_989)">
<path fill-rule="evenodd" clip-rule="evenodd" d="M93.3768 84C83.8769 96.4595 68.8774 104.5 52 104.5C23.2812 104.5 0 81.2188 0 52.5C0 23.7812 23.2812 0.5 52 0.5C68.4215 0.5 83.0651 8.11199 92.5949 20H450C455.523 20 460 24.4772 460 30V74C460 79.5229 455.523 84 450 84H93.3768Z" fill="#C7A572"/>
<g clip-path="url(#clip1_648_989)">
<path d="M52.85 74.82C48.09 74.82 43.68 73.41 39.98 70.98L31 73.84L33.92 65.22C31.12 61.39 29.47 56.69 29.47 51.61C29.47 50.85 29.51 50.1 29.59 49.36C30.72 37.61 40.72 28.4 52.85 28.4C64.98 28.4 75.23 37.84 76.16 49.8C76.21 50.4 76.24 51 76.24 51.61C76.24 64.41 65.74 74.82 52.85 74.82ZM80.65 50.91C80.27 35.98 67.98 24 52.85 24C37.72 24 25.71 35.71 25.06 50.4C25.05 50.81 25.03 51.21 25.03 51.61C25.03 56.83 26.49 61.7 29.01 65.87L24 80.68L39.41 75.78C43.4 77.97 47.98 79.22 52.85 79.22C68.22 79.22 80.67 66.86 80.67 51.61C80.67 51.37 80.67 51.14 80.66 50.9" fill="#F8F7F0"/>
<path d="M65.6 57.18C64.91 56.84 61.56 55.2 60.94 54.98C60.32 54.75 59.86 54.64 59.4 55.32C58.95 56 57.63 57.52 57.24 57.96C56.84 58.41 56.45 58.47 55.76 58.13C55.08 57.79 52.88 57.09 50.28 54.77C48.26 52.99 46.88 50.77 46.49 50.1C46.1 49.42 46.45 49.06 46.79 48.72C47.1 48.41 47.47 47.93 47.82 47.54C47.91 47.42 47.99 47.32 48.07 47.22C48.23 46.97 48.34 46.74 48.5 46.41C48.73 45.95 48.62 45.56 48.45 45.22C48.28 44.88 46.91 41.55 46.34 40.19C45.78 38.84 45.21 39.07 44.8 39.07C44.39 39.07 43.95 39 43.5 39C43.05 39 42.3 39.17 41.68 39.85C41.05 40.53 39.3 42.17 39.3 45.5C39.3 46.28 39.44 47.06 39.65 47.81C40.34 50.19 41.83 52.16 42.09 52.5C42.43 52.94 46.81 60 53.73 62.73C60.67 65.42 60.67 64.52 61.92 64.41C63.17 64.31 65.96 62.78 66.52 61.2C67.09 59.62 67.09 58.27 66.92 57.98C66.75 57.7 66.3 57.54 65.62 57.2" fill="#F8F7F0"/>
</g>
<path d="M116.918 53C117.088 53.32 117.243 53.655 117.383 54.005C117.533 54.345 117.678 54.69 117.818 55.04C117.958 54.68 118.103 54.325 118.253 53.975C118.403 53.625 118.563 53.29 118.733 52.97L125.153 40.955C125.233 40.805 125.313 40.685 125.393 40.595C125.483 40.505 125.578 40.44 125.678 40.4C125.788 40.36 125.908 40.335 126.038 40.325C126.168 40.315 126.323 40.31 126.503 40.31H129.548V62H125.993V47.99C125.993 47.73 125.998 47.445 126.008 47.135C126.028 46.825 126.053 46.51 126.083 46.19L119.528 58.49C119.378 58.77 119.183 58.99 118.943 59.15C118.703 59.3 118.423 59.375 118.103 59.375H117.548C117.228 59.375 116.948 59.3 116.708 59.15C116.468 58.99 116.273 58.77 116.123 58.49L109.478 46.145C109.518 46.475 109.543 46.8 109.553 47.12C109.573 47.43 109.583 47.72 109.583 47.99V62H106.028V40.31H109.073C109.253 40.31 109.408 40.315 109.538 40.325C109.668 40.335 109.783 40.36 109.883 40.4C109.993 40.44 110.093 40.505 110.183 40.595C110.273 40.685 110.358 40.805 110.438 40.955L116.918 53ZM146.769 62H145.104C144.754 62 144.479 61.95 144.279 61.85C144.079 61.74 143.929 61.525 143.829 61.205L143.499 60.11C143.109 60.46 142.724 60.77 142.344 61.04C141.974 61.3 141.589 61.52 141.189 61.7C140.789 61.88 140.364 62.015 139.914 62.105C139.464 62.195 138.964 62.24 138.414 62.24C137.764 62.24 137.164 62.155 136.614 61.985C136.064 61.805 135.589 61.54 135.189 61.19C134.799 60.84 134.494 60.405 134.274 59.885C134.054 59.365 133.944 58.76 133.944 58.07C133.944 57.49 134.094 56.92 134.394 56.36C134.704 55.79 135.214 55.28 135.924 54.83C136.634 54.37 137.579 53.99 138.759 53.69C139.939 53.39 141.404 53.22 143.154 53.18V52.28C143.154 51.25 142.934 50.49 142.494 50C142.064 49.5 141.434 49.25 140.604 49.25C140.004 49.25 139.504 49.32 139.104 49.46C138.704 49.6 138.354 49.76 138.054 49.94C137.764 50.11 137.494 50.265 137.244 50.405C136.994 50.545 136.719 50.615 136.419 50.615C136.169 50.615 135.954 50.55 135.774 50.42C135.594 50.29 135.449 50.13 135.339 49.94L134.664 48.755C136.434 47.135 138.569 46.325 141.069 46.325C141.969 46.325 142.769 46.475 143.469 46.775C144.179 47.065 144.779 47.475 145.269 48.005C145.759 48.525 146.129 49.15 146.379 49.88C146.639 50.61 146.769 51.41 146.769 52.28V62ZM139.569 59.69C139.949 59.69 140.299 59.655 140.619 59.585C140.939 59.515 141.239 59.41 141.519 59.27C141.809 59.13 142.084 58.96 142.344 58.76C142.614 58.55 142.884 58.305 143.154 58.025V55.43C142.074 55.48 141.169 55.575 140.439 55.715C139.719 55.845 139.139 56.015 138.699 56.225C138.259 56.435 137.944 56.68 137.754 56.96C137.574 57.24 137.484 57.545 137.484 57.875C137.484 58.525 137.674 58.99 138.054 59.27C138.444 59.55 138.949 59.69 139.569 59.69ZM151.412 62V46.61H153.677C154.157 46.61 154.472 46.835 154.622 47.285L154.877 48.5C155.187 48.18 155.512 47.89 155.852 47.63C156.202 47.37 156.567 47.145 156.947 46.955C157.337 46.765 157.752 46.62 158.192 46.52C158.632 46.42 159.112 46.37 159.632 46.37C160.472 46.37 161.217 46.515 161.867 46.805C162.517 47.085 163.057 47.485 163.487 48.005C163.927 48.515 164.257 49.13 164.477 49.85C164.707 50.56 164.822 51.345 164.822 52.205V62H161.117V52.205C161.117 51.265 160.897 50.54 160.457 50.03C160.027 49.51 159.377 49.25 158.507 49.25C157.867 49.25 157.267 49.395 156.707 49.685C156.147 49.975 155.617 50.37 155.117 50.87V62H151.412ZM180.292 62C179.812 62 179.497 61.775 179.347 61.325L179.047 59.84C178.727 60.2 178.392 60.525 178.042 60.815C177.692 61.105 177.312 61.355 176.902 61.565C176.502 61.775 176.067 61.935 175.597 62.045C175.137 62.165 174.637 62.225 174.097 62.225C173.257 62.225 172.487 62.05 171.787 61.7C171.087 61.35 170.482 60.845 169.972 60.185C169.472 59.515 169.082 58.69 168.802 57.71C168.532 56.73 168.397 55.61 168.397 54.35C168.397 53.21 168.552 52.15 168.862 51.17C169.172 50.19 169.617 49.34 170.197 48.62C170.777 47.9 171.472 47.34 172.282 46.94C173.092 46.53 174.002 46.325 175.012 46.325C175.872 46.325 176.607 46.465 177.217 46.745C177.827 47.015 178.372 47.38 178.852 47.84V39.71H182.557V62H180.292ZM175.357 59.285C176.127 59.285 176.782 59.125 177.322 58.805C177.862 58.485 178.372 58.03 178.852 57.44V50.54C178.432 50.03 177.972 49.67 177.472 49.46C176.982 49.25 176.452 49.145 175.882 49.145C175.322 49.145 174.812 49.25 174.352 49.46C173.902 49.67 173.517 49.99 173.197 50.42C172.887 50.84 172.647 51.38 172.477 52.04C172.307 52.69 172.222 53.46 172.222 54.35C172.222 55.25 172.292 56.015 172.432 56.645C172.582 57.265 172.792 57.775 173.062 58.175C173.332 58.565 173.662 58.85 174.052 59.03C174.442 59.2 174.877 59.285 175.357 59.285ZM193.932 46.37C194.902 46.37 195.792 46.525 196.602 46.835C197.422 47.145 198.127 47.6 198.717 48.2C199.307 48.79 199.767 49.52 200.097 50.39C200.427 51.25 200.592 52.235 200.592 53.345C200.592 53.625 200.577 53.86 200.547 54.05C200.527 54.23 200.482 54.375 200.412 54.485C200.352 54.585 200.267 54.66 200.157 54.71C200.047 54.75 199.907 54.77 199.737 54.77H190.227C190.337 56.35 190.762 57.51 191.502 58.25C192.242 58.99 193.222 59.36 194.442 59.36C195.042 59.36 195.557 59.29 195.987 59.15C196.427 59.01 196.807 58.855 197.127 58.685C197.457 58.515 197.742 58.36 197.982 58.22C198.232 58.08 198.472 58.01 198.702 58.01C198.852 58.01 198.982 58.04 199.092 58.1C199.202 58.16 199.297 58.245 199.377 58.355L200.457 59.705C200.047 60.185 199.587 60.59 199.077 60.92C198.567 61.24 198.032 61.5 197.472 61.7C196.922 61.89 196.357 62.025 195.777 62.105C195.207 62.185 194.652 62.225 194.112 62.225C193.042 62.225 192.047 62.05 191.127 61.7C190.207 61.34 189.407 60.815 188.727 60.125C188.047 59.425 187.512 58.565 187.122 57.545C186.732 56.515 186.537 55.325 186.537 53.975C186.537 52.925 186.707 51.94 187.047 51.02C187.387 50.09 187.872 49.285 188.502 48.605C189.142 47.915 189.917 47.37 190.827 46.97C191.747 46.57 192.782 46.37 193.932 46.37ZM194.007 49.025C192.927 49.025 192.082 49.33 191.472 49.94C190.862 50.55 190.472 51.415 190.302 52.535H197.262C197.262 52.055 197.197 51.605 197.067 51.185C196.937 50.755 196.737 50.38 196.467 50.06C196.197 49.74 195.857 49.49 195.447 49.31C195.037 49.12 194.557 49.025 194.007 49.025ZM214.788 46.61V56.39C214.788 57.33 215.003 58.06 215.433 58.58C215.873 59.09 216.528 59.345 217.398 59.345C218.038 59.345 218.638 59.205 219.198 58.925C219.758 58.635 220.288 58.24 220.788 57.74V46.61H224.493V62H222.228C221.748 62 221.433 61.775 221.283 61.325L221.028 60.095C220.708 60.415 220.378 60.71 220.038 60.98C219.698 61.24 219.333 61.465 218.943 61.655C218.563 61.835 218.148 61.975 217.698 62.075C217.258 62.185 216.783 62.24 216.273 62.24C215.433 62.24 214.688 62.1 214.038 61.82C213.398 61.53 212.858 61.125 212.418 60.605C211.978 60.085 211.643 59.47 211.413 58.76C211.193 58.04 211.083 57.25 211.083 56.39V46.61H214.788ZM229.449 62V46.61H231.714C232.194 46.61 232.509 46.835 232.659 47.285L232.899 48.425C233.169 48.125 233.449 47.85 233.739 47.6C234.039 47.35 234.354 47.135 234.684 46.955C235.024 46.775 235.384 46.635 235.764 46.535C236.154 46.425 236.579 46.37 237.039 46.37C238.009 46.37 238.804 46.635 239.424 47.165C240.054 47.685 240.524 48.38 240.834 49.25C241.074 48.74 241.374 48.305 241.734 47.945C242.094 47.575 242.489 47.275 242.919 47.045C243.349 46.815 243.804 46.645 244.284 46.535C244.774 46.425 245.264 46.37 245.754 46.37C246.604 46.37 247.359 46.5 248.019 46.76C248.679 47.02 249.234 47.4 249.684 47.9C250.134 48.4 250.474 49.01 250.704 49.73C250.944 50.45 251.064 51.275 251.064 52.205V62H247.359V52.205C247.359 51.225 247.144 50.49 246.714 50C246.284 49.5 245.654 49.25 244.824 49.25C244.444 49.25 244.089 49.315 243.759 49.445C243.439 49.575 243.154 49.765 242.904 50.015C242.664 50.255 242.474 50.56 242.334 50.93C242.194 51.3 242.124 51.725 242.124 52.205V62H238.404V52.205C238.404 51.175 238.194 50.425 237.774 49.955C237.364 49.485 236.754 49.25 235.944 49.25C235.414 49.25 234.914 49.385 234.444 49.655C233.984 49.915 233.554 50.275 233.154 50.735V62H229.449ZM267.763 62H266.098C265.748 62 265.473 61.95 265.273 61.85C265.073 61.74 264.923 61.525 264.823 61.205L264.493 60.11C264.103 60.46 263.718 60.77 263.338 61.04C262.968 61.3 262.583 61.52 262.183 61.7C261.783 61.88 261.358 62.015 260.908 62.105C260.458 62.195 259.958 62.24 259.408 62.24C258.758 62.24 258.158 62.155 257.608 61.985C257.058 61.805 256.583 61.54 256.183 61.19C255.793 60.84 255.488 60.405 255.268 59.885C255.048 59.365 254.938 58.76 254.938 58.07C254.938 57.49 255.088 56.92 255.388 56.36C255.698 55.79 256.208 55.28 256.918 54.83C257.628 54.37 258.573 53.99 259.753 53.69C260.933 53.39 262.398 53.22 264.148 53.18V52.28C264.148 51.25 263.928 50.49 263.488 50C263.058 49.5 262.428 49.25 261.598 49.25C260.998 49.25 260.498 49.32 260.098 49.46C259.698 49.6 259.348 49.76 259.048 49.94C258.758 50.11 258.488 50.265 258.238 50.405C257.988 50.545 257.713 50.615 257.413 50.615C257.163 50.615 256.948 50.55 256.768 50.42C256.588 50.29 256.443 50.13 256.333 49.94L255.658 48.755C257.428 47.135 259.563 46.325 262.063 46.325C262.963 46.325 263.763 46.475 264.463 46.775C265.173 47.065 265.773 47.475 266.263 48.005C266.753 48.525 267.123 49.15 267.373 49.88C267.633 50.61 267.763 51.41 267.763 52.28V62ZM260.563 59.69C260.943 59.69 261.293 59.655 261.613 59.585C261.933 59.515 262.233 59.41 262.513 59.27C262.803 59.13 263.078 58.96 263.338 58.76C263.608 58.55 263.878 58.305 264.148 58.025V55.43C263.068 55.48 262.163 55.575 261.433 55.715C260.713 55.845 260.133 56.015 259.693 56.225C259.253 56.435 258.938 56.68 258.748 56.96C258.568 57.24 258.478 57.545 258.478 57.875C258.478 58.525 258.668 58.99 259.048 59.27C259.438 59.55 259.943 59.69 260.563 59.69ZM279.207 62V46.61H281.472C281.952 46.61 282.267 46.835 282.417 47.285L282.657 48.425C282.927 48.125 283.207 47.85 283.497 47.6C283.797 47.35 284.112 47.135 284.442 46.955C284.782 46.775 285.142 46.635 285.522 46.535C285.912 46.425 286.337 46.37 286.797 46.37C287.767 46.37 288.562 46.635 289.182 47.165C289.812 47.685 290.282 48.38 290.592 49.25C290.832 48.74 291.132 48.305 291.492 47.945C291.852 47.575 292.247 47.275 292.677 47.045C293.107 46.815 293.562 46.645 294.042 46.535C294.532 46.425 295.022 46.37 295.512 46.37C296.362 46.37 297.117 46.5 297.777 46.76C298.437 47.02 298.992 47.4 299.442 47.9C299.892 48.4 300.232 49.01 300.462 49.73C300.702 50.45 300.822 51.275 300.822 52.205V62H297.117V52.205C297.117 51.225 296.902 50.49 296.472 50C296.042 49.5 295.412 49.25 294.582 49.25C294.202 49.25 293.847 49.315 293.517 49.445C293.197 49.575 292.912 49.765 292.662 50.015C292.422 50.255 292.232 50.56 292.092 50.93C291.952 51.3 291.882 51.725 291.882 52.205V62H288.162V52.205C288.162 51.175 287.952 50.425 287.532 49.955C287.122 49.485 286.512 49.25 285.702 49.25C285.172 49.25 284.672 49.385 284.202 49.655C283.742 49.915 283.312 50.275 282.912 50.735V62H279.207ZM311.82 46.37C312.79 46.37 313.68 46.525 314.49 46.835C315.31 47.145 316.015 47.6 316.605 48.2C317.195 48.79 317.655 49.52 317.985 50.39C318.315 51.25 318.48 52.235 318.48 53.345C318.48 53.625 318.465 53.86 318.435 54.05C318.415 54.23 318.37 54.375 318.3 54.485C318.24 54.585 318.155 54.66 318.045 54.71C317.935 54.75 317.795 54.77 317.625 54.77H308.115C308.225 56.35 308.65 57.51 309.39 58.25C310.13 58.99 311.11 59.36 312.33 59.36C312.93 59.36 313.445 59.29 313.875 59.15C314.315 59.01 314.695 58.855 315.015 58.685C315.345 58.515 315.63 58.36 315.87 58.22C316.12 58.08 316.36 58.01 316.59 58.01C316.74 58.01 316.87 58.04 316.98 58.1C317.09 58.16 317.185 58.245 317.265 58.355L318.345 59.705C317.935 60.185 317.475 60.59 316.965 60.92C316.455 61.24 315.92 61.5 315.36 61.7C314.81 61.89 314.245 62.025 313.665 62.105C313.095 62.185 312.54 62.225 312 62.225C310.93 62.225 309.935 62.05 309.015 61.7C308.095 61.34 307.295 60.815 306.615 60.125C305.935 59.425 305.4 58.565 305.01 57.545C304.62 56.515 304.425 55.325 304.425 53.975C304.425 52.925 304.595 51.94 304.935 51.02C305.275 50.09 305.76 49.285 306.39 48.605C307.03 47.915 307.805 47.37 308.715 46.97C309.635 46.57 310.67 46.37 311.82 46.37ZM311.895 49.025C310.815 49.025 309.97 49.33 309.36 49.94C308.75 50.55 308.36 51.415 308.19 52.535H315.15C315.15 52.055 315.085 51.605 314.955 51.185C314.825 50.755 314.625 50.38 314.355 50.06C314.085 49.74 313.745 49.49 313.335 49.31C312.925 49.12 312.445 49.025 311.895 49.025ZM322.486 62V46.61H324.751C325.231 46.61 325.546 46.835 325.696 47.285L325.951 48.5C326.261 48.18 326.586 47.89 326.926 47.63C327.276 47.37 327.641 47.145 328.021 46.955C328.411 46.765 328.826 46.62 329.266 46.52C329.706 46.42 330.186 46.37 330.706 46.37C331.546 46.37 332.291 46.515 332.941 46.805C333.591 47.085 334.131 47.485 334.561 48.005C335.001 48.515 335.331 49.13 335.551 49.85C335.781 50.56 335.896 51.345 335.896 52.205V62H332.191V52.205C332.191 51.265 331.971 50.54 331.531 50.03C331.101 49.51 330.451 49.25 329.581 49.25C328.941 49.25 328.341 49.395 327.781 49.685C327.221 49.975 326.691 50.37 326.191 50.87V62H322.486ZM349.672 49.61C349.572 49.77 349.467 49.885 349.357 49.955C349.247 50.015 349.107 50.045 348.937 50.045C348.757 50.045 348.562 49.995 348.352 49.895C348.152 49.795 347.917 49.685 347.647 49.565C347.377 49.435 347.067 49.32 346.717 49.22C346.377 49.12 345.972 49.07 345.502 49.07C344.772 49.07 344.197 49.225 343.777 49.535C343.357 49.845 343.147 50.25 343.147 50.75C343.147 51.08 343.252 51.36 343.462 51.59C343.682 51.81 343.967 52.005 344.317 52.175C344.677 52.345 345.082 52.5 345.532 52.64C345.982 52.77 346.442 52.915 346.912 53.075C347.382 53.235 347.842 53.42 348.292 53.63C348.742 53.83 349.142 54.09 349.492 54.41C349.852 54.72 350.137 55.095 350.347 55.535C350.567 55.975 350.677 56.505 350.677 57.125C350.677 57.865 350.542 58.55 350.272 59.18C350.002 59.8 349.607 60.34 349.087 60.8C348.567 61.25 347.922 61.605 347.152 61.865C346.392 62.115 345.517 62.24 344.527 62.24C343.997 62.24 343.477 62.19 342.967 62.09C342.467 62 341.982 61.87 341.512 61.7C341.052 61.53 340.622 61.33 340.222 61.1C339.832 60.87 339.487 60.62 339.187 60.35L340.042 58.94C340.152 58.77 340.282 58.64 340.432 58.55C340.582 58.46 340.772 58.415 341.002 58.415C341.232 58.415 341.447 58.48 341.647 58.61C341.857 58.74 342.097 58.88 342.367 59.03C342.637 59.18 342.952 59.32 343.312 59.45C343.682 59.58 344.147 59.645 344.707 59.645C345.147 59.645 345.522 59.595 345.832 59.495C346.152 59.385 346.412 59.245 346.612 59.075C346.822 58.905 346.972 58.71 347.062 58.49C347.162 58.26 347.212 58.025 347.212 57.785C347.212 57.425 347.102 57.13 346.882 56.9C346.672 56.67 346.387 56.47 346.027 56.3C345.677 56.13 345.272 55.98 344.812 55.85C344.362 55.71 343.897 55.56 343.417 55.4C342.947 55.24 342.482 55.055 342.022 54.845C341.572 54.625 341.167 54.35 340.807 54.02C340.457 53.69 340.172 53.285 339.952 52.805C339.742 52.325 339.637 51.745 339.637 51.065C339.637 50.435 339.762 49.835 340.012 49.265C340.262 48.695 340.627 48.2 341.107 47.78C341.597 47.35 342.202 47.01 342.922 46.76C343.652 46.5 344.492 46.37 345.442 46.37C346.502 46.37 347.467 46.545 348.337 46.895C349.207 47.245 349.932 47.705 350.512 48.275L349.672 49.61ZM366.692 62H365.027C364.677 62 364.402 61.95 364.202 61.85C364.002 61.74 363.852 61.525 363.752 61.205L363.422 60.11C363.032 60.46 362.647 60.77 362.267 61.04C361.897 61.3 361.512 61.52 361.112 61.7C360.712 61.88 360.287 62.015 359.837 62.105C359.387 62.195 358.887 62.24 358.337 62.24C357.687 62.24 357.087 62.155 356.537 61.985C355.987 61.805 355.512 61.54 355.112 61.19C354.722 60.84 354.417 60.405 354.197 59.885C353.977 59.365 353.867 58.76 353.867 58.07C353.867 57.49 354.017 56.92 354.317 56.36C354.627 55.79 355.137 55.28 355.847 54.83C356.557 54.37 357.502 53.99 358.682 53.69C359.862 53.39 361.327 53.22 363.077 53.18V52.28C363.077 51.25 362.857 50.49 362.417 50C361.987 49.5 361.357 49.25 360.527 49.25C359.927 49.25 359.427 49.32 359.027 49.46C358.627 49.6 358.277 49.76 357.977 49.94C357.687 50.11 357.417 50.265 357.167 50.405C356.917 50.545 356.642 50.615 356.342 50.615C356.092 50.615 355.877 50.55 355.697 50.42C355.517 50.29 355.372 50.13 355.262 49.94L354.587 48.755C356.357 47.135 358.492 46.325 360.992 46.325C361.892 46.325 362.692 46.475 363.392 46.775C364.102 47.065 364.702 47.475 365.192 48.005C365.682 48.525 366.052 49.15 366.302 49.88C366.562 50.61 366.692 51.41 366.692 52.28V62ZM359.492 59.69C359.872 59.69 360.222 59.655 360.542 59.585C360.862 59.515 361.162 59.41 361.442 59.27C361.732 59.13 362.007 58.96 362.267 58.76C362.537 58.55 362.807 58.305 363.077 58.025V55.43C361.997 55.48 361.092 55.575 360.362 55.715C359.642 55.845 359.062 56.015 358.622 56.225C358.182 56.435 357.867 56.68 357.677 56.96C357.497 57.24 357.407 57.545 357.407 57.875C357.407 58.525 357.597 58.99 357.977 59.27C358.367 59.55 358.872 59.69 359.492 59.69ZM376.66 46.34C377.32 46.34 377.94 46.41 378.52 46.55C379.1 46.68 379.63 46.875 380.11 47.135H384.535V48.515C384.535 48.745 384.475 48.925 384.355 49.055C384.235 49.185 384.03 49.275 383.74 49.325L382.36 49.58C382.46 49.84 382.535 50.115 382.585 50.405C382.645 50.695 382.675 51 382.675 51.32C382.675 52.08 382.52 52.77 382.21 53.39C381.91 54 381.49 54.52 380.95 54.95C380.42 55.38 379.785 55.715 379.045 55.955C378.315 56.185 377.52 56.3 376.66 56.3C376.08 56.3 375.515 56.245 374.965 56.135C374.485 56.425 374.245 56.75 374.245 57.11C374.245 57.42 374.385 57.65 374.665 57.8C374.955 57.94 375.33 58.04 375.79 58.1C376.26 58.16 376.79 58.2 377.38 58.22C377.97 58.23 378.575 58.26 379.195 58.31C379.815 58.36 380.42 58.45 381.01 58.58C381.6 58.7 382.125 58.895 382.585 59.165C383.055 59.435 383.43 59.805 383.71 60.275C384 60.735 384.145 61.33 384.145 62.06C384.145 62.74 383.975 63.4 383.635 64.04C383.305 64.68 382.82 65.25 382.18 65.75C381.55 66.25 380.775 66.65 379.855 66.95C378.935 67.26 377.885 67.415 376.705 67.415C375.535 67.415 374.52 67.3 373.66 67.07C372.8 66.85 372.085 66.55 371.515 66.17C370.955 65.8 370.535 65.37 370.255 64.88C369.975 64.39 369.835 63.88 369.835 63.35C369.835 62.63 370.055 62.025 370.495 61.535C370.935 61.045 371.545 60.655 372.325 60.365C371.945 60.155 371.64 59.875 371.41 59.525C371.18 59.175 371.065 58.72 371.065 58.16C371.065 57.93 371.105 57.695 371.185 57.455C371.265 57.205 371.385 56.96 371.545 56.72C371.715 56.48 371.925 56.255 372.175 56.045C372.425 55.825 372.72 55.63 373.06 55.46C372.28 55.04 371.665 54.48 371.215 53.78C370.775 53.08 370.555 52.26 370.555 51.32C370.555 50.56 370.705 49.875 371.005 49.265C371.315 48.645 371.74 48.12 372.28 47.69C372.83 47.25 373.475 46.915 374.215 46.685C374.965 46.455 375.78 46.34 376.66 46.34ZM380.725 62.69C380.725 62.39 380.635 62.145 380.455 61.955C380.275 61.765 380.03 61.62 379.72 61.52C379.41 61.41 379.045 61.33 378.625 61.28C378.215 61.23 377.775 61.195 377.305 61.175C376.845 61.145 376.365 61.12 375.865 61.1C375.375 61.07 374.9 61.025 374.44 60.965C374.02 61.195 373.68 61.47 373.42 61.79C373.17 62.1 373.045 62.46 373.045 62.87C373.045 63.14 373.11 63.39 373.24 63.62C373.38 63.86 373.595 64.065 373.885 64.235C374.185 64.405 374.57 64.535 375.04 64.625C375.51 64.725 376.085 64.775 376.765 64.775C377.455 64.775 378.05 64.72 378.55 64.61C379.05 64.51 379.46 64.365 379.78 64.175C380.11 63.995 380.35 63.775 380.5 63.515C380.65 63.265 380.725 62.99 380.725 62.69ZM376.66 53.93C377.12 53.93 377.52 53.87 377.86 53.75C378.2 53.62 378.48 53.445 378.7 53.225C378.93 53.005 379.1 52.74 379.21 52.43C379.33 52.12 379.39 51.78 379.39 51.41C379.39 50.65 379.16 50.05 378.7 49.61C378.25 49.16 377.57 48.935 376.66 48.935C375.75 48.935 375.065 49.16 374.605 49.61C374.155 50.05 373.93 50.65 373.93 51.41C373.93 51.77 373.985 52.105 374.095 52.415C374.215 52.725 374.385 52.995 374.605 53.225C374.835 53.445 375.12 53.62 375.46 53.75C375.81 53.87 376.21 53.93 376.66 53.93ZM394.223 46.37C395.193 46.37 396.083 46.525 396.893 46.835C397.713 47.145 398.418 47.6 399.008 48.2C399.598 48.79 400.058 49.52 400.388 50.39C400.718 51.25 400.883 52.235 400.883 53.345C400.883 53.625 400.868 53.86 400.838 54.05C400.818 54.23 400.773 54.375 400.703 54.485C400.643 54.585 400.558 54.66 400.448 54.71C400.338 54.75 400.198 54.77 400.028 54.77H390.518C390.628 56.35 391.053 57.51 391.793 58.25C392.533 58.99 393.513 59.36 394.733 59.36C395.333 59.36 395.848 59.29 396.278 59.15C396.718 59.01 397.098 58.855 397.418 58.685C397.748 58.515 398.033 58.36 398.273 58.22C398.523 58.08 398.763 58.01 398.993 58.01C399.143 58.01 399.273 58.04 399.383 58.1C399.493 58.16 399.588 58.245 399.668 58.355L400.748 59.705C400.338 60.185 399.878 60.59 399.368 60.92C398.858 61.24 398.323 61.5 397.763 61.7C397.213 61.89 396.648 62.025 396.068 62.105C395.498 62.185 394.943 62.225 394.403 62.225C393.333 62.225 392.338 62.05 391.418 61.7C390.498 61.34 389.698 60.815 389.018 60.125C388.338 59.425 387.803 58.565 387.413 57.545C387.023 56.515 386.828 55.325 386.828 53.975C386.828 52.925 386.998 51.94 387.338 51.02C387.678 50.09 388.163 49.285 388.793 48.605C389.433 47.915 390.208 47.37 391.118 46.97C392.038 46.57 393.073 46.37 394.223 46.37ZM394.298 49.025C393.218 49.025 392.373 49.33 391.763 49.94C391.153 50.55 390.763 51.415 390.593 52.535H397.553C397.553 52.055 397.488 51.605 397.358 51.185C397.228 50.755 397.028 50.38 396.758 50.06C396.488 49.74 396.148 49.49 395.738 49.31C395.328 49.12 394.848 49.025 394.298 49.025ZM404.888 62V46.61H407.153C407.633 46.61 407.948 46.835 408.098 47.285L408.338 48.425C408.608 48.125 408.888 47.85 409.178 47.6C409.478 47.35 409.793 47.135 410.123 46.955C410.463 46.775 410.823 46.635 411.203 46.535C411.593 46.425 412.018 46.37 412.478 46.37C413.448 46.37 414.243 46.635 414.863 47.165C415.493 47.685 415.963 48.38 416.273 49.25C416.513 48.74 416.813 48.305 417.173 47.945C417.533 47.575 417.928 47.275 418.358 47.045C418.788 46.815 419.243 46.645 419.723 46.535C420.213 46.425 420.703 46.37 421.193 46.37C422.043 46.37 422.798 46.5 423.458 46.76C424.118 47.02 424.673 47.4 425.123 47.9C425.573 48.4 425.913 49.01 426.143 49.73C426.383 50.45 426.503 51.275 426.503 52.205V62H422.798V52.205C422.798 51.225 422.583 50.49 422.153 50C421.723 49.5 421.093 49.25 420.263 49.25C419.883 49.25 419.528 49.315 419.198 49.445C418.878 49.575 418.593 49.765 418.343 50.015C418.103 50.255 417.913 50.56 417.773 50.93C417.633 51.3 417.563 51.725 417.563 52.205V62H413.843V52.205C413.843 51.175 413.633 50.425 413.213 49.955C412.803 49.485 412.193 49.25 411.383 49.25C410.853 49.25 410.353 49.385 409.883 49.655C409.423 49.915 408.993 50.275 408.593 50.735V62H404.888Z" fill="#F8F7F0"/>
</g>
<defs>
<clipPath id="clip0_648_989">
<rect width="460" height="104" fill="white" transform="translate(0 0.5)"/>
</clipPath>
<clipPath id="clip1_648_989">
<rect width="56.66" height="56.68" fill="white" transform="translate(24 24)"/>
</clipPath>
</defs>
</svg>
