<?xml version="1.0" encoding="UTF-8"?>
<svg id="Camada_1" data-name="Camada 1" xmlns="http://www.w3.org/2000/svg" width="1080" height="1080" xmlns:xlink="http://www.w3.org/1999/xlink" viewBox="0 0 1080 1080">
  <defs>
    <clipPath id="clippath-4">
      <path d="m635.69383,434.85423c52.68309,52.65747,52.68309,138.76903.0389,191.41384-52.68309,52.6445-138.76933,52.6445-191.45242,0-52.64481-52.64481-52.64481-138.75638,0-191.41384,52.6445-52.64481,138.76933-52.64481,191.41353,0m-169.90825,338.38881l74.20164-74.20102,74.18867,74.20102,84.25942-84.22052c87.14106-87.14105,87.14106-229.76872,0-316.90977-87.14043-87.14105-229.72982-87.14105-316.87087,0-87.14074,87.14105-87.14074,229.76872,0,316.90977l84.22114,84.22052Z" style="fill: #c7a572;"/>
    </clipPath>
    <clipPath id="clippath-5">
      <path d="m483.17509,515.07504c8.57915,0,15.49877,6.91962,15.49877,15.4858s-6.91962,15.49938-15.49877,15.49938c-8.56618,0-15.4858-6.9329-15.4858-15.49938s6.91962-15.4858,15.4858-15.4858" style="fill: #c7a572;"/>
    </clipPath>
    <clipPath id="clippath-6">
      <path d="m539.98723,515.07504c8.56618,0,15.49846,6.91962,15.49846,15.4858s-6.93228,15.49938-15.49846,15.49938c-8.52759,0-15.49877-6.9329-15.49877-15.49938s6.97117-15.4858,15.49877-15.4858" style="fill: #c7a572;"/>
    </clipPath>
    <clipPath id="clippath-7">
      <path d="m596.82468,515.07504c8.56618,0,15.49908,6.91962,15.49908,15.4858s-6.9329,15.49938-15.49908,15.49938-15.49877-6.9329-15.49877-15.49938,6.9329-15.4858,15.49877-15.4858" style="fill: #c7a572;"/>
    </clipPath>
  </defs>
  <g>
    <path d="m635.69383,434.85423c52.68309,52.65747,52.68309,138.76903.0389,191.41384-52.68309,52.6445-138.76933,52.6445-191.45242,0-52.64481-52.64481-52.64481-138.75638,0-191.41384,52.6445-52.64481,138.76933-52.64481,191.41353,0m-169.90825,338.38881l74.20164-74.20102,74.18867,74.20102,84.25942-84.22052c87.14106-87.14105,87.14106-229.76872,0-316.90977-87.14043-87.14105-229.72982-87.14105-316.87087,0-87.14074,87.14105-87.14074,229.76872,0,316.90977l84.22114,84.22052Z" style="fill: #c7a572;"/>
    <g style="clip-path: url(#clippath-4); fill: none;">
      <rect x="294.42371" y="284.9717" width="491.15267" height="488.27135" style="fill: #c7a572;"/>
    </g>
  </g>
  <g>
    <path d="m483.17509,515.07504c8.57915,0,15.49877,6.91962,15.49877,15.4858s-6.91962,15.49938-15.49877,15.49938c-8.56618,0-15.4858-6.9329-15.4858-15.49938s6.91962-15.4858,15.4858-15.4858" style="fill: #c7a572;"/>
    <g style="clip-path: url(#clippath-5); fill: none;">
      <rect x="467.68929" y="515.07504" width="30.98457" height="30.98519" style="fill: #c7a572;"/>
    </g>
  </g>
  <g>
    <path d="m539.98723,515.07504c8.56618,0,15.49846,6.91962,15.49846,15.4858s-6.93228,15.49938-15.49846,15.49938c-8.52759,0-15.49877-6.9329-15.49877-15.49938s6.97117-15.4858,15.49877-15.4858" style="fill: #c7a572;"/>
    <g style="clip-path: url(#clippath-6); fill: none;">
      <rect x="524.48846" y="515.07504" width="30.99722" height="30.98519" style="fill: #c7a572;"/>
    </g>
  </g>
  <g>
    <path d="m596.82468,515.07504c8.56618,0,15.49908,6.91962,15.49908,15.4858s-6.9329,15.49938-15.49908,15.49938-15.49877-6.9329-15.49877-15.49938,6.9329-15.4858,15.49877-15.4858" style="fill: #c7a572;"/>
    <g style="clip-path: url(#clippath-7); fill: none;">
      <rect x="581.32591" y="515.07504" width="30.99784" height="30.98519" style="fill: #c7a572;"/>
    </g>
  </g>
</svg>