<?xml version="1.0" encoding="UTF-8"?>
<svg id="Camada_1" data-name="Camada 1" xmlns="http://www.w3.org/2000/svg" width="1080" height="1080" xmlns:xlink="http://www.w3.org/1999/xlink" viewBox="0 0 1080 1080">
  <defs>
    <clipPath id="clippath-1">
      <path d="m540,445.362c-22.8947,0-41.45445-18.55975-41.45445-41.45445s18.55975-41.45445,41.45445-41.45445,41.45445,18.56006,41.49334,41.45445c0,22.8947-18.59864,41.45445-41.49334,41.45445m184.12101-6.95821l-49.58321,13.26076-.17997.0389-49.40355,13.27341,18.08436,18.08406-17.54415,17.54415-61.21068,61.1721c-13.37651,13.37651-35.1911,13.37651-48.56762,0l-78.71594-78.71625,18.08436-18.08406-49.40355-13.27341-.18028-.0389-49.58321-13.26076-18.22544,18.18716-12.14237,12.14175c-13.38917,13.37651-13.38917,35.21642,0,48.6059l12.14237,12.14206,178.02406,178.02436c13.37651,13.38917,35.1911,13.38917,48.56762,0l188.85449-188.85449,1.31194-1.31194c13.38917-13.38948,13.38917-35.22938,0-48.6059l-12.14206-12.14175-18.18716-18.18716Zm-280.52249-21.58245l3.3956,3.34405,68.72207,68.76096c13.37651,13.35089,35.1911,13.35089,48.56762,0l24.75981-24.78543,47.35786-47.31958,8.78473-8.7977c13.37651-13.37651,35.17814-13.37651,48.56762,0l12.14144,12.14175,18.22574,18.2384-13.31231,49.58352-.03828.17997-13.23513,49.40324-18.08406-18.08375-115.16743,115.1415c-13.37651,13.37651-35.1911,13.37651-48.56762,0l-115.1415-115.1415-18.08436,18.08375-13.27341-49.40324-.02562-.17997-13.27372-49.58352,18.18716-18.2384,12.14144-12.14175c13.38948-13.37651,35.22938-13.37651,48.6059,0l8.74646,8.7977Z" style="fill: #c7a572;"/>
    </clipPath>
  </defs>
  <path d="m540,445.362c-22.8947,0-41.45445-18.55975-41.45445-41.45445s18.55975-41.45445,41.45445-41.45445,41.45445,18.56006,41.49334,41.45445c0,22.8947-18.59864,41.45445-41.49334,41.45445m184.12101-6.95821l-49.58321,13.26076-.17997.0389-49.40355,13.27341,18.08436,18.08406-17.54415,17.54415-61.21068,61.1721c-13.37651,13.37651-35.1911,13.37651-48.56762,0l-78.71594-78.71625,18.08436-18.08406-49.40355-13.27341-.18028-.0389-49.58321-13.26076-18.22544,18.18716-12.14237,12.14175c-13.38917,13.37651-13.38917,35.21642,0,48.6059l12.14237,12.14206,178.02406,178.02436c13.37651,13.38917,35.1911,13.38917,48.56762,0l188.85449-188.85449,1.31194-1.31194c13.38917-13.38948,13.38917-35.22938,0-48.6059l-12.14206-12.14175-18.18716-18.18716Zm-280.52249-21.58245l3.3956,3.34405,68.72207,68.76096c13.37651,13.35089,35.1911,13.35089,48.56762,0l24.75981-24.78543,47.35786-47.31958,8.78473-8.7977c13.37651-13.37651,35.17814-13.37651,48.56762,0l12.14144,12.14175,18.22574,18.2384-13.31231,49.58352-.03828.17997-13.23513,49.40324-18.08406-18.08375-115.16743,115.1415c-13.37651,13.37651-35.1911,13.37651-48.56762,0l-115.1415-115.1415-18.08436,18.08375-13.27341-49.40324-.02562-.17997-13.27372-49.58352,18.18716-18.2384,12.14144-12.14175c13.38948-13.37651,35.22938-13.37651,48.6059,0l8.74646,8.7977Z" style="fill: #c7a572;"/>
  <g style="clip-path: url(#clippath-1); fill: none;">
    <rect x="312.1606" y="362.4531" width="455.67881" height="358.44108" style="fill: #c7a572;"/>
  </g>
</svg>