<?xml version="1.0" encoding="UTF-8"?>
<svg id="Camada_1" data-name="Camada 1" xmlns="http://www.w3.org/2000/svg" width="1080" height="1080" viewBox="0 0 1080 1080">
  <path d="m622.46113,399.67042l-65.49094,65.49181,16.89073,16.97025,32.825,32.825c14.02266,13.94314,14.02266,36.72904,0,50.67174-11.20023,11.12027-39.0752,38.99611-49.79524,49.79568l65.57047,65.49138c4.43507,4.61889,12.41133,4.63801,16.89073-.00043l132.17735-132.17735c4.70058-4.62106,4.70058-12.26923,0-16.89029l-132.17735-132.17735c-4.46158-4.5411-12.42915-4.54067-16.89073-.00043Z" style="fill: #c7a572;"/>
  <path d="m528.99656,493.10848c-10.02432,9.92524-28.31084,28.37472-38.79231,38.73973-4.62106,4.62106-4.62106,12.26923.00043,16.89073,11.13548,11.09376,39.08302,38.97482,49.79524,49.79525,14.75315-14.80443,34.62275-34.70054,49.79568-49.79525,4.62106-4.62149,4.62106-12.26967-.00043-16.89073l-32.90452-32.825-16.89073-16.97068-11.00337,11.05595Z" style="fill: #c7a572;"/>
  <path d="m523.02969,465.24219c.39197-.07387-65.57047-65.49138-65.49051-65.57177-4.62149-4.70015-12.19014-4.70015-16.89073.00043l-132.17727,132.17735c-4.7011,4.62106-4.7011,12.26923,0,16.89029l132.17727,132.17735c2.39005,2.39049,5.4176,3.50599,8.44515,3.50599,3.10707,0,6.13462-1.1155,8.44515-3.50556l65.49094-65.49138c-10.50876-10.5988-38.78231-38.86966-49.71572-49.79568-14.02266-13.9427-14.02266-36.72861.00043-50.67174,11.15416-11.07464,39.03957-38.96005,49.71529-49.71529Z" style="fill: #c7a572;"/>
  <path d="m539.43632,304.69143c-3.15444,0-6.25325,1.29541-8.45036,3.49295-3.54727,3.46036-30.10077,30.16335-32.84498,32.84455.00052,0-24.20125,24.20168-24.20125,24.20168-4.61976,4.61976-4.67581,12.22534,0,16.90116l57.63332,57.63288c4.42334,4.65148,12.47738,4.65713,16.90072,0,3.67329-3.61376,26.06375-26.1059,29.1265-29.12606l27.91983-27.92017c4.67616-4.67581,4.61967-12.2814,0-16.90116l-57.63297-57.63288c-2.19711-2.19711-5.29549-3.49295-8.45079-3.49295Z" style="fill: #c7a572;"/>
  <path d="m530.96249,640.23714c-15.34675,15.41367-41.76206,41.71382-57.04623,57.04667-4.61976,4.61932-4.67581,12.22491,0,16.90072l57.63332,57.63332c4.42334,4.65148,12.47738,4.65713,16.90115,0,15.29026-15.28244,41.69122-41.69731,57.04623-57.04623,4.67581-4.67625,4.61932-12.2814,0-16.90116l-57.63332-57.63332c-4.40813-4.59542-12.49259-4.60672-16.90115,0Z" style="fill: #c7a572;"/>
</svg>